M48
;DRILL file {KiCad 4.0.2-4+6225~38~ubuntu15.10.1-stable} date Fri 19 Feb 2016 12:28:39 PM PST
;FORMAT={-:-/ absolute / inch / decimal}
FMAT,2
INCH,TZ
T1C0.040
%
G90
G05
M72
T1
X4.85Y-3.6
X4.85Y-3.7
X4.85Y-3.8
X4.85Y-3.9
X4.85Y-4.
X4.85Y-4.1
X4.85Y-4.2
X4.85Y-4.3
X4.85Y-4.4
X4.85Y-4.5
X5.3Y-3.6
X5.3Y-3.7
X5.3Y-3.8
X5.3Y-3.9
X5.3Y-4.
X5.3Y-4.1
X5.3Y-4.2
X5.3Y-4.3
X5.3Y-4.4
X5.3Y-4.5
X5.55Y-3.75
X5.55Y-3.9
X5.55Y-4.05
X5.55Y-4.2
X5.65Y-3.75
X5.65Y-3.9
X5.65Y-4.05
X5.65Y-4.2
X5.75Y-3.75
X5.75Y-3.9
X5.75Y-4.05
X5.75Y-4.2
T0
M30
