<?xml version="1.0" encoding="UTF-8" standalone="no"?>
<svg xmlns="http://www.w3.org/2000/svg"
     xmlns:xlink="http://www.w3.org/1999/xlink"
     width="576px" height="433px" viewBox="0 0 576 433">
<title>glps_renderer figure</title>
<desc>
Creator: GL2PS 1.3.8, (C) 1999-2012 C. Geuzaine
For: Octave
CreationDate: Sun Aug 14 14:33:56 2016
</desc>
<defs>
</defs>
<g shape-rendering="crispEdges">
<polygon fill="#ffffff" points="74.8799,384.48 521.28,384.48 521.28,32.3999"/>
<polygon fill="#ffffff" points="74.8799,384.48 521.28,32.3999 74.8799,32.3999"/>
<polygon fill="#ffffff" points="378.618,67.3804 518.534,67.3804 518.534,35.146"/>
<polygon fill="#ffffff" points="378.618,67.3804 518.534,35.146 378.618,35.146"/>
<polyline fill="none" stroke="#000000" stroke-width="0.5" stroke-dasharray="16,0" points="74.8799,384.48 521.28,384.48"/>
<polyline fill="none" stroke="#000000" stroke-width="0.5" stroke-dasharray="16,0" points="74.8799,32.3999 521.28,32.3999"/>
<polyline fill="none" stroke="#000000" stroke-width="0.5" stroke-dasharray="16,0" points="74.8799,384.48 74.8799,32.3999"/>
<polyline fill="none" stroke="#000000" stroke-width="0.5" stroke-dasharray="16,0" points="521.28,384.48 521.28,32.3999"/>
<polyline fill="none" stroke="#000000" stroke-width="0.5" stroke-dasharray="16,0" points="74.8799,384.48 74.8799,380.015"/>
<polyline fill="none" stroke="#000000" stroke-width="0.5" stroke-dasharray="16,0" points="74.8799,32.3999 74.8799,36.8652"/>
<polyline fill="none" stroke="#000000" stroke-width="0.5" stroke-dasharray="16,0" points="164.16,384.48 164.16,380.015"/>
<polyline fill="none" stroke="#000000" stroke-width="0.5" stroke-dasharray="16,0" points="164.16,32.3999 164.16,36.8652"/>
<polyline fill="none" stroke="#000000" stroke-width="0.5" stroke-dasharray="16,0" points="253.44,384.48 253.44,380.015"/>
<polyline fill="none" stroke="#000000" stroke-width="0.5" stroke-dasharray="16,0" points="253.44,32.3999 253.44,36.8652"/>
<polyline fill="none" stroke="#000000" stroke-width="0.5" stroke-dasharray="16,0" points="342.72,384.48 342.72,380.015"/>
<polyline fill="none" stroke="#000000" stroke-width="0.5" stroke-dasharray="16,0" points="342.72,32.3999 342.72,36.8652"/>
<polyline fill="none" stroke="#000000" stroke-width="0.5" stroke-dasharray="16,0" points="432,384.48 432,380.015"/>
<polyline fill="none" stroke="#000000" stroke-width="0.5" stroke-dasharray="16,0" points="432,32.3999 432,36.8652"/>
<polyline fill="none" stroke="#000000" stroke-width="0.5" stroke-dasharray="16,0" points="521.28,384.48 521.28,380.015"/>
<polyline fill="none" stroke="#000000" stroke-width="0.5" stroke-dasharray="16,0" points="521.28,32.3999 521.28,36.8652"/>
<text fill="#000000" x="74.8799" y="389.481" font-size="10" text-anchor="middle" baseline-shift="-10" font-family="Helvetica">0</text>
<text fill="#000000" x="164.16" y="389.481" font-size="10" text-anchor="middle" baseline-shift="-10" font-family="Helvetica">0.2</text>
<text fill="#000000" x="253.44" y="389.481" font-size="10" text-anchor="middle" baseline-shift="-10" font-family="Helvetica">0.4</text>
<text fill="#000000" x="342.72" y="389.481" font-size="10" text-anchor="middle" baseline-shift="-10" font-family="Helvetica">0.6</text>
<text fill="#000000" x="432" y="389.481" font-size="10" text-anchor="middle" baseline-shift="-10" font-family="Helvetica">0.8</text>
<text fill="#000000" x="521.28" y="389.481" font-size="10" text-anchor="middle" baseline-shift="-10" font-family="Helvetica">1</text>
<polyline fill="none" stroke="#000000" stroke-width="0.5" stroke-dasharray="16,0" points="74.8799,384.48 79.3481,384.48"/>
<polyline fill="none" stroke="#000000" stroke-width="0.5" stroke-dasharray="16,0" points="521.28,384.48 516.812,384.48"/>
<polyline fill="none" stroke="#000000" stroke-width="0.5" stroke-dasharray="16,0" points="74.8799,334.183 79.3481,334.183"/>
<polyline fill="none" stroke="#000000" stroke-width="0.5" stroke-dasharray="16,0" points="521.28,334.183 516.812,334.183"/>
<polyline fill="none" stroke="#000000" stroke-width="0.5" stroke-dasharray="16,0" points="74.8799,283.886 79.3481,283.886"/>
<polyline fill="none" stroke="#000000" stroke-width="0.5" stroke-dasharray="16,0" points="521.28,283.886 516.812,283.886"/>
<polyline fill="none" stroke="#000000" stroke-width="0.5" stroke-dasharray="16,0" points="74.8799,233.588 79.3481,233.588"/>
<polyline fill="none" stroke="#000000" stroke-width="0.5" stroke-dasharray="16,0" points="521.28,233.588 516.812,233.588"/>
<polyline fill="none" stroke="#000000" stroke-width="0.5" stroke-dasharray="16,0" points="74.8799,183.292 79.3481,183.292"/>
<polyline fill="none" stroke="#000000" stroke-width="0.5" stroke-dasharray="16,0" points="521.28,183.292 516.812,183.292"/>
<polyline fill="none" stroke="#000000" stroke-width="0.5" stroke-dasharray="16,0" points="74.8799,132.994 79.3481,132.994"/>
<polyline fill="none" stroke="#000000" stroke-width="0.5" stroke-dasharray="16,0" points="521.28,132.994 516.812,132.994"/>
<polyline fill="none" stroke="#000000" stroke-width="0.5" stroke-dasharray="16,0" points="74.8799,82.6973 79.3481,82.6973"/>
<polyline fill="none" stroke="#000000" stroke-width="0.5" stroke-dasharray="16,0" points="521.28,82.6973 516.812,82.6973"/>
<polyline fill="none" stroke="#000000" stroke-width="0.5" stroke-dasharray="16,0" points="74.8799,32.3999 79.3481,32.3999"/>
<polyline fill="none" stroke="#000000" stroke-width="0.5" stroke-dasharray="16,0" points="521.28,32.3999 516.812,32.3999"/>
<text fill="#000000" x="69.8755" y="384.48" font-size="10" text-anchor="end" baseline-shift="-5" font-family="Helvetica">0</text>
<text fill="#000000" x="69.8755" y="334.183" font-size="10" text-anchor="end" baseline-shift="-5" font-family="Helvetica">0.2</text>
<text fill="#000000" x="69.8755" y="283.886" font-size="10" text-anchor="end" baseline-shift="-5" font-family="Helvetica">0.4</text>
<text fill="#000000" x="69.8755" y="233.588" font-size="10" text-anchor="end" baseline-shift="-5" font-family="Helvetica">0.6</text>
<text fill="#000000" x="69.8755" y="183.292" font-size="10" text-anchor="end" baseline-shift="-5" font-family="Helvetica">0.8</text>
<text fill="#000000" x="69.8755" y="132.994" font-size="10" text-anchor="end" baseline-shift="-5" font-family="Helvetica">1</text>
<text fill="#000000" x="69.8755" y="82.6973" font-size="10" text-anchor="end" baseline-shift="-5" font-family="Helvetica">1.2</text>
<text fill="#000000" x="69.8755" y="32.3999" font-size="10" text-anchor="end" baseline-shift="-5" font-family="Helvetica">1.4</text>
<text fill="#000000" x="298.08" y="402.481" font-size="10" text-anchor="middle" baseline-shift="-10" font-family="Helvetica">time (s)</text>
<text fill="#000000" x="50.8755" y="208.44" font-size="10" transform="rotate(-90, 50.8755, 208.44)" text-anchor="middle" baseline-shift="0" font-family="Helvetica">Cube Angular Velocity (rad/s)</text>
<polyline fill="none" stroke="#0000ff" stroke-width="0.5" points="74.8799,384.48 79.3892,343.371 83.8979,297.701 88.4072,253.249 92.9165,213.078 97.4253,178.987 101.935,151.755 106.444,131.391 110.953,117.372 115.462,108.843 119.971,104.787 124.48,104.15 128.989,105.938 133.498,109.271 138.007,113.421 142.517,117.816 147.025,122.042 151.535,125.824 156.043,129.004 160.553,131.522 165.062,133.384 169.571,134.648 174.08,135.397 178.589,135.732 183.098,135.753 187.607,135.554 192.116,135.218 196.625,134.813 201.135,134.391 205.644,133.99 210.153,133.634 214.662,133.338 219.171,133.105 223.68,132.936 228.189,132.822 232.698,132.756 237.207,132.729 241.716,132.731 246.226,132.752 250.734,132.786 255.244,132.826 259.753,132.866 264.262,132.904 268.771,132.938 273.28,132.965 277.789,132.986 282.298,133.002 286.807,133.012 291.316,133.018 295.826,133.02 300.334,133.02 304.844,133.017 309.353,133.014 313.862,133.01 318.371,133.006 322.88,133.002 327.389,133 331.898,132.997 336.407,132.995 340.917,132.993 345.425,132.993 349.935,132.992 354.444,132.992 358.953,132.992 363.462,132.992 367.971,132.993 372.48,132.993 376.989,132.993 381.498,132.994 386.007,132.994 390.516,132.994 395.025,132.994 399.535,132.995 404.043,132.995 408.553,132.995 413.062,132.995 417.571,132.995 422.08,132.995 426.589,132.995 431.098,132.995 435.607,132.995 440.116,132.994 444.625,132.994 449.135,132.994 453.644,132.994 458.153,132.994 462.662,132.994 467.171,132.994 471.68,132.994 476.189,132.994 480.698,132.994 485.207,132.994 489.716,132.994 494.226,132.994 498.734,132.994 503.244,132.994 507.753,132.994 512.262,132.994 516.771,132.994 521.28,132.994"/>
<polyline fill="none" stroke="#007f00" stroke-width="0.5" points="74.8799,384.48 79.3892,373.136 83.8979,363.618 88.4072,355.912 92.9165,349.672 97.4253,344.621 101.935,340.531 106.444,337.22 110.953,334.539 115.462,332.369 119.971,330.611 124.48,329.188 128.989,328.037 133.498,327.104 138.007,326.349 142.517,325.737 147.025,325.242 151.535,324.841 156.043,324.517 160.553,324.254 165.062,324.042 169.571,323.87 174.08,323.73 178.589,323.617 183.098,323.526 187.607,323.452 192.116,323.392 196.625,323.343 201.135,323.304 205.644,323.272 210.153,323.247 214.662,323.226 219.171,323.209 223.68,323.195 228.189,323.184 232.698,323.175 237.207,323.168 241.716,323.162 246.226,323.157 250.734,323.153 255.244,323.15 259.753,323.148 264.262,323.146 268.771,323.144 273.28,323.143 277.789,323.142 282.298,323.141 286.807,323.14 291.316,323.14 295.826,323.139 300.334,323.139 304.844,323.138 309.353,323.138 313.862,323.138 318.371,323.138 322.88,323.138 327.389,323.138 331.898,323.137 336.407,323.137 340.917,323.137 345.425,323.137 349.935,323.137 354.444,323.137 358.953,323.137 363.462,323.137 367.971,323.137 372.48,323.137 376.989,323.137 381.498,323.137 386.007,323.137 390.516,323.137 395.025,323.137 399.535,323.137 404.043,323.137 408.553,323.137 413.062,323.137 417.571,323.137 422.08,323.137 426.589,323.137 431.098,323.137 435.607,323.137 440.116,323.137 444.625,323.137 449.135,323.137 453.644,323.137 458.153,323.137 462.662,323.137 467.171,323.137 471.68,323.137 476.189,323.137 480.698,323.137 485.207,323.137 489.716,323.137 494.226,323.137 498.734,323.137 503.244,323.137 507.753,323.137 512.262,323.137 516.771,323.137 521.28,323.137"/>
<polyline fill="none" stroke="#000000" stroke-width="0.5" stroke-dasharray="16,0" points="378.618,67.3804 518.534,67.3804"/>
<polyline fill="none" stroke="#000000" stroke-width="0.5" stroke-dasharray="16,0" points="378.618,35.146 518.534,35.146"/>
<polyline fill="none" stroke="#000000" stroke-width="0.5" stroke-dasharray="16,0" points="378.618,67.3804 378.618,35.146"/>
<polyline fill="none" stroke="#000000" stroke-width="0.5" stroke-dasharray="16,0" points="518.534,67.3804 518.534,35.146"/>
<text fill="#000000" x="404.703" y="43.2046" font-size="10" text-anchor="start" baseline-shift="-5" font-family="Helvetica">PI controller Response</text>
<text fill="#000000" x="404.703" y="59.3218" font-size="10" text-anchor="start" baseline-shift="-5" font-family="Helvetica">Open Loop Response</text>
<polyline fill="none" stroke="#0000ff" stroke-width="0.5" points="381.363,43.2046 401.957,43.2046"/>
<polyline fill="none" stroke="#007f00" stroke-width="0.5" points="381.363,59.3218 401.957,59.3218"/>
<text fill="#000000" x="298.08" y="22.3999" font-size="10" text-anchor="middle" baseline-shift="0" font-family="Helvetica">CubeSat Reaction Wheel Velocity Response</text>
</g>
</svg>
