<?xml version="1.0" encoding="UTF-8" standalone="no"?>
<svg xmlns="http://www.w3.org/2000/svg"
     xmlns:xlink="http://www.w3.org/1999/xlink"
     width="576px" height="433px" viewBox="0 0 576 433">
<title>glps_renderer figure</title>
<desc>
Creator: GL2PS 1.3.8, (C) 1999-2012 C. Geuzaine
For: Octave
CreationDate: Tue Jun  7 16:51:06 2016
</desc>
<defs>
</defs>
<g shape-rendering="crispEdges">
<polygon fill="#ffffff" points="72.7998,374.69 506.8,374.69 506.8,31.5752"/>
<polygon fill="#ffffff" points="72.7998,374.69 506.8,31.5752 72.7998,31.5752"/>
<polygon fill="#ffffff" points="368.101,65.6646 504.13,65.6646 504.13,34.251"/>
<polygon fill="#ffffff" points="368.101,65.6646 504.13,34.251 368.101,34.251"/>
<polyline fill="none" stroke="#000000" stroke-width="0.5" stroke-dasharray="16,0" points="72.7998,374.69 506.8,374.69"/>
<polyline fill="none" stroke="#000000" stroke-width="0.5" stroke-dasharray="16,0" points="72.7998,31.5752 506.8,31.5752"/>
<polyline fill="none" stroke="#000000" stroke-width="0.5" stroke-dasharray="16,0" points="72.7998,374.69 72.7998,31.5752"/>
<polyline fill="none" stroke="#000000" stroke-width="0.5" stroke-dasharray="16,0" points="506.8,374.69 506.8,31.5752"/>
<polyline fill="none" stroke="#000000" stroke-width="0.5" stroke-dasharray="16,0" points="72.7998,374.69 72.7998,370.349"/>
<polyline fill="none" stroke="#000000" stroke-width="0.5" stroke-dasharray="16,0" points="72.7998,31.5752 72.7998,35.9165"/>
<polyline fill="none" stroke="#000000" stroke-width="0.5" stroke-dasharray="16,0" points="159.6,374.69 159.6,370.349"/>
<polyline fill="none" stroke="#000000" stroke-width="0.5" stroke-dasharray="16,0" points="159.6,31.5752 159.6,35.9165"/>
<polyline fill="none" stroke="#000000" stroke-width="0.5" stroke-dasharray="16,0" points="246.4,374.69 246.4,370.349"/>
<polyline fill="none" stroke="#000000" stroke-width="0.5" stroke-dasharray="16,0" points="246.4,31.5752 246.4,35.9165"/>
<polyline fill="none" stroke="#000000" stroke-width="0.5" stroke-dasharray="16,0" points="333.2,374.69 333.2,370.349"/>
<polyline fill="none" stroke="#000000" stroke-width="0.5" stroke-dasharray="16,0" points="333.2,31.5752 333.2,35.9165"/>
<polyline fill="none" stroke="#000000" stroke-width="0.5" stroke-dasharray="16,0" points="420,374.69 420,370.349"/>
<polyline fill="none" stroke="#000000" stroke-width="0.5" stroke-dasharray="16,0" points="420,31.5752 420,35.9165"/>
<polyline fill="none" stroke="#000000" stroke-width="0.5" stroke-dasharray="16,0" points="506.8,374.69 506.8,370.349"/>
<polyline fill="none" stroke="#000000" stroke-width="0.5" stroke-dasharray="16,0" points="506.8,31.5752 506.8,35.9165"/>
<text fill="#000000" x="72.7998" y="379.692" font-size="10" text-anchor="middle" baseline-shift="-10" font-family="Helvetica">0</text>
<text fill="#000000" x="159.6" y="379.692" font-size="10" text-anchor="middle" baseline-shift="-10" font-family="Helvetica">0.2</text>
<text fill="#000000" x="246.4" y="379.692" font-size="10" text-anchor="middle" baseline-shift="-10" font-family="Helvetica">0.4</text>
<text fill="#000000" x="333.2" y="379.692" font-size="10" text-anchor="middle" baseline-shift="-10" font-family="Helvetica">0.6</text>
<text fill="#000000" x="420" y="379.692" font-size="10" text-anchor="middle" baseline-shift="-10" font-family="Helvetica">0.8</text>
<text fill="#000000" x="506.8" y="379.692" font-size="10" text-anchor="middle" baseline-shift="-10" font-family="Helvetica">1</text>
<polyline fill="none" stroke="#000000" stroke-width="0.5" stroke-dasharray="16,0" points="72.7998,374.69 77.1401,374.69"/>
<polyline fill="none" stroke="#000000" stroke-width="0.5" stroke-dasharray="16,0" points="506.8,374.69 502.46,374.69"/>
<polyline fill="none" stroke="#000000" stroke-width="0.5" stroke-dasharray="16,0" points="72.7998,325.673 77.1401,325.673"/>
<polyline fill="none" stroke="#000000" stroke-width="0.5" stroke-dasharray="16,0" points="506.8,325.673 502.46,325.673"/>
<polyline fill="none" stroke="#000000" stroke-width="0.5" stroke-dasharray="16,0" points="72.7998,276.657 77.1401,276.657"/>
<polyline fill="none" stroke="#000000" stroke-width="0.5" stroke-dasharray="16,0" points="506.8,276.657 502.46,276.657"/>
<polyline fill="none" stroke="#000000" stroke-width="0.5" stroke-dasharray="16,0" points="72.7998,227.641 77.1401,227.641"/>
<polyline fill="none" stroke="#000000" stroke-width="0.5" stroke-dasharray="16,0" points="506.8,227.641 502.46,227.641"/>
<polyline fill="none" stroke="#000000" stroke-width="0.5" stroke-dasharray="16,0" points="72.7998,178.625 77.1401,178.625"/>
<polyline fill="none" stroke="#000000" stroke-width="0.5" stroke-dasharray="16,0" points="506.8,178.625 502.46,178.625"/>
<polyline fill="none" stroke="#000000" stroke-width="0.5" stroke-dasharray="16,0" points="72.7998,129.608 77.1401,129.608"/>
<polyline fill="none" stroke="#000000" stroke-width="0.5" stroke-dasharray="16,0" points="506.8,129.608 502.46,129.608"/>
<polyline fill="none" stroke="#000000" stroke-width="0.5" stroke-dasharray="16,0" points="72.7998,80.5913 77.1401,80.5913"/>
<polyline fill="none" stroke="#000000" stroke-width="0.5" stroke-dasharray="16,0" points="506.8,80.5913 502.46,80.5913"/>
<polyline fill="none" stroke="#000000" stroke-width="0.5" stroke-dasharray="16,0" points="72.7998,31.5752 77.1401,31.5752"/>
<polyline fill="none" stroke="#000000" stroke-width="0.5" stroke-dasharray="16,0" points="506.8,31.5752 502.46,31.5752"/>
<text fill="#000000" x="67.7998" y="374.69" font-size="10" text-anchor="end" baseline-shift="-5" font-family="Helvetica">0</text>
<text fill="#000000" x="67.7998" y="325.673" font-size="10" text-anchor="end" baseline-shift="-5" font-family="Helvetica">0.2</text>
<text fill="#000000" x="67.7998" y="276.657" font-size="10" text-anchor="end" baseline-shift="-5" font-family="Helvetica">0.4</text>
<text fill="#000000" x="67.7998" y="227.641" font-size="10" text-anchor="end" baseline-shift="-5" font-family="Helvetica">0.6</text>
<text fill="#000000" x="67.7998" y="178.625" font-size="10" text-anchor="end" baseline-shift="-5" font-family="Helvetica">0.8</text>
<text fill="#000000" x="67.7998" y="129.608" font-size="10" text-anchor="end" baseline-shift="-5" font-family="Helvetica">1</text>
<text fill="#000000" x="67.7998" y="80.5913" font-size="10" text-anchor="end" baseline-shift="-5" font-family="Helvetica">1.2</text>
<text fill="#000000" x="67.7998" y="31.5752" font-size="10" text-anchor="end" baseline-shift="-5" font-family="Helvetica">1.4</text>
<text fill="#000000" x="289.8" y="392.692" font-size="10" text-anchor="middle" baseline-shift="-10" font-family="Helvetica">time (s)</text>
<text fill="#000000" x="48.7998" y="203.132" font-size="10" transform="rotate(-90, 48.7998, 203.132)" text-anchor="middle" baseline-shift="0" font-family="Helvetica">Cube Angular Velocity (rad/s)</text>
<polyline fill="none" stroke="#0000ff" stroke-width="0.5" points="72.7998,374.69 77.1841,334.627 81.5679,290.121 85.9517,246.8 90.3354,207.652 94.7192,174.43 99.103,147.891 103.487,128.045 107.871,114.383 112.254,106.071 116.638,102.118 121.022,101.498 125.406,103.241 129.79,106.489 134.174,110.533 138.558,114.816 142.941,118.934 147.325,122.62 151.709,125.72 156.093,128.173 160.477,129.988 164.861,131.219 169.245,131.95 173.628,132.276 178.012,132.296 182.396,132.103 186.78,131.775 191.164,131.38 195.547,130.969 199.931,130.578 204.315,130.231 208.699,129.942 213.083,129.716 217.467,129.55 221.851,129.44 226.234,129.376 230.618,129.35 235.002,129.351 239.386,129.372 243.77,129.405 248.153,129.443 252.538,129.483 256.921,129.52 261.305,129.552 265.689,129.579 270.073,129.6 274.457,129.615 278.84,129.625 283.224,129.631 287.608,129.633 291.992,129.632 296.376,129.63 300.76,129.627 305.144,129.623 309.527,129.619 313.911,129.616 318.295,129.613 322.679,129.61 327.062,129.608 331.446,129.607 335.83,129.606 340.214,129.605 344.598,129.605 348.982,129.605 353.366,129.606 357.75,129.606 362.133,129.606 366.517,129.607 370.901,129.607 375.285,129.607 379.668,129.607 384.053,129.608 388.437,129.608 392.82,129.608 397.204,129.608 401.588,129.608 405.972,129.608 410.355,129.608 414.739,129.608 419.123,129.608 423.507,129.608 427.891,129.608 432.275,129.608 436.659,129.608 441.042,129.608 445.426,129.608 449.81,129.608 454.194,129.608 458.578,129.608 462.961,129.608 467.346,129.608 471.729,129.608 476.113,129.608 480.497,129.608 484.881,129.608 489.265,129.608 493.648,129.608 498.032,129.608 502.416,129.608 506.8,129.608"/>
<polyline fill="none" stroke="#007f00" stroke-width="0.5" points="72.7998,374.69 77.1841,363.635 81.5679,354.359 85.9517,346.849 90.3354,340.769 94.7192,335.846 99.103,331.86 103.487,328.633 107.871,326.021 112.254,323.905 116.638,322.193 121.022,320.806 125.406,319.684 129.79,318.775 134.174,318.039 138.558,317.443 142.941,316.96 147.325,316.57 151.709,316.254 156.093,315.998 160.477,315.791 164.861,315.623 169.245,315.487 173.628,315.377 178.012,315.288 182.396,315.216 186.78,315.157 191.164,315.11 195.547,315.072 199.931,315.041 204.315,315.016 208.699,314.996 213.083,314.979 217.467,314.966 221.851,314.955 226.234,314.946 230.618,314.939 235.002,314.934 239.386,314.929 243.77,314.925 248.153,314.922 252.538,314.919 256.921,314.917 261.305,314.916 265.689,314.915 270.073,314.914 274.457,314.913 278.84,314.912 283.224,314.912 287.608,314.911 291.992,314.911 296.376,314.91 300.76,314.91 305.144,314.91 309.527,314.91 313.911,314.91 318.295,314.91 322.679,314.909 327.062,314.909 331.446,314.909 335.83,314.909 340.214,314.909 344.598,314.909 348.982,314.909 353.366,314.909 357.75,314.909 362.133,314.909 366.517,314.909 370.901,314.909 375.285,314.909 379.668,314.909 384.053,314.909 388.437,314.909 392.82,314.909 397.204,314.909 401.588,314.909 405.972,314.909 410.355,314.909 414.739,314.909 419.123,314.909 423.507,314.909 427.891,314.909 432.275,314.909 436.659,314.909 441.042,314.909 445.426,314.909 449.81,314.909 454.194,314.909 458.578,314.909 462.961,314.909 467.346,314.909 471.729,314.909 476.113,314.909 480.497,314.909 484.881,314.909 489.265,314.909 493.648,314.909 498.032,314.909 502.416,314.909 506.8,314.909"/>
<polyline fill="none" stroke="#000000" stroke-width="0.5" stroke-dasharray="16,0" points="368.101,65.6646 504.13,65.6646"/>
<polyline fill="none" stroke="#000000" stroke-width="0.5" stroke-dasharray="16,0" points="368.101,34.251 504.13,34.251"/>
<polyline fill="none" stroke="#000000" stroke-width="0.5" stroke-dasharray="16,0" points="368.101,65.6646 368.101,34.251"/>
<polyline fill="none" stroke="#000000" stroke-width="0.5" stroke-dasharray="16,0" points="504.13,65.6646 504.13,34.251"/>
<text fill="#000000" x="393.461" y="42.1045" font-size="10" text-anchor="start" baseline-shift="-5" font-family="Helvetica">PI controller Response</text>
<text fill="#000000" x="393.461" y="57.811" font-size="10" text-anchor="start" baseline-shift="-5" font-family="Helvetica">Open Loop Response</text>
<polyline fill="none" stroke="#0000ff" stroke-width="0.5" points="370.77,42.1045 390.792,42.1045"/>
<polyline fill="none" stroke="#007f00" stroke-width="0.5" points="370.77,57.811 390.792,57.811"/>
<text fill="#000000" x="289.8" y="21.5752" font-size="10" text-anchor="middle" baseline-shift="0" font-family="Helvetica">CubeSat Reaction Wheel Velocity Response</text>
</g>
</svg>
