<?xml version="1.0" encoding="UTF-8" standalone="no"?>
<svg xmlns="http://www.w3.org/2000/svg"
     xmlns:xlink="http://www.w3.org/1999/xlink"
     width="576px" height="433px" viewBox="0 0 576 433">
<title>glps_renderer figure</title>
<desc>
Creator: GL2PS 1.3.8, (C) 1999-2012 C. Geuzaine
For: Octave
CreationDate: Sun Aug 14 14:19:56 2016
</desc>
<defs>
</defs>
<g shape-rendering="crispEdges">
<polyline fill="none" stroke="#000000" stroke-width="0.5" stroke-dasharray="16,0" points="72.7998,374.69 506.8,374.69"/>
<polyline fill="none" stroke="#000000" stroke-width="0.5" stroke-dasharray="16,0" points="72.7998,31.5752 506.8,31.5752"/>
<polyline fill="none" stroke="#0000ff" stroke-width="0.5" stroke-dasharray="16,0" points="72.7998,374.69 72.7998,31.5752"/>
<polyline fill="none" stroke="#000000" stroke-width="0.5" stroke-dasharray="16,0" points="72.7998,374.69 72.7998,370.349"/>
<polyline fill="none" stroke="#000000" stroke-width="0.5" stroke-dasharray="16,0" points="72.7998,31.5752 72.7998,35.9165"/>
<polyline fill="none" stroke="#000000" stroke-width="0.5" stroke-dasharray="16,0" points="183.911,374.69 183.911,370.349"/>
<polyline fill="none" stroke="#000000" stroke-width="0.5" stroke-dasharray="16,0" points="183.911,31.5752 183.911,35.9165"/>
<polyline fill="none" stroke="#000000" stroke-width="0.5" stroke-dasharray="16,0" points="295.022,374.69 295.022,370.349"/>
<polyline fill="none" stroke="#000000" stroke-width="0.5" stroke-dasharray="16,0" points="295.022,31.5752 295.022,35.9165"/>
<polyline fill="none" stroke="#000000" stroke-width="0.5" stroke-dasharray="16,0" points="406.133,374.69 406.133,370.349"/>
<polyline fill="none" stroke="#000000" stroke-width="0.5" stroke-dasharray="16,0" points="406.133,31.5752 406.133,35.9165"/>
<text fill="#000000" x="72.7998" y="379.692" font-size="10" text-anchor="middle" baseline-shift="-10" font-family="Helvetica">0</text>
<text fill="#000000" x="183.911" y="379.692" font-size="10" text-anchor="middle" baseline-shift="-10" font-family="Helvetica">0.5</text>
<text fill="#000000" x="295.022" y="379.692" font-size="10" text-anchor="middle" baseline-shift="-10" font-family="Helvetica">1</text>
<text fill="#000000" x="406.133" y="379.692" font-size="10" text-anchor="middle" baseline-shift="-10" font-family="Helvetica">1.5</text>
<polyline fill="none" stroke="#0000ff" stroke-width="0.5" stroke-dasharray="16,0" points="72.7998,374.69 77.1401,374.69"/>
<polyline fill="none" stroke="#0000ff" stroke-width="0.5" stroke-dasharray="16,0" points="72.7998,306.067 77.1401,306.067"/>
<polyline fill="none" stroke="#0000ff" stroke-width="0.5" stroke-dasharray="16,0" points="72.7998,237.444 77.1401,237.444"/>
<polyline fill="none" stroke="#0000ff" stroke-width="0.5" stroke-dasharray="16,0" points="72.7998,168.821 77.1401,168.821"/>
<polyline fill="none" stroke="#0000ff" stroke-width="0.5" stroke-dasharray="16,0" points="72.7998,100.198 77.1401,100.198"/>
<polyline fill="none" stroke="#0000ff" stroke-width="0.5" stroke-dasharray="16,0" points="72.7998,31.5752 77.1401,31.5752"/>
<text fill="#0000ff" x="67.7998" y="374.69" font-size="10" text-anchor="end" baseline-shift="-5" font-family="Helvetica">-40</text>
<text fill="#0000ff" x="67.7998" y="306.067" font-size="10" text-anchor="end" baseline-shift="-5" font-family="Helvetica">-20</text>
<text fill="#0000ff" x="67.7998" y="237.444" font-size="10" text-anchor="end" baseline-shift="-5" font-family="Helvetica">0</text>
<text fill="#0000ff" x="67.7998" y="168.821" font-size="10" text-anchor="end" baseline-shift="-5" font-family="Helvetica">20</text>
<text fill="#0000ff" x="67.7998" y="100.198" font-size="10" text-anchor="end" baseline-shift="-5" font-family="Helvetica">40</text>
<text fill="#0000ff" x="67.7998" y="31.5752" font-size="10" text-anchor="end" baseline-shift="-5" font-family="Helvetica">60</text>
<polyline fill="none" stroke="#0000ff" stroke-width="0.5" points="72.7998,230.081 73.9111,233.176 75.0225,205.884 75.9111,205.884 77.0225,205.884 77.9111,178.113 79.0225,178.113 79.9111,155.807 81.0225,155.807 82.1333,139.594 83.0225,139.594 84.1333,139.594 85.0225,126.233 86.1333,126.233 87.2446,116.115 88.1333,116.115 89.2446,116.115 90.1333,108.189 91.2446,108.189 92.1333,102.576 93.2446,102.576 94.3555,98.4033 95.2446,98.4033 96.3555,98.4033 97.4668,94.9209 98.3555,94.9209 99.4668,91.6167 100.355,91.6167 101.467,90.8687 102.355,90.8687 103.467,90.8687 104.578,88.707 105.467,88.707 106.578,86.604 107.467,86.604 108.578,86.604 109.467,85.8833 110.578,85.8833 111.467,84.8335 112.578,84.8335 113.689,84.082 114.578,84.082 115.689,84.082 116.578,82.2808 117.911,82.2808 118.8,81.7729 119.911,81.7729 120.8,81.2617 121.911,81.2617 122.8,81.2617 123.911,81.7729 125.022,81.7729 125.911,81.7417 127.022,81.7417 128.133,81.7417 129.245,82.1294 130.133,82.1294 131.245,80.8394 132.133,80.8394 133.245,79.9404 134.133,79.9404 135.245,79.9404 136.355,81.4092 137.245,81.4092 138.355,81.4707 139.245,81.4707 140.133,81.0488 141.245,81.0488 142.133,81.0488 143.245,80.7505 144.133,80.7505 145.245,79.0107 146.355,79.0107 147.245,79.0107 148.355,79.0381 149.467,79.0381 150.355,78.98 151.467,78.98 152.578,79.8477 153.467,79.8477 154.355,79.8477 155.467,80.0879 156.578,80.0879 157.467,80.7192 158.578,80.7192 159.689,73.0337 160.578,79.5493 161.689,79.5493 162.578,80.3901 163.689,80.3901 164.578,81.6494 165.689,81.6494 166.8,81.6494 167.689,80.7812 168.8,80.7812 169.911,79.1274 170.8,79.1274 171.689,79.7588 172.8,79.7588 173.911,79.7588 174.8,79.6387 175.911,79.6387 176.8,78.8286 177.911,78.8286 179.022,78.8286 179.911,79.6079 181.022,79.6079 181.911,80.9902 183.022,80.9902 184.133,80.0298 185.022,80.0298 186.133,80.0298 187.022,79.3677 188.133,79.3677 189.245,80.2393 190.133,80.2393 191.245,79.46 192.133,79.46 193.245,79.46 194.355,79.4878 195.245,79.4878 196.355,79.7588 197.245,79.7588 198.355,79.7588 199.467,80.1499 200.355,80.1499 201.467,80.1499 202.355,80.1499 203.467,78.9487 204.355,78.9487 205.467,78.9487 206.578,78.1973 207.467,78.1973 208.578,79.0381 209.689,79.0381 210.578,81.0796 211.689,81.0796 212.578,81.0796 213.689,80.6885 214.578,80.6885 215.689,79.5801 216.8,79.5801 217.689,79.5801 218.8,80.4482 219.689,80.4482 220.8,79.6694 221.911,79.6694 222.8,79.6387 223.911,79.6387 224.8,79.6387 225.911,80.1191 226.8,80.1191 227.911,79.0381 229.022,79.0381 229.911,86.7241 231.022,80.5103 232.133,80.5103 233.022,79.6694 233.911,79.6694 235.022,79.4292 236.133,79.4292 237.022,79.4292 238.133,79.189 239.245,79.189 240.133,79.7896 241.245,79.7896 242.133,79.999 243.245,79.999 244.133,79.999 245.245,80.5103 246.355,80.5103 247.245,81.8003 248.355,81.8003 249.467,81.8003 250.355,80.3589 251.467,80.3589 252.355,80.7505 253.467,80.7505 254.355,81.5015 255.467,81.5015 256.578,81.5015 257.467,81.1104 258.578,81.1104 259.467,79.6387 260.578,79.6387 261.689,78.7979 262.578,78.7979 263.689,78.7979 264.578,79.5801 265.689,79.5801 266.578,78.5889 267.689,78.5889 268.8,78.5889 269.689,79.6079 270.8,79.6079 271.689,79.5186 272.8,79.5186 273.689,79.999 274.8,79.999 275.911,79.999 276.8,80.0605 277.911,80.0605 279.022,80.479 279.911,80.479 281.022,80.9595 282.133,80.9595 283.022,80.9595 284.133,80.5991 285.245,80.5991 286.133,79.7588 287.245,79.7588 288.133,80.1807 289.245,80.1807 290.355,80.1807 291.467,80.5991 292.355,80.5991 293.467,79.2202 294.355,79.2202 295.467,86.9058 296.578,85.0737 297.689,85.0737 298.578,115.367 299.689,115.367 300.8,155.416 301.689,155.416 302.8,201.53 303.911,200 304.8,200 305.911,246.025 306.8,246.025 307.911,282.142 309.022,282.142 309.911,282.142 311.022,308.232 312.133,308.232 313.022,326.877 314.133,326.877 315.245,341.408 316.133,341.408 317.245,341.408 318.133,350.775 319.245,350.775 320.355,352.483 321.245,352.483 322.355,347.622 323.467,347.622 324.355,347.622 325.467,339.606 326.578,339.606 327.467,325.734 328.578,325.734 329.467,307.12 330.578,307.12 331.689,307.12 332.578,282.924 333.689,282.924 334.8,255.481 335.689,255.481 336.8,255.481 337.689,226.42 338.8,226.42 339.911,202.58 340.8,202.58 341.911,184.059 343.022,184.059 343.911,184.059 345.022,170.667 345.911,170.667 347.022,163.702 348.133,163.702 349.022,161.602 350.133,161.602 351.245,161.602 352.133,163.973 353.245,163.973 354.355,171.508 355.245,171.508 356.355,182.044 357.245,182.044 358.355,182.044 359.467,197.656 360.355,197.656 361.467,214.321 362.578,214.321 363.467,233.176 364.578,233.176 365.689,233.176 366.578,250.949 367.689,250.949 368.578,265.03 369.689,265.03 370.578,265.03 371.689,275.657 372.8,275.657 373.689,280.852 374.8,280.852 375.911,283.103 376.8,283.103 377.911,283.103 378.8,283.253 379.911,283.253 381.022,279.349 382.133,279.349 383.022,272.957 384.133,272.957 385.245,272.957 386.133,262.776 387.245,262.776 388.355,252.688 389.245,252.688 390.355,242.093 391.245,242.093 392.355,242.093 393.467,231.642 394.355,231.642 395.467,223.026 396.578,223.026 397.467,216.782 398.578,216.782 399.689,216.782 400.578,211.048 401.689,211.048 402.8,210.928 403.911,210.928 404.8,211.079 405.911,211.079 407.022,211.079 407.911,212.908 409.022,212.908 409.911,218.253 411.022,218.253 412.133,222.577 413.022,222.577 414.133,222.577 415.245,228.07 416.133,228.07 417.245,234.644 418.355,234.644 419.245,234.644 420.355,241.04 421.245,241.04 422.355,244.584 423.245,244.584 424.355,248.756 425.467,248.756 426.578,248.756 427.467,250.167 428.578,250.167 429.467,251.848 430.578,251.848 431.467,252.39 432.578,252.39 433.689,252.39 434.578,251.429 435.689,251.429 436.8,249.206 437.689,249.206 438.8,245.123 439.911,245.123 440.8,245.123 441.911,242.241 442.8,242.241 443.911,238.127 445.022,238.127 445.911,235.337 447.022,235.337 448.133,235.337 449.022,234.044 450.133,234.044 451.245,232.785 452.133,232.785 453.245,232.785 454.133,231.402 455.245,231.402 456.355,230.832 457.245,230.832 458.355,230.952 459.467,230.952 460.355,230.952 461.467,231.913 462.578,231.913 463.467,232.815 464.578,232.815 465.467,234.315 466.578,234.315 467.689,234.315 468.8,236.058 469.689,236.058 470.8,237.526 471.689,237.526 472.8,238.611 473.689,238.611 474.8,238.611 475.911,241.04 476.8,241.04 477.911,241.342 479.022,241.342 479.911,240.47 481.022,240.47 482.133,240.47 483.022,238.878 484.133,238.878 485.022,238.58 486.133,238.58 487.245,238.58 488.133,239.029 489.245,239.029 490.355,238.219 491.245,238.219 492.355,237.619 493.467,237.619 494.355,237.619 495.467,239.118 496.355,239.118 497.467,239.029 498.578,239.029 499.467,237.708 500.578,237.708 501.689,237.708 502.578,237.166 503.689,237.166 504.578,240.71 505.689,240.71 506.8,252.541"/>
<polyline fill="none" stroke="#000000" stroke-width="0.5" stroke-dasharray="16,0" points="506.8,374.69 72.7998,374.69"/>
<polyline fill="none" stroke="#007f00" stroke-width="0.5" stroke-dasharray="16,0" points="506.8,374.69 506.8,31.5752"/>
<polyline fill="none" stroke="#000000" stroke-width="0.5" stroke-dasharray="16,0" points="72.7998,374.69 72.7998,370.349"/>
<polyline fill="none" stroke="#000000" stroke-width="0.5" stroke-dasharray="16,0" points="183.911,374.69 183.911,370.349"/>
<polyline fill="none" stroke="#000000" stroke-width="0.5" stroke-dasharray="16,0" points="295.022,374.69 295.022,370.349"/>
<polyline fill="none" stroke="#000000" stroke-width="0.5" stroke-dasharray="16,0" points="406.133,374.69 406.133,370.349"/>
<text fill="#000000" x="72.7998" y="379.692" font-size="10" text-anchor="middle" baseline-shift="-10" font-family="Helvetica">0</text>
<text fill="#000000" x="183.911" y="379.692" font-size="10" text-anchor="middle" baseline-shift="-10" font-family="Helvetica">0.5</text>
<text fill="#000000" x="295.022" y="379.692" font-size="10" text-anchor="middle" baseline-shift="-10" font-family="Helvetica">1</text>
<text fill="#000000" x="406.133" y="379.692" font-size="10" text-anchor="middle" baseline-shift="-10" font-family="Helvetica">1.5</text>
<polyline fill="none" stroke="#007f00" stroke-width="0.5" stroke-dasharray="16,0" points="506.8,374.69 502.46,374.69"/>
<polyline fill="none" stroke="#007f00" stroke-width="0.5" stroke-dasharray="16,0" points="506.8,306.067 502.46,306.067"/>
<polyline fill="none" stroke="#007f00" stroke-width="0.5" stroke-dasharray="16,0" points="506.8,237.444 502.46,237.444"/>
<polyline fill="none" stroke="#007f00" stroke-width="0.5" stroke-dasharray="16,0" points="506.8,168.821 502.46,168.821"/>
<polyline fill="none" stroke="#007f00" stroke-width="0.5" stroke-dasharray="16,0" points="506.8,100.198 502.46,100.198"/>
<polyline fill="none" stroke="#007f00" stroke-width="0.5" stroke-dasharray="16,0" points="506.8,31.5752 502.46,31.5752"/>
<text fill="#007f00" x="511.8" y="374.69" font-size="10" text-anchor="start" baseline-shift="-5" font-family="Helvetica">-4</text>
<text fill="#007f00" x="511.8" y="306.067" font-size="10" text-anchor="start" baseline-shift="-5" font-family="Helvetica">-3</text>
<text fill="#007f00" x="511.8" y="237.444" font-size="10" text-anchor="start" baseline-shift="-5" font-family="Helvetica">-2</text>
<text fill="#007f00" x="511.8" y="168.821" font-size="10" text-anchor="start" baseline-shift="-5" font-family="Helvetica">-1</text>
<text fill="#007f00" x="511.8" y="100.198" font-size="10" text-anchor="start" baseline-shift="-5" font-family="Helvetica">0</text>
<text fill="#007f00" x="511.8" y="31.5752" font-size="10" text-anchor="start" baseline-shift="-5" font-family="Helvetica">1</text>
<polyline fill="none" stroke="#007f00" stroke-width="0.5" points="72.7998,103.012 73.9111,103.698 75.0225,103.698 75.9111,104.041 77.0225,104.041 77.9111,103.012 79.0225,103.012 79.9111,103.012 81.0225,102.325 82.1333,102.325 83.0225,103.08 84.1333,103.08 85.0225,103.492 86.1333,103.492 87.2446,103.698 88.1333,103.698 89.2446,103.698 90.1333,102.531 91.2446,102.531 92.1333,104.041 93.2446,104.041 94.3555,102.806 95.2446,102.806 96.3555,102.806 97.4668,102.806 98.3555,103.423 99.4668,103.423 100.355,103.423 101.467,103.629 102.355,103.629 103.467,103.354 104.578,103.354 105.467,104.521 106.578,104.521 107.467,103.767 108.578,103.767 109.467,103.767 110.578,103.492 111.467,103.492 112.578,103.217 113.689,103.217 114.578,104.178 115.689,104.178 116.578,102.6 117.911,102.6 118.8,102.6 119.911,103.492 120.8,103.492 121.911,102.6 122.8,102.6 123.911,103.286 125.022,103.286 125.911,104.727 127.022,104.727 128.133,104.727 129.245,102.531 130.133,102.531 131.245,103.149 132.133,103.149 133.245,103.149 134.133,103.149 135.245,104.247 136.355,104.247 137.245,103.492 138.355,103.492 139.245,103.492 140.133,102.737 141.245,102.737 142.133,103.08 143.245,103.08 144.133,103.149 145.245,103.149 146.355,103.149 147.245,103.561 148.355,103.561 149.467,103.08 150.355,103.08 151.467,103.835 152.578,103.835 153.467,102.875 154.355,102.875 155.467,102.875 156.578,104.109 157.467,104.109 158.578,103.767 159.689,103.767 160.578,103.767 161.689,103.767 162.578,103.492 163.689,103.492 164.578,103.492 165.689,102.806 166.8,102.806 167.689,104.041 168.8,104.041 169.911,103.698 170.8,103.698 171.689,104.109 172.8,104.109 173.911,104.109 174.8,102.6 175.911,102.6 176.8,103.08 177.911,103.08 179.022,103.217 179.911,103.217 181.022,103.629 181.911,103.629 183.022,103.629 184.133,103.561 185.022,103.561 186.133,103.149 187.022,103.149 188.133,103.835 189.245,103.835 190.133,103.08 191.245,103.08 192.133,104.864 193.245,104.864 194.355,104.864 195.245,102.531 196.355,102.531 197.245,103.492 198.355,103.492 199.467,102.875 200.355,102.875 201.467,103.012 202.355,103.012 203.467,103.012 204.355,103.354 205.467,103.354 206.578,102.325 207.467,102.325 208.578,103.629 209.689,103.629 210.578,104.384 211.689,104.384 212.578,104.384 213.689,103.698 214.578,103.698 215.689,104.933 216.8,104.933 217.689,103.08 218.8,103.08 219.689,103.904 220.8,103.904 221.911,103.904 222.8,103.286 223.911,103.286 224.8,104.041 225.911,104.041 226.8,102.943 227.911,102.943 229.022,103.286 229.911,103.286 231.022,103.286 232.133,103.354 233.022,103.354 233.911,103.492 235.022,103.492 236.133,104.041 237.022,104.041 238.133,102.737 239.245,102.737 240.133,102.737 241.245,102.806 242.133,102.806 243.245,103.286 244.133,103.286 245.245,103.698 246.355,103.698 247.245,102.943 248.355,102.943 249.467,102.943 250.355,103.217 251.467,103.217 252.355,102.737 253.467,102.737 254.355,102.668 255.467,102.668 256.578,103.012 257.467,103.012 258.578,103.012 259.467,103.767 260.578,103.767 261.689,103.354 262.578,103.354 263.689,102.943 264.578,102.943 265.689,104.796 266.578,104.796 267.689,104.796 268.8,104.109 269.689,104.109 270.8,104.384 271.689,104.384 272.8,102.875 273.689,102.875 274.8,102.668 275.911,102.668 276.8,102.668 277.911,103.629 279.022,103.629 279.911,101.776 281.022,101.776 282.133,102.943 283.022,102.943 284.133,104.041 285.245,104.041 286.133,103.492 287.245,103.492 288.133,103.492 289.245,103.904 290.355,103.904 291.467,104.041 292.355,104.041 293.467,103.286 294.355,103.286 295.467,103.149 296.578,103.149 297.689,104.315 298.578,104.315 299.689,104.315 300.8,101.914 301.689,101.914 302.8,103.423 303.911,103.423 304.8,102.531 305.911,102.531 306.8,103.698 307.911,103.698 309.022,103.698 309.911,103.835 311.022,103.835 312.133,103.835 313.022,103.835 314.133,103.012 315.245,103.012 316.133,103.286 317.245,103.286 318.133,103.149 319.245,103.149 320.355,103.149 321.245,103.767 322.355,103.767 323.467,102.6 324.355,102.6 325.467,103.698 326.578,103.698 327.467,103.012 328.578,103.012 329.467,103.012 330.578,103.08 331.689,103.08 332.578,103.149 333.689,103.149 334.8,103.08 335.689,103.08 336.8,102.668 337.689,102.668 338.8,103.217 339.911,103.217 340.8,103.217 341.911,102.668 343.022,102.668 343.911,102.737 345.022,102.737 345.911,104.178 347.022,104.178 348.133,103.286 349.022,103.286 350.133,103.286 351.245,103.767 352.133,103.767 353.245,103.423 354.355,103.423 355.245,102.875 356.355,102.875 357.245,103.629 358.355,103.629 359.467,102.325 360.355,102.325 361.467,102.325 362.578,103.767 363.467,103.767 364.578,103.972 365.689,103.972 366.578,102.668 367.689,102.668 368.578,103.492 369.689,103.492 370.578,103.492 371.689,103.835 372.8,103.835 373.689,103.286 374.8,103.286 375.911,103.149 376.8,103.149 377.911,103.012 378.8,103.012 379.911,103.08 381.022,103.08 382.133,103.08 383.022,102.875 384.133,102.875 385.245,103.286 386.133,103.286 387.245,103.423 388.355,103.423 389.245,103.629 390.355,103.629 391.245,103.629 392.355,102.806 393.467,102.806 394.355,103.492 395.467,103.492 396.578,103.012 397.467,103.012 398.578,103.012 399.689,103.012 400.578,103.492 401.689,103.492 402.8,103.492 403.911,103.149 404.8,103.149 405.911,103.149 407.022,103.149 407.911,103.492 409.022,103.492 409.911,103.012 411.022,103.012 412.133,103.835 413.022,103.835 414.133,103.835 415.245,102.943 416.133,102.943 417.245,102.943 418.355,102.943 419.245,103.698 420.355,103.698 421.245,103.698 422.355,103.698 423.245,103.698 424.355,102.188 425.467,102.188 426.578,102.875 427.467,102.875 428.578,102.394 429.467,102.394 430.578,103.08 431.467,103.08 432.578,102.943 433.689,102.943 434.578,102.943 435.689,103.286 436.8,103.286 437.689,103.286 438.8,103.286 439.911,102.462 440.8,102.462 441.911,102.668 442.8,102.668 443.911,102.668 445.022,102.943 445.911,102.943 447.022,103.698 448.133,103.698 449.022,102.668 450.133,102.668 451.245,103.286 452.133,103.286 453.245,103.08 454.133,103.08 455.245,103.08 456.355,103.904 457.245,103.904 458.355,103.629 459.467,103.629 460.355,103.423 461.467,103.423 462.578,103.286 463.467,103.286 464.578,103.286 465.467,103.08 466.578,103.08 467.689,103.08 468.8,103.08 469.689,103.217 470.8,103.217 471.689,102.531 472.8,102.531 473.689,103.217 474.8,103.217 475.911,103.217 476.8,103.08 477.911,103.08 479.022,102.6 479.911,102.6 481.022,103.904 482.133,103.904 483.022,103.286 484.133,103.286 485.022,103.286 486.133,103.835 487.245,103.835 488.133,103.698 489.245,103.698 490.355,104.178 491.245,104.178 492.355,102.737 493.467,102.737 494.355,102.943 495.467,102.943 496.355,102.943 497.467,102.806 498.578,102.806 499.467,103.698 500.578,103.698 501.689,102.943 502.578,102.943 503.689,125.177 504.578,125.177 505.689,125.177 506.8,306.204"/>
<polyline fill="none" stroke="#ff0000" stroke-width="0.5" points="72.7998,100.198 73.9111,100.198 75.0225,100.198 75.9111,100.198 77.0225,100.198 77.9111,100.198 79.0225,100.198 79.9111,100.198 81.0225,100.198 82.1333,100.198 83.0225,100.198 84.1333,100.198 85.0225,100.198 86.1333,100.198 87.2446,100.198 88.1333,100.198 89.2446,100.198 90.1333,100.198 91.2446,100.198 92.1333,100.198 93.2446,100.198 94.3555,100.198 95.2446,100.198 96.3555,100.198 97.4668,100.198 98.3555,100.198 99.4668,100.198 100.355,100.198 101.467,100.198 102.355,100.198 103.467,100.198 104.578,100.198 105.467,100.198 106.578,100.198 107.467,100.198 108.578,100.198 109.467,100.198 110.578,100.198 111.467,100.198 112.578,100.198 113.689,100.198 114.578,100.198 115.689,100.198 116.578,100.198 117.911,100.198 118.8,100.198 119.911,100.198 120.8,100.198 121.911,100.198 122.8,100.198 123.911,100.198 125.022,100.198 125.911,100.198 127.022,100.198 128.133,100.198 129.245,100.198 130.133,100.198 131.245,100.198 132.133,100.198 133.245,100.198 134.133,100.198 135.245,100.198 136.355,100.198 137.245,100.198 138.355,100.198 139.245,100.198 140.133,100.198 141.245,100.198 142.133,100.198 143.245,100.198 144.133,100.198 145.245,100.198 146.355,100.198 147.245,100.198 148.355,100.198 149.467,100.198 150.355,100.198 151.467,100.198 152.578,100.198 153.467,100.198 154.355,100.198 155.467,100.198 156.578,100.198 157.467,100.198 158.578,100.198 159.689,100.198 160.578,100.198 161.689,100.198 162.578,100.198 163.689,100.198 164.578,100.198 165.689,100.198 166.8,100.198 167.689,100.198 168.8,100.198 169.911,100.198 170.8,100.198 171.689,100.198 172.8,100.198 173.911,100.198 174.8,100.198 175.911,100.198 176.8,100.198 177.911,100.198 179.022,100.198 179.911,100.198 181.022,100.198 181.911,100.198 183.022,100.198 184.133,100.198 185.022,100.198 186.133,100.198 187.022,100.198 188.133,100.198 189.245,100.198 190.133,100.198 191.245,100.198 192.133,100.198 193.245,100.198 194.355,100.198 195.245,100.198 196.355,100.198 197.245,100.198 198.355,100.198 199.467,100.198 200.355,100.198 201.467,100.198 202.355,100.198 203.467,100.198 204.355,100.198 205.467,100.198 206.578,100.198 207.467,100.198 208.578,100.198 209.689,100.198 210.578,100.198 211.689,100.198 212.578,100.198 213.689,100.198 214.578,100.198 215.689,100.198 216.8,100.198 217.689,100.198 218.8,100.198 219.689,100.198 220.8,100.198 221.911,100.198 222.8,100.198 223.911,100.198 224.8,100.198 225.911,100.198 226.8,100.198 227.911,100.198 229.022,100.198 229.911,100.198 231.022,100.198 232.133,100.198 233.022,100.198 233.911,100.198 235.022,100.198 236.133,100.198 237.022,100.198 238.133,100.198 239.245,100.198 240.133,100.198 241.245,100.198 242.133,100.198 243.245,100.198 244.133,100.198 245.245,100.198 246.355,100.198 247.245,100.198 248.355,100.198 249.467,100.198 250.355,100.198 251.467,100.198 252.355,100.198 253.467,100.198 254.355,100.198 255.467,100.198 256.578,100.198 257.467,100.198 258.578,100.198 259.467,100.198 260.578,100.198 261.689,100.198 262.578,100.198 263.689,100.198 264.578,100.198 265.689,100.198 266.578,100.198 267.689,100.198 268.8,100.198 269.689,100.198 270.8,100.198 271.689,100.198 272.8,100.198 273.689,100.198 274.8,100.198 275.911,100.198 276.8,100.198 277.911,100.198 279.022,100.198 279.911,100.198 281.022,100.198 282.133,100.198 283.022,100.198 284.133,100.198 285.245,100.198 286.133,100.198 287.245,100.198 288.133,100.198 289.245,100.198 290.355,100.198 291.467,100.198 292.355,109.599 293.467,119.069 294.355,128.608 295.467,137.598 296.578,146.793 297.689,155.92 298.578,163.263 299.689,168.821 300.8,168.821 301.689,168.821 302.8,168.821 303.911,168.821 304.8,168.821 305.911,168.821 306.8,168.821 307.911,168.821 309.022,168.821 309.911,168.821 311.022,168.821 312.133,168.821 313.022,164.086 314.133,158.733 315.245,152.489 316.133,146.244 317.245,140.068 318.133,133.206 319.245,126.412 320.355,119.55 321.245,112.619 322.355,106.031 323.467,99.4434 324.355,92.7866 325.467,86.6792 326.578,80.5718 327.467,75.2192 328.578,69.9351 329.467,65.7495 330.578,61.5635 331.689,57.3774 332.578,54.7012 333.689,51.9561 334.8,50.8579 335.689,49.7603 336.8,48.731 337.689,49.3481 338.8,50.0347 339.911,52.0933 340.8,54.2207 341.911,57.4458 343.022,60.6025 343.911,63.8276 345.022,67.8081 345.911,71.8569 347.022,76.2485 348.133,80.709 349.022,85.2383 350.133,89.7671 351.245,94.3652 352.133,98.7568 353.245,103.149 354.355,107.129 355.245,111.041 356.355,114.403 357.245,117.697 358.355,121.06 359.467,123.393 360.355,125.794 361.467,127.167 362.578,128.608 363.467,128.814 364.578,129.088 365.689,129.363 366.578,128.54 367.689,127.716 368.578,126.069 369.689,124.422 370.578,122.775 371.689,120.442 372.8,118.177 373.689,115.569 374.8,112.962 375.911,110.217 376.8,107.472 377.911,104.727 378.8,101.982 379.911,101.159 381.022,96.7671 382.133,94.228 383.022,92.1006 384.133,89.9731 385.245,87.8457 386.133,86.3359 387.245,84.8267 388.355,83.8657 389.245,82.9736 390.355,82.6992 391.245,82.4248 392.355,82.1504 393.467,82.4932 394.355,82.8364 395.467,83.6597 396.578,84.5518 397.467,85.7871 398.578,87.0225 399.689,88.2578 400.578,89.8359 401.689,91.4141 402.8,93.061 403.911,94.6396 404.8,96.2178 405.911,97.7964 407.022,99.3745 407.911,100.815 409.022,102.325 409.911,103.492 411.022,104.59 412.133,105.482 413.022,106.374 414.133,107.266 415.245,107.884 416.133,108.433 417.245,108.57 418.355,108.776 419.245,108.913 420.355,108.707 421.245,108.501 422.355,108.09 423.245,107.609 424.355,106.923 425.467,106.306 426.578,105.619 427.467,104.864 428.578,104.041 429.467,103.217 430.578,102.325 431.467,101.433 432.578,99.855 433.689,99.6489 434.578,98.8257 435.689,98.002 436.8,97.2471 437.689,96.561 438.8,96.0806 439.911,95.6689 440.8,95.1885 441.911,94.9141 442.8,94.5708 443.911,94.5708 445.022,94.5024 445.911,94.6396 447.022,94.7769 448.133,94.9141 449.022,95.1201 450.133,95.3257 451.245,95.6001 452.133,95.875 453.245,96.1494 454.133,96.4922 455.245,96.9043 456.355,97.2471 457.245,97.6592 458.355,98.0708 459.467,98.4136 460.355,98.8257 461.467,99.1685 462.578,99.5117 463.467,99.7861 464.578,100.061 465.467,100.129 466.578,100.404 467.689,100.61 468.8,100.678 469.689,100.747 470.8,100.747 471.689,100.747 472.8,100.678 473.689,100.61 474.8,100.541 475.911,100.335 476.8,100.129 477.911,99.9233 479.022,99.6489 479.911,99.5117 481.022,99.3062 482.133,99.1001 483.022,99.0312 484.133,98.9629 485.022,98.894 486.133,98.8257 487.245,98.7568 488.133,98.6196 489.245,98.5513 490.355,98.4824 491.245,98.4824 492.355,98.4136 493.467,98.4136 494.355,98.4136 495.467,98.3452 496.355,98.208 497.467,98.1392 498.578,98.002 499.467,98.002 500.578,98.002 501.689,98.002 502.578,98.002 503.689,98.002 504.578,97.7964 505.689,97.6592 506.8,96.6982"/>
</g>
</svg>
