<?xml version="1.0" encoding="UTF-8" standalone="no"?>
<svg xmlns="http://www.w3.org/2000/svg"
     xmlns:xlink="http://www.w3.org/1999/xlink"
     width="576px" height="433px" viewBox="0 0 576 433">
<title>glps_renderer figure</title>
<desc>
Creator: GL2PS 1.3.8, (C) 1999-2012 C. Geuzaine
For: Octave
CreationDate: Sun Aug 14 14:33:57 2016
</desc>
<defs>
</defs>
<g shape-rendering="crispEdges">
<polygon fill="#ffffff" points="411.532,83.4976 518.534,83.4976 518.534,35.146"/>
<polygon fill="#ffffff" points="411.532,83.4976 518.534,35.146 411.532,35.146"/>
<polyline fill="none" stroke="#000000" stroke-width="0.5" stroke-dasharray="16,0" points="74.8799,384.48 521.28,384.48"/>
<polyline fill="none" stroke="#000000" stroke-width="0.5" stroke-dasharray="16,0" points="74.8799,32.3999 521.28,32.3999"/>
<polyline fill="none" stroke="#0000ff" stroke-width="0.5" stroke-dasharray="16,0" points="74.8799,384.48 74.8799,32.3999"/>
<polyline fill="none" stroke="#000000" stroke-width="0.5" stroke-dasharray="16,0" points="80.4312,384.48 80.4312,380.015"/>
<polyline fill="none" stroke="#000000" stroke-width="0.5" stroke-dasharray="16,0" points="80.4312,32.3999 80.4312,36.8652"/>
<polyline fill="none" stroke="#000000" stroke-width="0.5" stroke-dasharray="16,0" points="172.949,384.48 172.949,380.015"/>
<polyline fill="none" stroke="#000000" stroke-width="0.5" stroke-dasharray="16,0" points="172.949,32.3999 172.949,36.8652"/>
<polyline fill="none" stroke="#000000" stroke-width="0.5" stroke-dasharray="16,0" points="265.467,384.48 265.467,380.015"/>
<polyline fill="none" stroke="#000000" stroke-width="0.5" stroke-dasharray="16,0" points="265.467,32.3999 265.467,36.8652"/>
<polyline fill="none" stroke="#000000" stroke-width="0.5" stroke-dasharray="16,0" points="357.985,384.48 357.985,380.015"/>
<polyline fill="none" stroke="#000000" stroke-width="0.5" stroke-dasharray="16,0" points="357.985,32.3999 357.985,36.8652"/>
<polyline fill="none" stroke="#000000" stroke-width="0.5" stroke-dasharray="16,0" points="450.503,384.48 450.503,380.015"/>
<polyline fill="none" stroke="#000000" stroke-width="0.5" stroke-dasharray="16,0" points="450.503,32.3999 450.503,36.8652"/>
<text fill="#000000" x="80.4312" y="389.481" font-size="10" text-anchor="middle" baseline-shift="-10" font-family="Helvetica">1</text>
<text fill="#000000" x="172.949" y="389.481" font-size="10" text-anchor="middle" baseline-shift="-10" font-family="Helvetica">1.2</text>
<text fill="#000000" x="265.467" y="389.481" font-size="10" text-anchor="middle" baseline-shift="-10" font-family="Helvetica">1.4</text>
<text fill="#000000" x="357.985" y="389.481" font-size="10" text-anchor="middle" baseline-shift="-10" font-family="Helvetica">1.6</text>
<text fill="#000000" x="450.503" y="389.481" font-size="10" text-anchor="middle" baseline-shift="-10" font-family="Helvetica">1.8</text>
<polyline fill="none" stroke="#0000ff" stroke-width="0.5" stroke-dasharray="16,0" points="74.8799,349.272 79.3481,349.272"/>
<polyline fill="none" stroke="#0000ff" stroke-width="0.5" stroke-dasharray="16,0" points="74.8799,278.856 79.3481,278.856"/>
<polyline fill="none" stroke="#0000ff" stroke-width="0.5" stroke-dasharray="16,0" points="74.8799,208.44 79.3481,208.44"/>
<polyline fill="none" stroke="#0000ff" stroke-width="0.5" stroke-dasharray="16,0" points="74.8799,138.024 79.3481,138.024"/>
<polyline fill="none" stroke="#0000ff" stroke-width="0.5" stroke-dasharray="16,0" points="74.8799,67.6079 79.3481,67.6079"/>
<text fill="#0000ff" x="69.8755" y="349.272" font-size="10" text-anchor="end" baseline-shift="-5" font-family="Helvetica">-40</text>
<text fill="#0000ff" x="69.8755" y="278.856" font-size="10" text-anchor="end" baseline-shift="-5" font-family="Helvetica">-20</text>
<text fill="#0000ff" x="69.8755" y="208.44" font-size="10" text-anchor="end" baseline-shift="-5" font-family="Helvetica">0</text>
<text fill="#0000ff" x="69.8755" y="138.024" font-size="10" text-anchor="end" baseline-shift="-5" font-family="Helvetica">20</text>
<text fill="#0000ff" x="69.8755" y="67.6079" font-size="10" text-anchor="end" baseline-shift="-5" font-family="Helvetica">40</text>
<text fill="#000000" x="298.08" y="402.481" font-size="10" text-anchor="middle" baseline-shift="-10" font-family="Helvetica">time (s)</text>
<text fill="#0000ff" x="49.8755" y="208.44" font-size="10" transform="rotate(-90, 49.8755, 208.44)" text-anchor="middle" baseline-shift="0" font-family="Helvetica">Cube Angular Velocity (deg/s)</text>
<polyline fill="none" stroke="#0000ff" stroke-width="0.5" points="74.8799,47.4971 77.1929,65.2441 79.0435,82.6152 81.3564,100.541 83.6689,118.854 85.9819,137.555 87.8325,156.596 90.1455,175.568 92.4585,194.072 94.3086,210.948 96.6216,226.265 98.9346,240.166 100.785,252.781 103.098,264.23 104.948,274.622 107.261,284.052 109.574,292.611 111.425,300.379 113.738,307.429 116.051,313.827 117.901,319.634 120.214,323.901 122.527,326.571 124.377,327.593 126.69,327.104 128.541,325.261 130.854,322.044 133.167,317.584 135.017,311.982 137.33,305.329 139.643,297.792 141.493,289.46 143.806,280.391 146.119,270.769 147.969,260.651 150.282,250.246 152.133,239.603 154.445,228.98 156.758,218.39 158.609,207.831 160.922,197.618 163.235,187.729 165.085,178.481 167.398,169.838 169.249,161.761 171.562,154.545 173.875,148.151 175.725,142.794 178.038,138.413 180.351,135.151 182.201,132.907 184.514,131.601 186.364,131.305 188.677,131.953 190.99,133.532 192.841,135.974 195.154,139.215 197.466,143.183 199.317,147.825 201.63,153.036 203.943,158.76 205.793,164.863 208.106,171.29 209.957,177.892 212.27,184.631 214.583,191.509 216.433,198.294 218.746,204.996 221.059,211.404 222.909,217.545 225.222,223.185 227.535,228.363 229.385,233.125 231.698,237.277 233.549,240.859 235.861,243.749 237.712,245.998 240.025,247.666 242.338,248.662 244.188,249.051 246.501,248.819 248.814,248.018 250.665,246.67 252.978,244.825 254.828,242.529 257.141,239.823 259.454,237.152 261.767,233.787 263.617,230.129 265.93,226.321 268.243,222.383 270.093,218.327 272.406,214.295 274.719,210.293 276.569,206.436 278.882,202.732 280.733,199.299 283.046,196.121 285.359,193.175 287.209,190.569 289.522,188.282 291.835,186.386 293.686,184.866 295.999,183.762 298.311,183.039 300.162,182.664 302.475,182.675 304.788,183.042 307.101,183.749 308.951,184.748 311.264,186.013 313.577,187.518 315.427,189.242 317.74,191.135 319.59,193.194 321.903,195.332 324.216,197.522 326.067,199.716 328.38,201.908 330.692,204.1 332.543,206.233 334.856,208.295 337.169,210.203 339.019,211.98 341.332,213.626 343.183,215.078 345.496,216.349 347.346,217.412 349.659,218.269 351.972,218.894 354.285,219.321 356.135,219.554 358.448,219.595 360.298,219.447 362.611,219.126 364.462,218.633 366.774,217.984 369.087,217.048 370.938,216.131 373.251,215.121 375.564,214.019 377.414,212.846 379.727,211.625 382.04,210.404 383.891,209.203 386.204,208.004 388.054,206.852 390.367,205.729 392.68,204.704 394.53,203.76 396.843,202.931 399.156,202.21 401.006,201.586 403.319,201.066 405.632,200.641 407.483,200.316 409.795,200.083 411.646,199.935 413.959,199.876 416.272,199.915 418.122,200.029 420.435,200.226 422.748,200.497 424.599,200.821 426.912,201.208 429.225,201.639 431.075,202.107 433.388,202.595 435.238,203.1 437.551,203.577 439.864,204.069 442.177,204.563 444.027,205.029 446.34,205.468 448.19,205.867 450.503,206.229 452.354,206.543 454.667,206.813 456.98,207.042 458.83,207.206 461.143,207.307 463.456,207.353 465.307,207.333 467.62,207.282 469.933,207.19 471.783,207.06 474.096,206.924 475.946,206.785 478.259,206.644 480.572,206.5 482.422,206.354 484.735,206.191 487.048,206.027 488.898,205.862 491.211,205.712 493.524,205.561 495.375,205.423 497.688,205.297 499.538,205.169 501.851,205.022 504.164,204.873 506.015,204.707 508.327,204.555 510.64,204.417 512.491,204.291 514.804,204.177 516.654,204.073 518.967,203.936 521.28,203.779"/>
<polyline fill="none" stroke="#ff00ff" stroke-width="0.5" points="74.8799,47.4971 77.1929,46.082 79.0435,46.082 81.3564,53.9683 83.6689,52.0884 85.9819,52.0884 87.8325,83.1733 90.1455,83.1733 92.4585,124.268 94.3086,124.268 96.6216,171.588 98.9346,170.018 100.785,170.018 103.098,217.246 104.948,217.246 107.261,254.306 109.574,254.306 111.425,254.306 113.738,281.078 116.051,281.078 117.901,300.209 120.214,300.209 122.527,315.12 124.377,315.12 126.69,315.12 128.541,324.732 130.854,324.732 133.167,326.485 135.017,326.485 137.33,321.497 139.643,321.497 141.493,321.497 143.806,313.272 146.119,313.272 147.969,299.037 150.282,299.037 152.133,279.937 154.445,279.937 156.758,279.937 158.609,255.108 160.922,255.108 163.235,226.949 165.085,226.949 167.398,226.949 169.249,197.127 171.562,197.127 173.875,172.665 175.725,172.665 178.038,153.66 180.351,153.66 182.201,153.66 184.514,139.918 186.364,139.918 188.677,132.771 190.99,132.771 192.841,130.616 195.154,130.616 197.466,130.616 199.317,133.049 201.63,133.049 203.943,140.781 205.793,140.781 208.106,151.593 209.957,151.593 212.27,151.593 214.583,167.613 216.433,167.613 218.746,184.713 221.059,184.713 222.909,204.06 225.222,204.06 227.535,204.06 229.385,222.298 231.698,222.298 233.549,236.747 235.861,236.747 237.712,236.747 240.025,247.651 242.338,247.651 244.188,252.981 246.501,252.981 248.814,255.292 250.665,255.292 252.978,255.292 254.828,255.446 257.141,255.446 259.454,251.439 261.767,251.439 263.617,244.88 265.93,244.88 268.243,244.88 270.093,234.434 272.406,234.434 274.719,224.083 276.569,224.083 278.882,213.21 280.733,213.21 283.046,213.21 285.359,202.486 287.209,202.486 289.522,193.646 291.835,193.646 293.686,187.238 295.999,187.238 298.311,187.238 300.162,181.354 302.475,181.354 304.788,181.231 307.101,181.231 308.951,181.386 311.264,181.386 313.577,181.386 315.427,183.263 317.74,183.263 319.59,188.748 321.903,188.748 324.216,193.185 326.067,193.185 328.38,193.185 330.692,198.821 332.543,198.821 334.856,205.567 337.169,205.567 339.019,205.567 341.332,212.13 343.183,212.13 345.496,215.767 347.346,215.767 349.659,220.048 351.972,220.048 354.285,220.048 356.135,221.495 358.448,221.495 360.298,223.22 362.611,223.22 364.462,223.776 366.774,223.776 369.087,223.776 370.938,222.791 373.251,222.791 375.564,220.509 377.414,220.509 379.727,216.319 382.04,216.319 383.891,216.319 386.204,213.362 388.054,213.362 390.367,209.141 392.68,209.141 394.53,206.278 396.843,206.278 399.156,206.278 401.006,204.951 403.319,204.951 405.632,203.659 407.483,203.659 409.795,203.659 411.646,202.24 413.959,202.24 416.272,201.655 418.122,201.655 420.435,201.779 422.748,201.779 424.599,201.779 426.912,202.765 429.225,202.765 431.075,203.69 433.388,203.69 435.238,205.229 437.551,205.229 439.864,205.229 442.177,207.018 444.027,207.018 446.34,208.524 448.19,208.524 450.503,209.637 452.354,209.637 454.667,209.637 456.98,212.13 458.83,212.13 461.143,212.439 463.456,212.439 465.307,211.545 467.62,211.545 469.933,211.545 471.783,209.912 474.096,209.912 475.946,209.605 478.259,209.605 480.572,209.605 482.422,210.066 484.735,210.066 487.048,209.236 488.898,209.236 491.211,208.62 493.524,208.62 495.375,208.62 497.688,210.158 499.538,210.158 501.851,210.066 504.164,210.066 506.015,208.711 508.327,208.711 510.64,208.711 512.491,208.155 514.804,208.155 516.654,211.792 518.967,211.792 521.28,223.932"/>
<polyline fill="none" stroke="#000000" stroke-width="0.5" stroke-dasharray="16,0" points="521.28,384.48 74.8799,384.48"/>
<polyline fill="none" stroke="#007f00" stroke-width="0.5" stroke-dasharray="16,0" points="521.28,384.48 521.28,32.3999"/>
<polyline fill="none" stroke="#000000" stroke-width="0.5" stroke-dasharray="16,0" points="80.4312,384.48 80.4312,380.015"/>
<polyline fill="none" stroke="#000000" stroke-width="0.5" stroke-dasharray="16,0" points="172.949,384.48 172.949,380.015"/>
<polyline fill="none" stroke="#000000" stroke-width="0.5" stroke-dasharray="16,0" points="265.467,384.48 265.467,380.015"/>
<polyline fill="none" stroke="#000000" stroke-width="0.5" stroke-dasharray="16,0" points="357.985,384.48 357.985,380.015"/>
<polyline fill="none" stroke="#000000" stroke-width="0.5" stroke-dasharray="16,0" points="450.503,384.48 450.503,380.015"/>
<text fill="#000000" x="80.4312" y="389.481" font-size="10" text-anchor="middle" baseline-shift="-10" font-family="Helvetica">1</text>
<text fill="#000000" x="172.949" y="389.481" font-size="10" text-anchor="middle" baseline-shift="-10" font-family="Helvetica">1.2</text>
<text fill="#000000" x="265.467" y="389.481" font-size="10" text-anchor="middle" baseline-shift="-10" font-family="Helvetica">1.4</text>
<text fill="#000000" x="357.985" y="389.481" font-size="10" text-anchor="middle" baseline-shift="-10" font-family="Helvetica">1.6</text>
<text fill="#000000" x="450.503" y="389.481" font-size="10" text-anchor="middle" baseline-shift="-10" font-family="Helvetica">1.8</text>
<polyline fill="none" stroke="#007f00" stroke-width="0.5" stroke-dasharray="16,0" points="521.28,384.48 516.812,384.48"/>
<polyline fill="none" stroke="#007f00" stroke-width="0.5" stroke-dasharray="16,0" points="521.28,296.46 516.812,296.46"/>
<polyline fill="none" stroke="#007f00" stroke-width="0.5" stroke-dasharray="16,0" points="521.28,208.44 516.812,208.44"/>
<polyline fill="none" stroke="#007f00" stroke-width="0.5" stroke-dasharray="16,0" points="521.28,120.42 516.812,120.42"/>
<polyline fill="none" stroke="#007f00" stroke-width="0.5" stroke-dasharray="16,0" points="521.28,32.3999 516.812,32.3999"/>
<text fill="#007f00" x="526.285" y="384.48" font-size="10" text-anchor="start" baseline-shift="-5" font-family="Helvetica">-1</text>
<text fill="#007f00" x="526.285" y="296.46" font-size="10" text-anchor="start" baseline-shift="-5" font-family="Helvetica">-0.5</text>
<text fill="#007f00" x="526.285" y="208.44" font-size="10" text-anchor="start" baseline-shift="-5" font-family="Helvetica">0</text>
<text fill="#007f00" x="526.285" y="120.42" font-size="10" text-anchor="start" baseline-shift="-5" font-family="Helvetica">0.5</text>
<text fill="#007f00" x="526.285" y="32.3999" font-size="10" text-anchor="start" baseline-shift="-5" font-family="Helvetica">1</text>
<text fill="#007f00" x="549.284" y="208.44" font-size="10" transform="rotate(-90, 549.284, 208.44)" text-anchor="middle" baseline-shift="-10" font-family="Helvetica">Controller Input</text>
<polyline fill="none" stroke="#007f00" stroke-width="0.5" points="74.8799,232.558 77.1929,256.851 79.0435,281.321 81.3564,304.382 83.6689,327.971 85.9819,351.384 87.8325,370.221 90.1455,384.48 92.4585,384.48 94.3086,384.48 96.6216,384.48 98.9346,384.48 100.785,384.48 103.098,384.48 104.948,384.48 107.261,384.48 109.574,384.48 111.425,384.48 113.738,384.48 116.051,384.48 117.901,372.333 120.214,358.602 122.527,342.583 124.377,326.563 126.69,310.719 128.541,293.115 130.854,275.688 133.167,258.083 135.017,240.303 137.33,223.403 139.643,206.503 141.493,189.428 143.806,173.76 146.119,158.093 147.969,144.361 150.282,130.806 152.133,120.068 154.445,109.33 156.758,98.5908 158.609,91.7256 160.922,84.6841 163.235,81.8672 165.085,79.0508 167.398,76.4102 169.249,77.9941 171.562,79.7549 173.875,85.0361 175.725,90.4932 178.038,98.7671 180.351,106.865 182.201,115.139 184.514,125.349 186.364,135.735 188.677,147.002 190.99,158.445 192.841,170.063 195.154,181.682 197.466,193.477 199.317,204.743 201.63,216.01 203.943,226.22 205.793,236.254 208.106,244.88 209.957,253.33 212.27,261.956 214.583,267.941 216.433,274.103 218.746,277.624 221.059,281.321 222.909,281.849 225.222,282.553 227.535,283.257 229.385,281.145 231.698,279.032 233.549,274.807 235.861,270.582 237.712,266.357 240.025,260.372 242.338,254.562 244.188,247.873 246.501,241.184 248.814,234.142 250.665,227.1 252.978,220.059 254.828,213.017 257.141,210.905 259.454,199.638 261.767,193.125 263.617,187.667 265.93,182.21 268.243,176.753 270.093,172.88 272.406,169.007 274.719,166.542 276.569,164.254 278.882,163.55 280.733,162.846 283.046,162.142 285.359,163.021 287.209,163.902 289.522,166.014 291.835,168.303 293.686,171.472 295.999,174.64 298.311,177.809 300.162,181.858 302.475,185.907 304.788,190.132 307.101,194.181 308.951,198.229 311.264,202.279 313.577,206.328 315.427,210.024 317.74,213.897 319.59,216.89 321.903,219.707 324.216,221.995 326.067,224.284 328.38,226.572 330.692,228.156 332.543,229.565 334.856,229.917 337.169,230.445 339.019,230.797 341.332,230.269 343.183,229.741 345.496,228.685 347.346,227.452 349.659,225.692 351.972,224.107 354.285,222.347 356.135,220.411 358.448,218.298 360.298,216.186 362.611,213.897 364.462,211.609 366.774,207.56 369.087,207.032 370.938,204.919 373.251,202.807 375.564,200.87 377.414,199.11 379.727,197.877 382.04,196.821 383.891,195.589 386.204,194.885 388.054,194.005 390.367,194.005 392.68,193.829 394.53,194.181 396.843,194.533 399.156,194.885 401.006,195.413 403.319,195.941 405.632,196.646 407.483,197.35 409.795,198.054 411.646,198.934 413.959,199.99 416.272,200.87 418.122,201.927 420.435,202.983 422.748,203.863 424.599,204.919 426.912,205.799 429.225,206.68 431.075,207.384 433.388,208.088 435.238,208.264 437.551,208.968 439.864,209.496 442.177,209.672 444.027,209.848 446.34,209.848 448.19,209.848 450.503,209.672 452.354,209.496 454.667,209.32 456.98,208.792 458.83,208.264 461.143,207.736 463.456,207.032 465.307,206.68 467.62,206.151 469.933,205.624 471.783,205.447 474.096,205.271 475.946,205.095 478.259,204.919 480.572,204.743 482.422,204.391 484.735,204.215 487.048,204.039 488.898,204.039 491.211,203.863 493.524,203.863 495.375,203.863 497.688,203.687 499.538,203.335 501.851,203.159 504.164,202.807 506.015,202.807 508.327,202.807 510.64,202.807 512.491,202.807 514.804,202.807 516.654,202.279 518.967,201.927 521.28,199.462"/>
<polyline fill="none" stroke="#000000" stroke-width="0.5" stroke-dasharray="16,0" points="411.532,83.4976 518.534,83.4976"/>
<polyline fill="none" stroke="#000000" stroke-width="0.5" stroke-dasharray="16,0" points="411.532,35.146 518.534,35.146"/>
<polyline fill="none" stroke="#000000" stroke-width="0.5" stroke-dasharray="16,0" points="411.532,83.4976 411.532,35.146"/>
<polyline fill="none" stroke="#000000" stroke-width="0.5" stroke-dasharray="16,0" points="518.534,83.4976 518.534,35.146"/>
<text fill="#000000" x="437.617" y="43.2046" font-size="10" text-anchor="start" baseline-shift="-5" font-family="Helvetica">Gyro Rate</text>
<text fill="#000000" x="437.617" y="59.3218" font-size="10" text-anchor="start" baseline-shift="-5" font-family="Helvetica">Model Output</text>
<text fill="#000000" x="437.617" y="75.439" font-size="10" text-anchor="start" baseline-shift="-5" font-family="Helvetica">Controller Input</text>
<polyline fill="none" stroke="#ff00ff" stroke-width="0.5" points="414.278,43.2046 434.871,43.2046"/>
<polyline fill="none" stroke="#0000ff" stroke-width="0.5" points="414.278,59.3218 434.871,59.3218"/>
<polyline fill="none" stroke="#007f00" stroke-width="0.5" points="414.278,75.439 434.871,75.439"/>
<text fill="#000000" x="298.08" y="22.3999" font-size="10" text-anchor="middle" baseline-shift="0" font-family="Helvetica">Drop Test Gyro Data Compared to Model</text>
</g>
</svg>
