<?xml version="1.0" encoding="UTF-8" standalone="no"?>
<svg xmlns="http://www.w3.org/2000/svg"
     xmlns:xlink="http://www.w3.org/1999/xlink"
     width="576px" height="433px" viewBox="0 0 576 433">
<title>glps_renderer figure</title>
<desc>
Creator: GL2PS 1.3.8, (C) 1999-2012 C. Geuzaine
For: Octave
CreationDate: Sun Aug 14 15:39:22 2016
</desc>
<defs>
</defs>
<g shape-rendering="crispEdges">
<polyline fill="none" stroke="#000000" stroke-width="0.5" stroke-dasharray="16,0" points="74.8799,178.603 521.28,178.603"/>
<polyline fill="none" stroke="#000000" stroke-width="0.5" stroke-dasharray="16,0" points="74.8799,47.1626 521.28,47.1626"/>
<polyline fill="none" stroke="#0000ff" stroke-width="0.5" stroke-dasharray="16,0" points="74.8799,178.603 74.8799,47.1626"/>
<polyline fill="none" stroke="#000000" stroke-width="0.5" stroke-dasharray="16,0" points="74.8799,178.603 74.8799,174.124"/>
<polyline fill="none" stroke="#000000" stroke-width="0.5" stroke-dasharray="16,0" points="74.8799,47.1626 74.8799,51.6416"/>
<polyline fill="none" stroke="#000000" stroke-width="0.5" stroke-dasharray="16,0" points="146.304,178.603 146.304,174.124"/>
<polyline fill="none" stroke="#000000" stroke-width="0.5" stroke-dasharray="16,0" points="146.304,47.1626 146.304,51.6416"/>
<polyline fill="none" stroke="#000000" stroke-width="0.5" stroke-dasharray="16,0" points="217.728,178.603 217.728,174.124"/>
<polyline fill="none" stroke="#000000" stroke-width="0.5" stroke-dasharray="16,0" points="217.728,47.1626 217.728,51.6416"/>
<polyline fill="none" stroke="#000000" stroke-width="0.5" stroke-dasharray="16,0" points="289.152,178.603 289.152,174.124"/>
<polyline fill="none" stroke="#000000" stroke-width="0.5" stroke-dasharray="16,0" points="289.152,47.1626 289.152,51.6416"/>
<polyline fill="none" stroke="#000000" stroke-width="0.5" stroke-dasharray="16,0" points="360.576,178.603 360.576,174.124"/>
<polyline fill="none" stroke="#000000" stroke-width="0.5" stroke-dasharray="16,0" points="360.576,47.1626 360.576,51.6416"/>
<polyline fill="none" stroke="#000000" stroke-width="0.5" stroke-dasharray="16,0" points="432,178.603 432,174.124"/>
<polyline fill="none" stroke="#000000" stroke-width="0.5" stroke-dasharray="16,0" points="432,47.1626 432,51.6416"/>
<polyline fill="none" stroke="#000000" stroke-width="0.5" stroke-dasharray="16,0" points="503.424,178.603 503.424,174.124"/>
<polyline fill="none" stroke="#000000" stroke-width="0.5" stroke-dasharray="16,0" points="503.424,47.1626 503.424,51.6416"/>
<text fill="#000000" x="74.8799" y="183.619" font-size="10" text-anchor="middle" baseline-shift="-10" font-family="Helvetica">0</text>
<text fill="#000000" x="146.304" y="183.619" font-size="10" text-anchor="middle" baseline-shift="-10" font-family="Helvetica">0.2</text>
<text fill="#000000" x="217.728" y="183.619" font-size="10" text-anchor="middle" baseline-shift="-10" font-family="Helvetica">0.4</text>
<text fill="#000000" x="289.152" y="183.619" font-size="10" text-anchor="middle" baseline-shift="-10" font-family="Helvetica">0.6</text>
<text fill="#000000" x="360.576" y="183.619" font-size="10" text-anchor="middle" baseline-shift="-10" font-family="Helvetica">0.8</text>
<text fill="#000000" x="432" y="183.619" font-size="10" text-anchor="middle" baseline-shift="-10" font-family="Helvetica">1</text>
<text fill="#000000" x="503.424" y="183.619" font-size="10" text-anchor="middle" baseline-shift="-10" font-family="Helvetica">1.2</text>
<polyline fill="none" stroke="#0000ff" stroke-width="0.5" stroke-dasharray="16,0" points="74.8799,178.603 79.3481,178.603"/>
<polyline fill="none" stroke="#0000ff" stroke-width="0.5" stroke-dasharray="16,0" points="74.8799,159.826 79.3481,159.826"/>
<polyline fill="none" stroke="#0000ff" stroke-width="0.5" stroke-dasharray="16,0" points="74.8799,141.048 79.3481,141.048"/>
<polyline fill="none" stroke="#0000ff" stroke-width="0.5" stroke-dasharray="16,0" points="74.8799,122.271 79.3481,122.271"/>
<polyline fill="none" stroke="#0000ff" stroke-width="0.5" stroke-dasharray="16,0" points="74.8799,103.494 79.3481,103.494"/>
<polyline fill="none" stroke="#0000ff" stroke-width="0.5" stroke-dasharray="16,0" points="74.8799,84.7168 79.3481,84.7168"/>
<polyline fill="none" stroke="#0000ff" stroke-width="0.5" stroke-dasharray="16,0" points="74.8799,65.9399 79.3481,65.9399"/>
<polyline fill="none" stroke="#0000ff" stroke-width="0.5" stroke-dasharray="16,0" points="74.8799,47.1626 79.3481,47.1626"/>
<text fill="#0000ff" x="69.8755" y="178.603" font-size="10" text-anchor="end" baseline-shift="-5" font-family="Helvetica">0</text>
<text fill="#0000ff" x="69.8755" y="159.826" font-size="10" text-anchor="end" baseline-shift="-5" font-family="Helvetica">0.2</text>
<text fill="#0000ff" x="69.8755" y="141.048" font-size="10" text-anchor="end" baseline-shift="-5" font-family="Helvetica">0.4</text>
<text fill="#0000ff" x="69.8755" y="122.271" font-size="10" text-anchor="end" baseline-shift="-5" font-family="Helvetica">0.6</text>
<text fill="#0000ff" x="69.8755" y="103.494" font-size="10" text-anchor="end" baseline-shift="-5" font-family="Helvetica">0.8</text>
<text fill="#0000ff" x="69.8755" y="84.7168" font-size="10" text-anchor="end" baseline-shift="-5" font-family="Helvetica">1</text>
<text fill="#0000ff" x="69.8755" y="65.9399" font-size="10" text-anchor="end" baseline-shift="-5" font-family="Helvetica">1.2</text>
<text fill="#0000ff" x="69.8755" y="47.1626" font-size="10" text-anchor="end" baseline-shift="-5" font-family="Helvetica">1.4</text>
<text fill="#000000" x="298.08" y="196.619" font-size="10" text-anchor="middle" baseline-shift="-10" font-family="Helvetica">Time (sec)</text>
<text fill="#0000ff" x="50.8755" y="112.883" font-size="10" transform="rotate(-90, 50.8755, 112.883)" text-anchor="middle" baseline-shift="0" font-family="Helvetica">Cube Angular Velocity (rad/s)</text>
<polyline fill="none" stroke="#0000ff" stroke-width="0.5" points="74.8799,178.603 75.2373,176.532 75.5942,173.65 75.9512,170.805 76.3086,168.031 76.6655,165.329 77.0225,162.696 77.3799,160.131 77.7368,157.631 78.0942,155.196 78.4512,152.824 78.8081,150.513 79.1655,148.261 79.5225,146.067 79.8799,143.929 80.2368,141.846 80.5938,139.817 80.9512,137.84 81.3081,135.914 81.665,134.038 82.0225,132.209 82.3794,130.428 82.7368,128.692 83.0938,127.001 83.4507,125.354 83.8081,123.749 84.165,122.185 84.5225,120.662 84.8794,119.177 85.2363,117.73 85.5938,116.322 85.9507,114.949 86.3076,113.611 86.665,112.308 87.022,111.039 87.3794,109.801 87.7363,108.596 88.0933,107.422 88.4507,106.278 88.8076,105.164 89.165,104.078 89.522,103.02 89.8789,101.989 90.2363,100.984 90.5933,100.006 90.9502,99.0522 91.3076,98.1235 91.6646,97.2188 92.022,96.3369 92.3789,95.478 92.7358,94.6411 93.0933,93.8257 93.4502,93.0312 93.8071,92.2573 94.1646,91.5029 94.5215,90.7686 94.8789,90.0527 95.2358,89.355 95.5928,88.6758 95.9502,88.0137 96.3071,87.3687 96.6646,86.7402 97.0215,86.1279 97.3784,85.5312 97.7358,84.9502 98.0928,84.3843 98.4497,83.8325 98.8071,83.2949 99.1641,82.771 99.5215,82.2612 99.8784,81.7642 100.235,81.2798 100.593,80.8076 100.95,80.3481 101.307,79.9004 101.664,79.4639 102.021,79.0386 102.378,78.6245 102.735,78.2207 103.092,77.8276 103.45,77.4443 103.807,77.0713 104.164,76.7075 104.521,76.3535 104.878,76.0083 105.235,75.6719 105.592,75.3442 105.949,75.0249 106.307,74.7139 106.664,74.4106 107.021,74.1157 107.378,73.8281 107.735,73.5479 108.092,73.2749 108.449,73.0088 108.807,72.7495 109.164,72.4971 109.521,72.251 109.878,72.0112 110.235,71.7778 110.592,71.5503 110.949,71.3286 111.306,71.1123 111.664,70.9019 112.021,70.6968 112.377,70.4971 112.735,70.3027 113.092,70.1128 113.449,69.9282 113.806,69.7485 114.163,69.5728 114.521,69.4019 114.877,69.2358 115.234,69.0732 115.592,68.9155 115.949,68.7617 116.306,68.6113 116.663,68.4653 117.02,68.3228 117.377,68.1841 117.734,68.0493 118.091,67.9175 118.449,67.7891 118.806,67.6641 119.163,67.5425 119.52,67.4238 119.877,67.3081 120.234,67.1958 120.591,67.0859 120.948,66.979 121.306,66.875 121.663,66.7734 122.02,66.6743 122.377,66.5781 122.734,66.4844 123.091,66.3931 123.448,66.3037 123.806,66.2168 124.163,66.1323 124.52,66.0498 124.877,65.9697 125.234,65.8916 125.591,65.8154 125.948,65.7412 126.305,65.6689 126.663,65.5981 127.02,65.5298 127.376,65.4629 127.734,65.3975 128.091,65.334 128.448,65.2725 128.805,65.2119 129.162,65.1533 129.52,65.0962 129.876,65.0405 130.233,64.9858 130.591,64.9331 130.948,64.8813 131.305,64.8315 131.662,64.7822 132.019,64.7349 132.376,64.6885 132.733,64.6431 133.09,64.5991 133.448,64.5562 133.805,64.5142 134.162,64.4731 134.519,64.4336 134.876,64.395 135.233,64.3569 135.59,64.3203 135.948,64.2847 136.305,64.2495 136.662,64.2158 137.019,64.1826 137.376,64.1504 137.733,64.1191 138.09,64.0884 138.447,64.0586 138.805,64.0293 139.162,64.001 139.519,63.9736 139.876,63.9468 140.233,63.9204 140.59,63.895 140.947,63.8701 141.304,63.8457 141.662,63.8223 142.019,63.7993 142.375,63.7769 142.733,63.7549 143.09,63.7339 143.447,63.7129 143.804,63.6929 144.161,63.6733 144.519,63.6543 144.875,63.6353 145.232,63.6172 145.59,63.5996 145.947,63.582 146.304,63.5654 146.661,63.5488 147.018,63.5332 147.375,63.5176 147.732,63.5024 148.09,63.4878 148.447,63.4731 148.804,63.4595 149.161,63.4458 149.518,63.4321 149.875,63.4194 150.232,63.4067 150.589,63.3945 150.947,63.3823 151.304,63.3706 151.661,63.3594 152.018,63.3481 152.375,63.3374 152.732,63.3271 153.089,63.3169 153.446,63.3066 153.804,63.2969 154.161,63.2876 154.518,63.2783 154.875,63.269 155.232,63.2603 155.589,63.252 155.946,63.2437 156.303,63.2354 156.661,63.2275 157.018,63.2197 157.375,63.2124 157.732,63.2051 158.089,63.1978 158.446,63.1909 158.803,63.1841 159.16,63.1777 159.518,63.1714 159.875,63.165 160.231,63.1587 160.589,63.1528 160.946,63.147 161.303,63.1416 161.66,63.1362 162.017,63.1309 162.375,63.1255 162.731,63.1206 163.089,63.1157 163.446,63.1108 163.803,63.106 164.16,63.1016 164.517,63.0972 164.874,63.0928 165.231,63.0884 165.588,63.0845 165.946,63.0801 166.303,63.0762 166.66,63.0728 167.017,63.0688 167.374,63.0654 167.731,63.0615 168.088,63.0581 168.445,63.0547 168.803,63.0518 169.16,63.0483 169.517,63.0454 169.874,63.0425 170.231,63.0396 170.588,63.0366 170.945,63.0337 171.302,63.0312 171.66,63.0283 172.017,63.0259 172.374,63.0234 172.731,63.021 173.088,63.0186 173.445,63.0161 173.802,63.0137 174.159,63.0117 174.517,63.0098 174.874,63.0073 175.23,63.0054 175.588,63.0034 175.945,63.0015 176.302,62.9995 176.659,62.9976 177.016,62.9961 177.374,62.9941 177.73,62.9927 178.088,62.9907 178.445,62.9893 178.802,62.9878 179.159,62.9863 179.516,62.9849 179.873,62.9834 180.23,62.9819 180.587,62.9805 180.945,62.979 181.302,62.978 181.659,62.9766 182.016,62.9751 182.373,62.9741 182.73,62.9727 183.087,62.9717 183.444,62.9707 183.802,62.9697 184.159,62.9683 184.516,62.9673 184.873,62.9663 185.23,62.9653 185.587,62.9644 185.944,62.9634 186.301,62.9624 186.659,62.9619 187.016,62.9609 187.373,62.96 187.73,62.959 188.087,62.9585 188.444,62.9575 188.801,62.957 189.158,62.9561 189.516,62.9556 189.873,62.9546 190.23,62.9541 190.587,62.9536 190.944,62.9526 191.301,62.9521 191.658,62.9517 192.015,62.9507 192.373,62.9502 192.729,62.9497 193.087,62.9492 193.444,62.9487 193.801,62.9482 194.158,62.9478 194.515,62.9473 194.872,62.9468 195.229,62.9463 195.586,62.9458 195.944,62.9453 196.301,62.9448 196.658,62.9443 197.015,62.9438 197.372,62.9434 197.729,62.9429 198.086,62.9429 198.443,62.9424 198.801,62.9419 199.158,62.9419 199.515,62.9414 199.872,62.9409 200.229,62.9404 200.586,62.9404 200.943,62.9399 201.3,62.9399 201.658,62.9395 202.015,62.939 202.372,62.939 202.729,62.9385 203.086,62.9385 203.443,62.938 203.8,62.938 204.157,62.9375 204.515,62.9375 204.872,62.937 205.229,62.937 205.586,62.9365 205.943,62.9365 206.3,62.936 206.657,62.936 207.015,62.9355 207.372,62.9355 207.729,62.9355 208.086,62.9351 208.443,62.9351 208.8,62.9351 209.157,62.9346 209.514,62.9346 209.872,62.9341 210.229,62.9341 210.585,62.9341 210.943,62.9341 211.3,62.9336 211.657,62.9336 212.014,62.9336 212.371,62.9331 212.729,62.9331 213.085,62.9331 213.442,62.9331 213.8,62.9326 214.157,62.9326 214.514,62.9326 214.871,62.9326 215.228,62.9321 215.585,62.9321 215.942,62.9321 216.299,62.9321 216.657,62.9321 217.014,62.9316 217.371,62.9316 217.728,62.9316 218.085,62.9316 218.442,62.9316 218.799,62.9312 219.156,62.9312 219.514,62.9312 219.871,62.9312 220.228,62.9312 220.585,62.9312 220.942,62.9307 221.299,62.9307 221.656,62.9307 222.014,62.9307 222.371,62.9307 222.728,62.9307 223.085,62.9307 223.442,62.9307 223.799,62.9302 224.156,62.9302 224.513,62.9302 224.871,62.9302 225.228,62.9302 225.584,62.9302 225.942,62.9302 226.299,62.9302 226.656,62.9302 227.013,62.9297 227.37,62.9297 227.728,62.9297 228.084,62.9297 228.441,62.9297 228.799,62.9297 229.156,62.9297 229.513,62.9297 229.87,62.9297 230.227,62.9297 230.584,62.9297 230.941,62.9297 231.298,62.9292 231.656,62.9292 232.013,62.9292 232.37,62.9292 232.727,62.9292 233.084,62.9292 233.441,62.9292 233.798,62.9292 234.156,62.9292 234.513,62.9292 234.87,62.9292 235.227,62.9292 235.584,62.9292 235.941,62.9292 236.298,62.9292 236.655,62.9292 237.013,62.9292 237.37,62.9292 237.727,62.9292 238.084,62.9287 238.441,62.9287 238.798,62.9287 239.155,62.9287 239.512,62.9287 239.87,62.9287 240.227,62.9287 240.583,62.9287 240.941,62.9287 241.298,62.9287 241.655,62.9287 242.012,62.9287 242.369,62.9287 242.727,62.9287 243.083,62.9287 243.44,62.9287 243.798,62.9287 244.155,62.9287 244.512,62.9287 244.869,62.9287 245.226,62.9287 245.583,62.9287 245.94,62.9287 246.297,62.9287 246.655,62.9287 247.012,62.9287 247.369,62.9287 247.726,62.9287 248.083,62.9287 248.44,62.9287 248.797,62.9287 249.155,62.9287 249.512,62.9287 249.869,62.9287 250.226,62.9282 250.583,62.9282 250.94,62.9282 251.297,62.9282 251.654,62.9282 252.012,62.9282 252.369,62.9282 252.726,62.9282 253.083,62.9282 253.44,62.9282 253.797,62.9282 254.154,62.9282 254.511,62.9282 254.869,62.9282 255.226,62.9282 255.583,62.9282 255.94,62.9282 256.297,62.9282 256.654,62.9282 257.011,62.9282 257.368,62.9282 257.726,62.9282 258.083,62.9282 258.439,62.9282 258.797,62.9282 259.154,62.9282 259.511,62.9282 259.868,62.9282 260.225,62.9282 260.583,62.9282 260.939,62.9282 261.297,62.9282 261.654,62.9282 262.011,62.9282 262.368,62.9282 262.725,62.9282 263.082,62.9282 263.439,62.9282 263.796,62.9282 264.154,62.9282 264.511,62.9282 264.868,62.9282 265.225,62.9282 265.582,62.9282 265.939,62.9282 266.296,62.9282 266.653,62.9282 267.011,62.9282 267.368,62.9282 267.725,62.9282 268.082,62.9282 268.439,62.9282 268.796,62.9282 269.153,62.9282 269.51,62.9282 269.868,62.9282 270.225,62.9282 270.582,62.9282 270.939,62.9282 271.296,62.9282 271.653,62.9282 272.01,62.9282 272.367,62.9282 272.725,62.9282 273.082,62.9282 273.438,62.9282 273.796,62.9282 274.153,62.9282 274.51,62.9282 274.867,62.9282 275.224,62.9282 275.582,62.9282 275.938,62.9282 276.296,62.9282 276.653,62.9282 277.01,62.9282 277.367,62.9282 277.724,62.9282 278.081,62.9282 278.438,62.9282 278.795,62.9282 279.153,62.9282 279.51,62.9282 279.867,62.9282 280.224,62.9282 280.581,62.9282 280.938,62.9282 281.295,62.9282 281.652,62.9282 282.01,62.9282 282.367,62.9282 282.724,62.9282 283.081,62.9282 283.438,62.9282 283.795,62.9282 284.152,62.9282 284.509,62.9282 284.867,62.9282 285.224,62.9282 285.581,62.9282 285.938,62.9282 286.295,62.9282 286.652,62.9282 287.009,62.9282 287.366,62.9282 287.724,62.9282 288.081,62.9282 288.438,62.9282 288.795,62.9282 289.152,62.9282 289.509,62.9282 289.866,62.9282 290.223,62.9282 290.581,62.9282 290.938,62.9282 291.295,62.9282 291.652,62.9282 292.009,62.9282 292.366,62.9282 292.723,62.9282 293.08,62.9282 293.438,62.9282 293.794,62.9282 294.152,62.9282 294.509,62.9282 294.866,62.9282 295.223,62.9282 295.58,62.9282 295.938,62.9282 296.294,62.9282 296.651,62.9282 297.009,62.9282 297.366,62.9282 297.723,62.9282 298.08,62.9282 298.437,62.9282 298.794,62.9282 299.151,62.9282 299.508,62.9282 299.866,62.9282 300.223,62.9282 300.58,62.9282 300.937,62.9282 301.294,62.9282 301.651,62.9282 302.008,62.9282 302.365,62.9282 302.723,62.9282 303.08,62.9282 303.437,62.9282 303.794,62.9282 304.151,62.9282 304.508,62.9282 304.865,62.9282 305.222,62.9282 305.58,62.9282 305.937,62.9282 306.294,62.9282 306.651,62.9282 307.008,62.9282 307.365,62.9282 307.722,62.9282 308.08,62.9282 308.437,62.9282 308.793,62.9282 309.151,62.9282 309.508,62.9282 309.865,62.9282 310.222,62.9282 310.579,62.9282 310.937,62.9282 311.293,62.9282 311.65,62.9282 312.008,62.9282 312.365,62.9282 312.722,62.9282 313.079,62.9282 313.436,62.9282 313.793,62.9282 314.15,62.9282 314.507,62.9282 314.865,62.9282 315.222,62.9282 315.579,62.9282 315.936,62.9282 316.293,62.9282 316.65,62.9282 317.007,62.9282 317.364,62.9282 317.722,62.9282 318.079,62.9282 318.436,62.9282 318.793,62.9282 319.15,62.9282 319.507,62.9282 319.864,62.9282 320.221,62.9282 320.579,62.9282 320.936,62.9282 321.293,62.9282 321.65,62.9282 322.007,62.9282 322.364,62.9282 322.721,62.9282 323.079,62.9282 323.436,62.9282 323.792,62.9282 324.15,62.9282 324.507,62.9282 324.864,62.9282 325.221,62.9282 325.578,62.9282 325.936,62.9282 326.292,62.9282 326.649,62.9282 327.007,62.9282 327.364,62.9282 327.721,62.9282 328.078,62.9282 328.435,62.9282 328.792,62.9282 329.149,62.9282 329.506,62.9282 329.864,62.9282 330.221,62.9282 330.578,62.9282 330.935,62.9282 331.292,62.9282 331.649,62.9282 332.006,62.9282 332.364,62.9282 332.721,62.9282 333.078,62.9282 333.435,62.9282 333.792,62.9282 334.149,62.9282 334.506,62.9282 334.863,62.9282 335.221,62.9282 335.578,62.9282 335.935,62.9282 336.292,62.9282 336.649,62.9282 337.006,62.9282 337.363,62.9282 337.72,62.9282 338.078,62.9282 338.435,62.9282 338.792,62.9282 339.149,62.9282 339.506,62.9282 339.863,62.9282 340.22,62.9282 340.577,62.9282 340.935,62.9282 341.292,62.9282 341.648,62.9282 342.006,62.9282 342.363,62.9282 342.72,62.9282 343.077,62.9282 343.434,62.9282 343.792,62.9282 344.148,62.9282 344.505,62.9282 344.863,62.9282 345.22,62.9282 345.577,62.9282 345.934,62.9282 346.291,62.9282 346.648,62.9282 347.005,62.9282 347.363,62.9282 347.72,62.9282 348.077,62.9282 348.434,62.9282 348.791,62.9282 349.148,62.9282 349.505,62.9282 349.862,62.9282 350.22,62.9282 350.577,62.9282 350.934,62.9282 351.291,62.9282 351.648,62.9282 352.005,62.9282 352.362,62.9282 352.719,62.9282 353.077,62.9282 353.434,62.9282 353.791,62.9282 354.148,62.9282 354.505,62.9282 354.862,62.9282 355.219,62.9282 355.576,62.9282 355.934,62.9282 356.291,62.9282 356.647,62.9282 357.005,62.9282 357.362,62.9282 357.719,62.9282 358.076,62.9282 358.433,62.9282 358.791,62.9282 359.147,62.9282 359.505,62.9282 359.862,62.9282 360.219,62.9282 360.576,62.9282 360.933,62.9282 361.29,62.9282 361.647,62.9282 362.004,62.9282 362.362,62.9282 362.719,62.9282 363.076,62.9282 363.433,62.9282 363.79,62.9282 364.147,62.9282 364.504,62.9282 364.861,62.9282 365.219,62.9282 365.576,62.9282 365.933,62.9282 366.29,62.9282 366.647,62.9282 367.004,62.9282 367.361,62.9282 367.718,62.9282 368.076,62.9282 368.433,62.9282 368.79,62.9282 369.147,62.9282 369.504,62.9282 369.861,62.9282 370.218,62.9282 370.575,62.9282 370.933,62.9282 371.29,62.9282 371.646,62.9282 372.004,62.9282 372.361,62.9282 372.718,62.9282 373.075,62.9282 373.432,62.9282 373.79,62.9282 374.146,62.9282 374.504,62.9282 374.861,62.9282 375.218,62.9282 375.575,62.9282 375.932,62.9282 376.289,62.9282 376.646,62.9282 377.003,62.9282 377.361,62.9282 377.718,62.9282 378.075,62.9282 378.432,62.9282 378.789,62.9282 379.146,62.9282 379.503,62.9282 379.86,62.9282 380.218,62.9282 380.575,62.9282 380.932,62.9282 381.289,62.9282 381.646,62.9282 382.003,62.9282 382.36,62.9282 382.717,62.9282 383.075,62.9282 383.432,62.9282 383.789,62.9282 384.146,62.9282 384.503,62.9282 384.86,62.9282 385.217,62.9282 385.574,62.9282 385.932,62.9282 386.289,62.9282 386.646,62.9282 387.003,62.9282 387.36,62.9282 387.717,62.9282 388.074,62.9282 388.431,62.9282 388.789,62.9282 389.146,62.9282 389.503,62.9282 389.86,62.9282 390.217,62.9282 390.574,62.9282 390.931,62.9282 391.288,62.9282 391.646,62.9282 392.002,62.9282 392.36,62.9282 392.717,62.9282 393.074,62.9282 393.431,62.9282 393.788,62.9282 394.146,62.9282 394.502,62.9282 394.859,62.9282 395.217,62.9282 395.574,62.9282 395.931,62.9282 396.288,62.9282 396.645,62.9282 397.002,62.9282 397.359,62.9282 397.716,62.9282 398.074,62.9282 398.431,62.9282 398.788,62.9282 399.145,62.9282 399.502,62.9282 399.859,62.9282 400.216,62.9282 400.573,62.9282 400.931,62.9282 401.288,62.9282 401.645,62.9282 402.002,62.9282 402.359,62.9282 402.716,62.9282 403.073,62.9282 403.43,62.9282 403.788,62.9282 404.145,62.9282 404.502,62.9282 404.859,62.9282 405.216,62.9282 405.573,62.9282 405.93,62.9282 406.287,62.9282 406.645,62.9282 407.001,62.9282 407.359,62.9282 407.716,62.9282 408.073,62.9282 408.43,62.9282 408.787,62.9282 409.145,62.9282 409.501,62.9282 409.858,62.9282 410.216,62.9282 410.573,62.9282 410.93,62.9282 411.287,62.9282 411.644,62.9282 412.001,62.9282 412.358,62.9282 412.715,62.9282 413.073,62.9282 413.43,62.9282 413.787,62.9282 414.144,62.9282 414.501,62.9282 414.858,62.9282 415.215,62.9282 415.572,62.9282 415.93,62.9282 416.287,62.9282 416.644,62.9282 417.001,62.9282 417.358,62.9282 417.715,62.9282 418.072,62.9282 418.43,62.9282 418.787,62.9282 419.144,62.9282 419.501,62.9282 419.858,62.9282 420.215,62.9282 420.572,62.9282 420.929,62.9282 421.287,62.9282 421.644,62.9282 422,62.9282 422.358,62.9282 422.715,62.9282 423.072,62.9282 423.429,62.9282 423.786,62.9282 424.144,62.9282 424.5,62.9282 424.857,62.9282 425.215,62.9282 425.572,62.9282 425.929,62.9282 426.286,62.9282 426.643,62.9282 427,62.9282 427.357,62.9282 427.714,62.9282 428.072,62.9282 428.429,62.9282 428.786,62.9282 429.143,62.9282 429.5,62.9282 429.857,62.9282 430.214,62.9282 430.571,62.9282 430.929,62.9282 431.286,62.9282 431.643,62.9282 432,62.9282 432.357,64.999 432.714,67.8809 433.071,70.7256 433.429,73.4995 433.786,76.2017 434.143,78.835 434.5,81.3999 434.857,83.8994 435.214,86.3345 435.571,88.7065 435.928,91.0181 436.286,93.27 436.643,95.4639 437,97.6016 437.357,99.6846 437.714,101.713 438.071,103.69 438.428,105.617 438.785,107.493 439.143,109.322 439.5,111.103 439.856,112.838 440.214,114.529 440.571,116.177 440.928,117.782 441.285,119.346 441.642,120.869 442,122.354 442.356,123.8 442.713,125.209 443.071,126.582 443.428,127.919 443.785,129.223 444.142,130.492 444.499,131.729 444.856,132.935 445.213,134.109 445.57,135.253 445.928,136.367 446.285,137.453 446.642,138.511 446.999,139.542 447.356,140.546 447.713,141.525 448.07,142.479 448.428,143.407 448.785,144.312 449.142,145.194 449.499,146.053 449.856,146.89 450.213,147.705 450.57,148.5 450.927,149.273 451.285,150.028 451.642,150.762 451.999,151.478 452.356,152.176 452.713,152.855 453.07,153.517 453.427,154.162 453.784,154.791 454.142,155.403 454.499,155.999 454.855,156.581 455.213,157.146 455.57,157.698 455.927,158.236 456.284,158.759 456.641,159.27 456.999,159.767 457.355,160.251 457.713,160.723 458.07,161.183 458.427,161.63 458.784,162.067 459.141,162.492 459.498,162.906 459.855,163.31 460.212,163.703 460.57,164.086 460.927,164.459 461.284,164.823 461.641,165.177 461.998,165.522 462.355,165.859 462.712,166.187 463.069,166.506 463.427,166.817 463.784,167.12 464.141,167.415 464.498,167.703 464.855,167.983 465.212,168.256 465.569,168.522 465.926,168.781 466.284,169.034 466.641,169.28 466.998,169.52 467.355,169.753 467.712,169.98 468.069,170.202 468.426,170.418 468.783,170.629 469.141,170.834 469.498,171.034 469.854,171.228 470.212,171.418 470.569,171.603 470.926,171.782 471.283,171.958 471.64,172.128 471.998,172.295 472.354,172.458 472.711,172.615 473.069,172.769 473.426,172.919 473.783,173.065 474.14,173.208 474.497,173.347 474.854,173.481 475.211,173.613 475.569,173.742 475.926,173.867 476.283,173.988 476.64,174.107 476.997,174.223 477.354,174.335 477.711,174.445 478.068,174.552 478.426,174.656 478.783,174.757 479.14,174.856 479.497,174.953 479.854,175.046 480.211,175.138 480.568,175.227 480.925,175.314 481.283,175.398 481.64,175.481 481.997,175.561 482.354,175.639 482.711,175.715 483.068,175.79 483.425,175.862 483.782,175.933 484.14,176.001 484.497,176.068 484.854,176.133 485.211,176.197 485.568,176.258 485.925,176.319 486.282,176.377 486.639,176.435 486.997,176.49 487.354,176.545 487.711,176.598 488.068,176.649 488.425,176.699 488.782,176.749 489.139,176.796 489.496,176.842 489.854,176.888 490.21,176.932 490.568,176.975 490.925,177.017 491.282,177.058 491.639,177.097 491.996,177.136 492.354,177.173 492.71,177.21 493.067,177.246 493.425,177.281 493.782,177.315 494.139,177.348 494.496,177.38 494.853,177.412 495.21,177.442 495.567,177.472 495.924,177.501 496.282,177.53 496.639,177.557 496.996,177.584 497.353,177.61 497.71,177.636 498.067,177.661 498.424,177.685 498.781,177.708 499.139,177.731 499.496,177.754 499.853,177.776 500.21,177.797 500.567,177.817 500.924,177.838 501.281,177.857 501.639,177.876 501.996,177.896 502.353,177.914 502.71,177.931 503.067,177.948 503.424,177.965 503.781,177.981 504.138,177.998 504.495,178.013 504.853,178.028 505.209,178.043 505.567,178.058 505.924,178.071 506.281,178.085 506.638,178.099 506.995,178.111 507.353,178.124 507.709,178.136 508.066,178.148 508.424,178.16 508.781,178.171 509.138,178.183 509.495,178.193 509.852,178.204 510.209,178.214 510.566,178.224 510.923,178.234 511.281,178.243 511.638,178.252 511.995,178.262 512.352,178.271 512.709,178.279 513.066,178.287 513.423,178.295 513.78,178.303 514.138,178.311 514.495,178.318 514.852,178.326 515.209,178.333 515.566,178.34 515.923,178.347 516.28,178.353 516.637,178.359 516.995,178.366 517.352,178.372 517.709,178.378 518.066,178.383 518.423,178.389 518.78,178.395 519.137,178.4 519.495,178.405 519.852,178.41 520.208,178.415 520.566,178.42 520.923,178.425 521.28,178.429"/>
<polyline fill="none" stroke="#000000" stroke-width="0.5" stroke-dasharray="16,0" points="521.28,178.603 74.8799,178.603"/>
<polyline fill="none" stroke="#007f00" stroke-width="0.5" stroke-dasharray="16,0" points="521.28,178.603 521.28,47.1626"/>
<polyline fill="none" stroke="#000000" stroke-width="0.5" stroke-dasharray="16,0" points="74.8799,178.603 74.8799,174.124"/>
<polyline fill="none" stroke="#000000" stroke-width="0.5" stroke-dasharray="16,0" points="146.304,178.603 146.304,174.124"/>
<polyline fill="none" stroke="#000000" stroke-width="0.5" stroke-dasharray="16,0" points="217.728,178.603 217.728,174.124"/>
<polyline fill="none" stroke="#000000" stroke-width="0.5" stroke-dasharray="16,0" points="289.152,178.603 289.152,174.124"/>
<polyline fill="none" stroke="#000000" stroke-width="0.5" stroke-dasharray="16,0" points="360.576,178.603 360.576,174.124"/>
<polyline fill="none" stroke="#000000" stroke-width="0.5" stroke-dasharray="16,0" points="432,178.603 432,174.124"/>
<polyline fill="none" stroke="#000000" stroke-width="0.5" stroke-dasharray="16,0" points="503.424,178.603 503.424,174.124"/>
<text fill="#000000" x="74.8799" y="183.619" font-size="10" text-anchor="middle" baseline-shift="-10" font-family="Helvetica">0</text>
<text fill="#000000" x="146.304" y="183.619" font-size="10" text-anchor="middle" baseline-shift="-10" font-family="Helvetica">0.2</text>
<text fill="#000000" x="217.728" y="183.619" font-size="10" text-anchor="middle" baseline-shift="-10" font-family="Helvetica">0.4</text>
<text fill="#000000" x="289.152" y="183.619" font-size="10" text-anchor="middle" baseline-shift="-10" font-family="Helvetica">0.6</text>
<text fill="#000000" x="360.576" y="183.619" font-size="10" text-anchor="middle" baseline-shift="-10" font-family="Helvetica">0.8</text>
<text fill="#000000" x="432" y="183.619" font-size="10" text-anchor="middle" baseline-shift="-10" font-family="Helvetica">1</text>
<text fill="#000000" x="503.424" y="183.619" font-size="10" text-anchor="middle" baseline-shift="-10" font-family="Helvetica">1.2</text>
<polyline fill="none" stroke="#007f00" stroke-width="0.5" stroke-dasharray="16,0" points="521.28,178.603 516.812,178.603"/>
<polyline fill="none" stroke="#007f00" stroke-width="0.5" stroke-dasharray="16,0" points="521.28,159.826 516.812,159.826"/>
<polyline fill="none" stroke="#007f00" stroke-width="0.5" stroke-dasharray="16,0" points="521.28,141.048 516.812,141.048"/>
<polyline fill="none" stroke="#007f00" stroke-width="0.5" stroke-dasharray="16,0" points="521.28,122.271 516.812,122.271"/>
<polyline fill="none" stroke="#007f00" stroke-width="0.5" stroke-dasharray="16,0" points="521.28,103.494 516.812,103.494"/>
<polyline fill="none" stroke="#007f00" stroke-width="0.5" stroke-dasharray="16,0" points="521.28,84.7168 516.812,84.7168"/>
<polyline fill="none" stroke="#007f00" stroke-width="0.5" stroke-dasharray="16,0" points="521.28,65.9399 516.812,65.9399"/>
<polyline fill="none" stroke="#007f00" stroke-width="0.5" stroke-dasharray="16,0" points="521.28,47.1626 516.812,47.1626"/>
<text fill="#007f00" x="526.285" y="178.603" font-size="10" text-anchor="start" baseline-shift="-5" font-family="Helvetica">0</text>
<text fill="#007f00" x="526.285" y="159.826" font-size="10" text-anchor="start" baseline-shift="-5" font-family="Helvetica">0.2</text>
<text fill="#007f00" x="526.285" y="141.048" font-size="10" text-anchor="start" baseline-shift="-5" font-family="Helvetica">0.4</text>
<text fill="#007f00" x="526.285" y="122.271" font-size="10" text-anchor="start" baseline-shift="-5" font-family="Helvetica">0.6</text>
<text fill="#007f00" x="526.285" y="103.494" font-size="10" text-anchor="start" baseline-shift="-5" font-family="Helvetica">0.8</text>
<text fill="#007f00" x="526.285" y="84.7168" font-size="10" text-anchor="start" baseline-shift="-5" font-family="Helvetica">1</text>
<text fill="#007f00" x="526.285" y="65.9399" font-size="10" text-anchor="start" baseline-shift="-5" font-family="Helvetica">1.2</text>
<text fill="#007f00" x="526.285" y="47.1626" font-size="10" text-anchor="start" baseline-shift="-5" font-family="Helvetica">1.4</text>
<text fill="#007f00" x="545.285" y="112.883" font-size="10" transform="rotate(-90, 545.285, 112.883)" text-anchor="middle" baseline-shift="-10" font-family="Helvetica">Cube Angular Position (rad)</text>
<polyline fill="none" stroke="#007f00" stroke-width="0.5" points="74.8799,178.603 75.2373,178.603 75.5942,178.601 75.9512,178.596 76.3086,178.588 76.6655,178.577 77.0225,178.564 77.3799,178.548 77.7368,178.529 78.0942,178.509 78.4512,178.485 78.8081,178.459 79.1655,178.431 79.5225,178.401 79.8799,178.369 80.2368,178.333 80.5938,178.297 80.9512,178.258 81.3081,178.217 81.665,178.175 82.0225,178.13 82.3794,178.084 82.7368,178.036 83.0938,177.986 83.4507,177.934 83.8081,177.881 84.165,177.826 84.5225,177.77 84.8794,177.711 85.2363,177.652 85.5938,177.591 85.9507,177.529 86.3076,177.465 86.665,177.4 87.022,177.334 87.3794,177.267 87.7363,177.198 88.0933,177.128 88.4507,177.057 88.8076,176.984 89.165,176.911 89.522,176.836 89.8789,176.761 90.2363,176.684 90.5933,176.606 90.9502,176.528 91.3076,176.448 91.6646,176.368 92.022,176.287 92.3789,176.204 92.7358,176.121 93.0933,176.037 93.4502,175.952 93.8071,175.867 94.1646,175.78 94.5215,175.693 94.8789,175.605 95.2358,175.517 95.5928,175.428 95.9502,175.338 96.3071,175.247 96.6646,175.156 97.0215,175.064 97.3784,174.972 97.7358,174.878 98.0928,174.785 98.4497,174.69 98.8071,174.596 99.1641,174.5 99.5215,174.405 99.8784,174.309 100.235,174.211 100.593,174.114 100.95,174.017 101.307,173.918 101.664,173.819 102.021,173.72 102.378,173.621 102.735,173.521 103.092,173.42 103.45,173.32 103.807,173.218 104.164,173.117 104.521,173.015 104.878,172.913 105.235,172.81 105.592,172.708 105.949,172.604 106.307,172.5 106.664,172.396 107.021,172.292 107.378,172.188 107.735,172.083 108.092,171.978 108.449,171.873 108.807,171.767 109.164,171.661 109.521,171.555 109.878,171.449 110.235,171.342 110.592,171.235 110.949,171.128 111.306,171.021 111.664,170.914 112.021,170.806 112.377,170.698 112.735,170.59 113.092,170.481 113.449,170.373 113.806,170.265 114.163,170.156 114.521,170.046 114.877,169.938 115.234,169.828 115.592,169.718 115.949,169.609 116.306,169.499 116.663,169.389 117.02,169.279 117.377,169.168 117.734,169.058 118.091,168.948 118.449,168.837 118.806,168.726 119.163,168.615 119.52,168.504 119.877,168.393 120.234,168.282 120.591,168.17 120.948,168.059 121.306,167.947 121.663,167.835 122.02,167.724 122.377,167.611 122.734,167.5 123.091,167.387 123.448,167.275 123.806,167.163 124.163,167.05 124.52,166.938 124.877,166.826 125.234,166.713 125.591,166.6 125.948,166.487 126.305,166.375 126.663,166.262 127.02,166.148 127.376,166.036 127.734,165.922 128.091,165.809 128.448,165.696 128.805,165.583 129.162,165.469 129.52,165.355 129.876,165.242 130.233,165.128 130.591,165.015 130.948,164.901 131.305,164.788 131.662,164.674 132.019,164.56 132.376,164.446 132.733,164.332 133.09,164.218 133.448,164.104 133.805,163.99 134.162,163.876 134.519,163.762 134.876,163.648 135.233,163.534 135.59,163.419 135.948,163.305 136.305,163.191 136.662,163.077 137.019,162.962 137.376,162.848 137.733,162.733 138.09,162.619 138.447,162.504 138.805,162.39 139.162,162.275 139.519,162.161 139.876,162.046 140.233,161.931 140.59,161.816 140.947,161.702 141.304,161.587 141.662,161.472 142.019,161.357 142.375,161.243 142.733,161.128 143.09,161.013 143.447,160.898 143.804,160.783 144.161,160.668 144.519,160.553 144.875,160.438 145.232,160.324 145.59,160.208 145.947,160.094 146.304,159.979 146.661,159.863 147.018,159.749 147.375,159.633 147.732,159.518 148.09,159.403 148.447,159.288 148.804,159.173 149.161,159.058 149.518,158.942 149.875,158.828 150.232,158.712 150.589,158.597 150.947,158.482 151.304,158.367 151.661,158.251 152.018,158.136 152.375,158.021 152.732,157.906 153.089,157.791 153.446,157.675 153.804,157.56 154.161,157.444 154.518,157.329 154.875,157.214 155.232,157.099 155.589,156.983 155.946,156.868 156.303,156.752 156.661,156.637 157.018,156.521 157.375,156.406 157.732,156.291 158.089,156.176 158.446,156.06 158.803,155.945 159.16,155.829 159.518,155.714 159.875,155.599 160.231,155.483 160.589,155.368 160.946,155.252 161.303,155.137 161.66,155.021 162.017,154.906 162.375,154.79 162.731,154.675 163.089,154.559 163.446,154.444 163.803,154.328 164.16,154.213 164.517,154.097 164.874,153.982 165.231,153.866 165.588,153.751 165.946,153.635 166.303,153.52 166.66,153.404 167.017,153.289 167.374,153.173 167.731,153.058 168.088,152.942 168.445,152.827 168.803,152.711 169.16,152.595 169.517,152.48 169.874,152.364 170.231,152.249 170.588,152.133 170.945,152.018 171.302,151.902 171.66,151.787 172.017,151.671 172.374,151.555 172.731,151.44 173.088,151.324 173.445,151.208 173.802,151.093 174.159,150.978 174.517,150.862 174.874,150.746 175.23,150.631 175.588,150.515 175.945,150.399 176.302,150.284 176.659,150.168 177.016,150.053 177.374,149.937 177.73,149.821 178.088,149.706 178.445,149.59 178.802,149.475 179.159,149.359 179.516,149.243 179.873,149.128 180.23,149.012 180.587,148.896 180.945,148.781 181.302,148.665 181.659,148.55 182.016,148.434 182.373,148.318 182.73,148.203 183.087,148.087 183.444,147.972 183.802,147.856 184.159,147.74 184.516,147.625 184.873,147.509 185.23,147.394 185.587,147.278 185.944,147.162 186.301,147.046 186.659,146.931 187.016,146.815 187.373,146.7 187.73,146.584 188.087,146.468 188.444,146.353 188.801,146.237 189.158,146.121 189.516,146.006 189.873,145.89 190.23,145.774 190.587,145.659 190.944,145.543 191.301,145.427 191.658,145.312 192.015,145.196 192.373,145.081 192.729,144.965 193.087,144.849 193.444,144.733 193.801,144.618 194.158,144.502 194.515,144.387 194.872,144.271 195.229,144.155 195.586,144.04 195.944,143.924 196.301,143.808 196.658,143.692 197.015,143.577 197.372,143.461 197.729,143.346 198.086,143.23 198.443,143.114 198.801,142.999 199.158,142.883 199.515,142.767 199.872,142.652 200.229,142.536 200.586,142.42 200.943,142.305 201.3,142.189 201.658,142.073 202.015,141.958 202.372,141.842 202.729,141.727 203.086,141.611 203.443,141.495 203.8,141.379 204.157,141.264 204.515,141.148 204.872,141.032 205.229,140.917 205.586,140.801 205.943,140.686 206.3,140.57 206.657,140.454 207.015,140.338 207.372,140.223 207.729,140.107 208.086,139.991 208.443,139.875 208.8,139.76 209.157,139.645 209.514,139.529 209.872,139.413 210.229,139.297 210.585,139.182 210.943,139.066 211.3,138.95 211.657,138.834 212.014,138.719 212.371,138.604 212.729,138.488 213.085,138.372 213.442,138.256 213.8,138.141 214.157,138.025 214.514,137.909 214.871,137.793 215.228,137.678 215.585,137.562 215.942,137.447 216.299,137.331 216.657,137.215 217.014,137.1 217.371,136.984 217.728,136.868 218.085,136.752 218.442,136.637 218.799,136.521 219.156,136.406 219.514,136.29 219.871,136.174 220.228,136.059 220.585,135.943 220.942,135.827 221.299,135.711 221.656,135.596 222.014,135.48 222.371,135.365 222.728,135.249 223.085,135.133 223.442,135.018 223.799,134.902 224.156,134.786 224.513,134.67 224.871,134.555 225.228,134.439 225.584,134.324 225.942,134.208 226.299,134.092 226.656,133.977 227.013,133.861 227.37,133.745 227.728,133.629 228.084,133.514 228.441,133.398 228.799,133.282 229.156,133.167 229.513,133.051 229.87,132.936 230.227,132.82 230.584,132.704 230.941,132.588 231.298,132.473 231.656,132.357 232.013,132.241 232.37,132.125 232.727,132.01 233.084,131.895 233.441,131.779 233.798,131.663 234.156,131.547 234.513,131.432 234.87,131.316 235.227,131.2 235.584,131.084 235.941,130.969 236.298,130.854 236.655,130.738 237.013,130.622 237.37,130.506 237.727,130.391 238.084,130.275 238.441,130.159 238.798,130.043 239.155,129.928 239.512,129.812 239.87,129.697 240.227,129.581 240.583,129.465 240.941,129.35 241.298,129.234 241.655,129.118 242.012,129.002 242.369,128.887 242.727,128.771 243.083,128.655 243.44,128.54 243.798,128.424 244.155,128.309 244.512,128.193 244.869,128.077 245.226,127.961 245.583,127.846 245.94,127.73 246.297,127.614 246.655,127.499 247.012,127.383 247.369,127.268 247.726,127.152 248.083,127.036 248.44,126.92 248.797,126.805 249.155,126.689 249.512,126.573 249.869,126.458 250.226,126.342 250.583,126.227 250.94,126.111 251.297,125.995 251.654,125.879 252.012,125.764 252.369,125.648 252.726,125.532 253.083,125.417 253.44,125.301 253.797,125.185 254.154,125.07 254.511,124.954 254.869,124.838 255.226,124.723 255.583,124.607 255.94,124.491 256.297,124.375 256.654,124.26 257.011,124.144 257.368,124.028 257.726,123.913 258.083,123.797 258.439,123.682 258.797,123.566 259.154,123.45 259.511,123.334 259.868,123.219 260.225,123.103 260.583,122.987 260.939,122.872 261.297,122.756 261.654,122.641 262.011,122.525 262.368,122.409 262.725,122.293 263.082,122.178 263.439,122.062 263.796,121.946 264.154,121.831 264.511,121.715 264.868,121.6 265.225,121.484 265.582,121.368 265.939,121.252 266.296,121.137 266.653,121.021 267.011,120.905 267.368,120.79 267.725,120.674 268.082,120.558 268.439,120.443 268.796,120.327 269.153,120.211 269.51,120.096 269.868,119.98 270.225,119.864 270.582,119.749 270.939,119.633 271.296,119.517 271.653,119.401 272.01,119.286 272.367,119.17 272.725,119.055 273.082,118.939 273.438,118.823 273.796,118.708 274.153,118.592 274.51,118.476 274.867,118.36 275.224,118.245 275.582,118.129 275.938,118.014 276.296,117.898 276.653,117.782 277.01,117.667 277.367,117.551 277.724,117.435 278.081,117.319 278.438,117.204 278.795,117.088 279.153,116.972 279.51,116.857 279.867,116.741 280.224,116.625 280.581,116.51 280.938,116.394 281.295,116.278 281.652,116.163 282.01,116.047 282.367,115.931 282.724,115.815 283.081,115.7 283.438,115.584 283.795,115.469 284.152,115.353 284.509,115.237 284.867,115.122 285.224,115.006 285.581,114.89 285.938,114.774 286.295,114.659 286.652,114.543 287.009,114.428 287.366,114.312 287.724,114.196 288.081,114.081 288.438,113.965 288.795,113.849 289.152,113.733 289.509,113.618 289.866,113.502 290.223,113.387 290.581,113.271 290.938,113.155 291.295,113.04 291.652,112.924 292.009,112.808 292.366,112.692 292.723,112.577 293.08,112.461 293.438,112.345 293.794,112.23 294.152,112.114 294.509,111.999 294.866,111.883 295.223,111.767 295.58,111.651 295.938,111.536 296.294,111.42 296.651,111.304 297.009,111.188 297.366,111.073 297.723,110.958 298.08,110.842 298.437,110.726 298.794,110.61 299.151,110.495 299.508,110.379 299.866,110.263 300.223,110.147 300.58,110.032 300.937,109.917 301.294,109.801 301.651,109.685 302.008,109.569 302.365,109.454 302.723,109.338 303.08,109.222 303.437,109.106 303.794,108.991 304.151,108.875 304.508,108.759 304.865,108.644 305.222,108.528 305.58,108.413 305.937,108.297 306.294,108.181 306.651,108.065 307.008,107.95 307.365,107.834 307.722,107.718 308.08,107.603 308.437,107.487 308.793,107.372 309.151,107.256 309.508,107.14 309.865,107.024 310.222,106.909 310.579,106.793 310.937,106.677 311.293,106.562 311.65,106.446 312.008,106.331 312.365,106.215 312.722,106.099 313.079,105.983 313.436,105.868 313.793,105.752 314.15,105.636 314.507,105.521 314.865,105.405 315.222,105.289 315.579,105.174 315.936,105.058 316.293,104.942 316.65,104.827 317.007,104.711 317.364,104.595 317.722,104.479 318.079,104.364 318.436,104.248 318.793,104.132 319.15,104.017 319.507,103.901 319.864,103.786 320.221,103.67 320.579,103.554 320.936,103.438 321.293,103.323 321.65,103.207 322.007,103.091 322.364,102.976 322.721,102.86 323.079,102.745 323.436,102.629 323.792,102.513 324.15,102.397 324.507,102.282 324.864,102.166 325.221,102.05 325.578,101.935 325.936,101.819 326.292,101.704 326.649,101.588 327.007,101.472 327.364,101.356 327.721,101.241 328.078,101.125 328.435,101.009 328.792,100.894 329.149,100.778 329.506,100.662 329.864,100.547 330.221,100.431 330.578,100.315 330.935,100.2 331.292,100.084 331.649,99.9683 332.006,99.8525 332.364,99.7368 332.721,99.6211 333.078,99.5054 333.435,99.3896 333.792,99.2744 334.149,99.1587 334.506,99.043 334.863,98.9272 335.221,98.8115 335.578,98.6958 335.935,98.5801 336.292,98.4644 336.649,98.3486 337.006,98.2329 337.363,98.1177 337.72,98.002 338.078,97.8862 338.435,97.7705 338.792,97.6548 339.149,97.5391 339.506,97.4233 339.863,97.3076 340.22,97.1919 340.577,97.0762 340.935,96.9609 341.292,96.8452 341.648,96.7295 342.006,96.6138 342.363,96.498 342.72,96.3823 343.077,96.2666 343.434,96.1509 343.792,96.0352 344.148,95.9194 344.505,95.8042 344.863,95.6885 345.22,95.5728 345.577,95.457 345.934,95.3413 346.291,95.2256 346.648,95.1099 347.005,94.9941 347.363,94.8784 347.72,94.7627 348.077,94.6475 348.434,94.5317 348.791,94.416 349.148,94.3003 349.505,94.1846 349.862,94.0688 350.22,93.9531 350.577,93.8374 350.934,93.7217 351.291,93.606 351.648,93.4907 352.005,93.375 352.362,93.2593 352.719,93.1436 353.077,93.0278 353.434,92.9121 353.791,92.7964 354.148,92.6807 354.505,92.5649 354.862,92.4492 355.219,92.334 355.576,92.2183 355.934,92.1025 356.291,91.9868 356.647,91.8711 357.005,91.7554 357.362,91.6396 357.719,91.5239 358.076,91.4082 358.433,91.2925 358.791,91.1772 359.147,91.0615 359.505,90.9458 359.862,90.8301 360.219,90.7144 360.576,90.5986 360.933,90.4829 361.29,90.3672 361.647,90.2515 362.004,90.1357 362.362,90.02 362.719,89.9048 363.076,89.7891 363.433,89.6733 363.79,89.5576 364.147,89.4419 364.504,89.3262 364.861,89.2104 365.219,89.0947 365.576,88.979 365.933,88.8633 366.29,88.748 366.647,88.6323 367.004,88.5166 367.361,88.4009 367.718,88.2852 368.076,88.1694 368.433,88.0537 368.79,87.938 369.147,87.8223 369.504,87.7065 369.861,87.5913 370.218,87.4756 370.575,87.3599 370.933,87.2441 371.29,87.1284 371.646,87.0127 372.004,86.897 372.361,86.7812 372.718,86.6655 373.075,86.5498 373.432,86.4346 373.79,86.3188 374.146,86.2031 374.504,86.0874 374.861,85.9717 375.218,85.856 375.575,85.7402 375.932,85.6245 376.289,85.5088 376.646,85.3931 377.003,85.2778 377.361,85.1621 377.718,85.0464 378.075,84.9307 378.432,84.8149 378.789,84.6992 379.146,84.5835 379.503,84.4678 379.86,84.3521 380.218,84.2363 380.575,84.1211 380.932,84.0054 381.289,83.8896 381.646,83.7739 382.003,83.6582 382.36,83.5425 382.717,83.4268 383.075,83.311 383.432,83.1953 383.789,83.0796 384.146,82.9644 384.503,82.8486 384.86,82.7329 385.217,82.6172 385.574,82.5015 385.932,82.3857 386.289,82.27 386.646,82.1543 387.003,82.0386 387.36,81.9229 387.717,81.8071 388.074,81.6919 388.431,81.5762 388.789,81.4604 389.146,81.3447 389.503,81.229 389.86,81.1133 390.217,80.9976 390.574,80.8818 390.931,80.7661 391.288,80.6504 391.646,80.5352 392.002,80.4194 392.36,80.3037 392.717,80.188 393.074,80.0723 393.431,79.9565 393.788,79.8408 394.146,79.7251 394.502,79.6094 394.859,79.4937 395.217,79.3784 395.574,79.2627 395.931,79.147 396.288,79.0312 396.645,78.9155 397.002,78.7998 397.359,78.6841 397.716,78.5684 398.074,78.4526 398.431,78.3369 398.788,78.2217 399.145,78.106 399.502,77.9902 399.859,77.8745 400.216,77.7588 400.573,77.6431 400.931,77.5273 401.288,77.4116 401.645,77.2959 402.002,77.1802 402.359,77.0649 402.716,76.9492 403.073,76.8335 403.43,76.7178 403.788,76.6021 404.145,76.4863 404.502,76.3706 404.859,76.2549 405.216,76.1392 405.573,76.0234 405.93,75.9082 406.287,75.7925 406.645,75.6768 407.001,75.561 407.359,75.4453 407.716,75.3296 408.073,75.2139 408.43,75.0981 408.787,74.9824 409.145,74.8667 409.501,74.7515 409.858,74.6357 410.216,74.52 410.573,74.4043 410.93,74.2886 411.287,74.1729 411.644,74.0571 412.001,73.9414 412.358,73.8257 412.715,73.71 413.073,73.5947 413.43,73.479 413.787,73.3633 414.144,73.2476 414.501,73.1318 414.858,73.0161 415.215,72.9004 415.572,72.7847 415.93,72.6689 416.287,72.5532 416.644,72.438 417.001,72.3223 417.358,72.2065 417.715,72.0908 418.072,71.9751 418.43,71.8594 418.787,71.7437 419.144,71.6279 419.501,71.5122 419.858,71.3965 420.215,71.2808 420.572,71.1655 420.929,71.0498 421.287,70.9341 421.644,70.8184 422,70.7026 422.358,70.5869 422.715,70.4712 423.072,70.3555 423.429,70.2397 423.786,70.1245 424.144,70.0088 424.5,69.8931 424.857,69.7773 425.215,69.6616 425.572,69.5459 425.929,69.4302 426.286,69.3145 426.643,69.1987 427,69.083 427.357,68.9673 427.714,68.8521 428.072,68.7363 428.429,68.6206 428.786,68.5049 429.143,68.3892 429.5,68.2734 429.857,68.1577 430.214,68.042 430.571,67.9263 430.929,67.8105 431.286,67.6953 431.643,67.5796 432,67.4639 432.357,67.3481 432.714,67.2344 433.071,67.1235 433.429,67.0161 433.786,66.9106 434.143,66.8081 434.5,66.7085 434.857,66.6113 435.214,66.5166 435.571,66.4243 435.928,66.3345 436.286,66.2471 436.643,66.1616 437,66.0786 437.357,65.9976 437.714,65.9185 438.071,65.8418 438.428,65.7666 438.785,65.6938 439.143,65.6226 439.5,65.5532 439.856,65.4858 440.214,65.4199 440.571,65.356 440.928,65.2935 441.285,65.2329 441.642,65.1733 442,65.1157 442.356,65.0596 442.713,65.0049 443.071,64.9512 443.428,64.8994 443.785,64.8486 444.142,64.7993 444.499,64.751 444.856,64.7041 445.213,64.6587 445.57,64.6143 445.928,64.5708 446.285,64.5283 446.642,64.4873 446.999,64.4473 447.356,64.4082 447.713,64.3701 448.07,64.333 448.428,64.2969 448.785,64.2617 449.142,64.2275 449.499,64.1943 449.856,64.1616 450.213,64.1299 450.57,64.0991 450.927,64.0688 451.285,64.0396 451.642,64.0107 451.999,63.9829 452.356,63.9561 452.713,63.9297 453.07,63.9038 453.427,63.8789 453.784,63.854 454.142,63.8306 454.499,63.8071 454.855,63.7847 455.213,63.7627 455.57,63.7412 455.927,63.7202 456.284,63.6997 456.641,63.6802 456.999,63.6606 457.355,63.6421 457.713,63.6235 458.07,63.6055 458.427,63.5884 458.784,63.5713 459.141,63.5547 459.498,63.5386 459.855,63.5229 460.212,63.5078 460.57,63.4927 460.927,63.478 461.284,63.4639 461.641,63.4502 461.998,63.437 462.355,63.4238 462.712,63.4111 463.069,63.3984 463.427,63.3867 463.784,63.3745 464.141,63.3633 464.498,63.3521 464.855,63.3413 465.212,63.3306 465.569,63.3203 465.926,63.3101 466.284,63.3003 466.641,63.2905 466.998,63.2812 467.355,63.2725 467.712,63.2637 468.069,63.2549 468.426,63.2466 468.783,63.2383 469.141,63.2305 469.498,63.2227 469.854,63.2148 470.212,63.2075 470.569,63.2002 470.926,63.1934 471.283,63.1865 471.64,63.1802 471.998,63.1733 472.354,63.167 472.711,63.1611 473.069,63.1548 473.426,63.1494 473.783,63.1436 474.14,63.1382 474.497,63.1323 474.854,63.1274 475.211,63.1221 475.569,63.1172 475.926,63.1123 476.283,63.1074 476.64,63.103 476.997,63.0986 477.354,63.0942 477.711,63.0898 478.068,63.0854 478.426,63.0815 478.783,63.0776 479.14,63.0737 479.497,63.0703 479.854,63.0664 480.211,63.063 480.568,63.0596 480.925,63.0562 481.283,63.0527 481.64,63.0493 481.997,63.0464 482.354,63.0435 482.711,63.0405 483.068,63.0376 483.425,63.0347 483.782,63.0322 484.14,63.0293 484.497,63.0269 484.854,63.0244 485.211,63.0215 485.568,63.0195 485.925,63.0171 486.282,63.0146 486.639,63.0127 486.997,63.0103 487.354,63.0083 487.711,63.0063 488.068,63.0039 488.425,63.002 488.782,63.0005 489.139,62.9985 489.496,62.9966 489.854,62.9946 490.21,62.9932 490.568,62.9917 490.925,62.9897 491.282,62.9883 491.639,62.9868 491.996,62.9854 492.354,62.9839 492.71,62.9824 493.067,62.981 493.425,62.9795 493.782,62.978 494.139,62.9771 494.496,62.9756 494.853,62.9746 495.21,62.9731 495.567,62.9722 495.924,62.9712 496.282,62.9697 496.639,62.9688 496.996,62.9678 497.353,62.9668 497.71,62.9658 498.067,62.9648 498.424,62.9639 498.781,62.9629 499.139,62.9619 499.496,62.9609 499.853,62.9604 500.21,62.9595 500.567,62.9585 500.924,62.958 501.281,62.957 501.639,62.9565 501.996,62.9556 502.353,62.9551 502.71,62.9541 503.067,62.9536 503.424,62.9531 503.781,62.9521 504.138,62.9517 504.495,62.9512 504.853,62.9507 505.209,62.9497 505.567,62.9492 505.924,62.9487 506.281,62.9482 506.638,62.9478 506.995,62.9473 507.353,62.9468 507.709,62.9463 508.066,62.9458 508.424,62.9453 508.781,62.9448 509.138,62.9443 509.495,62.9438 509.852,62.9438 510.209,62.9434 510.566,62.9429 510.923,62.9424 511.281,62.9419 511.638,62.9419 511.995,62.9414 512.352,62.9409 512.709,62.9409 513.066,62.9404 513.423,62.9399 513.78,62.9399 514.138,62.9395 514.495,62.939 514.852,62.939 515.209,62.9385 515.566,62.9385 515.923,62.938 516.28,62.938 516.637,62.9375 516.995,62.9375 517.352,62.937 517.709,62.937 518.066,62.9365 518.423,62.9365 518.78,62.936 519.137,62.936 519.495,62.936 519.852,62.9355 520.208,62.9355 520.566,62.9351 520.923,62.9351 521.28,62.9351"/>
<polyline fill="none" stroke="#000000" stroke-width="0.5" stroke-dasharray="16,0" points="74.8799,384.48 521.28,384.48"/>
<polyline fill="none" stroke="#000000" stroke-width="0.5" stroke-dasharray="16,0" points="74.8799,253.04 521.28,253.04"/>
<polyline fill="none" stroke="#0000ff" stroke-width="0.5" stroke-dasharray="16,0" points="74.8799,384.48 74.8799,253.04"/>
<polyline fill="none" stroke="#000000" stroke-width="0.5" stroke-dasharray="16,0" points="74.8799,384.48 74.8799,380.001"/>
<polyline fill="none" stroke="#000000" stroke-width="0.5" stroke-dasharray="16,0" points="74.8799,253.04 74.8799,257.519"/>
<polyline fill="none" stroke="#000000" stroke-width="0.5" stroke-dasharray="16,0" points="146.361,384.48 146.361,380.001"/>
<polyline fill="none" stroke="#000000" stroke-width="0.5" stroke-dasharray="16,0" points="146.361,253.04 146.361,257.519"/>
<polyline fill="none" stroke="#000000" stroke-width="0.5" stroke-dasharray="16,0" points="217.842,384.48 217.842,380.001"/>
<polyline fill="none" stroke="#000000" stroke-width="0.5" stroke-dasharray="16,0" points="217.842,253.04 217.842,257.519"/>
<polyline fill="none" stroke="#000000" stroke-width="0.5" stroke-dasharray="16,0" points="289.324,384.48 289.324,380.001"/>
<polyline fill="none" stroke="#000000" stroke-width="0.5" stroke-dasharray="16,0" points="289.324,253.04 289.324,257.519"/>
<polyline fill="none" stroke="#000000" stroke-width="0.5" stroke-dasharray="16,0" points="360.805,384.48 360.805,380.001"/>
<polyline fill="none" stroke="#000000" stroke-width="0.5" stroke-dasharray="16,0" points="360.805,253.04 360.805,257.519"/>
<polyline fill="none" stroke="#000000" stroke-width="0.5" stroke-dasharray="16,0" points="432.286,384.48 432.286,380.001"/>
<polyline fill="none" stroke="#000000" stroke-width="0.5" stroke-dasharray="16,0" points="432.286,253.04 432.286,257.519"/>
<polyline fill="none" stroke="#000000" stroke-width="0.5" stroke-dasharray="16,0" points="503.767,384.48 503.767,380.001"/>
<polyline fill="none" stroke="#000000" stroke-width="0.5" stroke-dasharray="16,0" points="503.767,253.04 503.767,257.519"/>
<text fill="#000000" x="74.8799" y="389.497" font-size="10" text-anchor="middle" baseline-shift="-10" font-family="Helvetica">0</text>
<text fill="#000000" x="146.361" y="389.497" font-size="10" text-anchor="middle" baseline-shift="-10" font-family="Helvetica">0.2</text>
<text fill="#000000" x="217.842" y="389.497" font-size="10" text-anchor="middle" baseline-shift="-10" font-family="Helvetica">0.4</text>
<text fill="#000000" x="289.324" y="389.497" font-size="10" text-anchor="middle" baseline-shift="-10" font-family="Helvetica">0.6</text>
<text fill="#000000" x="360.805" y="389.497" font-size="10" text-anchor="middle" baseline-shift="-10" font-family="Helvetica">0.8</text>
<text fill="#000000" x="432.286" y="389.497" font-size="10" text-anchor="middle" baseline-shift="-10" font-family="Helvetica">1</text>
<text fill="#000000" x="503.767" y="389.497" font-size="10" text-anchor="middle" baseline-shift="-10" font-family="Helvetica">1.2</text>
<polyline fill="none" stroke="#0000ff" stroke-width="0.5" stroke-dasharray="16,0" points="74.8799,384.48 79.3481,384.48"/>
<polyline fill="none" stroke="#0000ff" stroke-width="0.5" stroke-dasharray="16,0" points="74.8799,362.573 79.3481,362.573"/>
<polyline fill="none" stroke="#0000ff" stroke-width="0.5" stroke-dasharray="16,0" points="74.8799,340.667 79.3481,340.667"/>
<polyline fill="none" stroke="#0000ff" stroke-width="0.5" stroke-dasharray="16,0" points="74.8799,318.76 79.3481,318.76"/>
<polyline fill="none" stroke="#0000ff" stroke-width="0.5" stroke-dasharray="16,0" points="74.8799,296.854 79.3481,296.854"/>
<polyline fill="none" stroke="#0000ff" stroke-width="0.5" stroke-dasharray="16,0" points="74.8799,274.947 79.3481,274.947"/>
<polyline fill="none" stroke="#0000ff" stroke-width="0.5" stroke-dasharray="16,0" points="74.8799,253.04 79.3481,253.04"/>
<text fill="#0000ff" x="69.8755" y="384.48" font-size="10" text-anchor="end" baseline-shift="-5" font-family="Helvetica">0</text>
<text fill="#0000ff" x="69.8755" y="362.573" font-size="10" text-anchor="end" baseline-shift="-5" font-family="Helvetica">20</text>
<text fill="#0000ff" x="69.8755" y="340.667" font-size="10" text-anchor="end" baseline-shift="-5" font-family="Helvetica">40</text>
<text fill="#0000ff" x="69.8755" y="318.76" font-size="10" text-anchor="end" baseline-shift="-5" font-family="Helvetica">60</text>
<text fill="#0000ff" x="69.8755" y="296.854" font-size="10" text-anchor="end" baseline-shift="-5" font-family="Helvetica">80</text>
<text fill="#0000ff" x="69.8755" y="274.947" font-size="10" text-anchor="end" baseline-shift="-5" font-family="Helvetica">100</text>
<text fill="#0000ff" x="69.8755" y="253.04" font-size="10" text-anchor="end" baseline-shift="-5" font-family="Helvetica">120</text>
<text fill="#000000" x="298.08" y="402.497" font-size="10" text-anchor="middle" baseline-shift="-10" font-family="Helvetica">Time (sec)</text>
<text fill="#0000ff" x="47.8755" y="318.76" font-size="10" transform="rotate(-90, 47.8755, 318.76)" text-anchor="middle" baseline-shift="0" font-family="Helvetica">Motor-A Angular Velocity (rad/s)</text>
<polyline fill="none" stroke="#0000ff" stroke-width="0.5" points="74.8799,384.48 75.2373,382.344 75.5947,379.373 75.9521,376.439 76.3096,373.579 76.667,370.792 77.0244,368.077 77.3818,365.432 77.7393,362.854 78.0967,360.344 78.4541,357.897 78.8115,355.514 79.1689,353.191 79.5264,350.929 79.8838,348.725 80.2412,346.577 80.5986,344.485 80.9561,342.446 81.3135,340.46 81.6709,338.524 82.0283,336.639 82.3857,334.802 82.7432,333.013 83.1001,331.269 83.4575,329.57 83.8149,327.915 84.1724,326.302 84.5298,324.731 84.8872,323.201 85.2446,321.709 85.6021,320.256 85.9595,318.84 86.3169,317.461 86.6743,316.117 87.0317,314.808 87.3892,313.532 87.7466,312.29 88.104,311.079 88.4614,309.899 88.8188,308.75 89.1763,307.63 89.5337,306.539 89.8911,305.476 90.2485,304.44 90.606,303.431 90.9634,302.448 91.3208,301.49 91.6782,300.557 92.0356,299.648 92.3931,298.762 92.7505,297.899 93.1079,297.058 93.4653,296.239 93.8223,295.441 94.1797,294.663 94.5371,293.906 94.8945,293.167 95.252,292.448 95.6094,291.748 95.9668,291.065 96.3242,290.4 96.6816,289.752 97.0391,289.121 97.3965,288.505 97.7539,287.906 98.1113,287.322 98.4688,286.753 98.8262,286.199 99.1836,285.659 99.541,285.133 99.8984,284.62 100.256,284.121 100.613,283.634 100.971,283.16 101.328,282.698 101.686,282.249 102.043,281.81 102.4,281.383 102.758,280.967 103.115,280.561 103.473,280.166 103.83,279.781 104.188,279.406 104.545,279.041 104.902,278.685 105.259,278.338 105.617,278 105.974,277.671 106.332,277.35 106.689,277.038 107.046,276.733 107.404,276.437 107.761,276.147 108.119,275.866 108.476,275.592 108.833,275.325 109.191,275.064 109.548,274.811 109.906,274.563 110.263,274.322 110.621,274.088 110.978,273.859 111.335,273.636 111.693,273.419 112.05,273.208 112.408,273.002 112.765,272.801 113.123,272.606 113.48,272.416 113.837,272.229 114.195,272.049 114.552,271.873 114.91,271.701 115.267,271.534 115.624,271.371 115.981,271.212 116.339,271.058 116.696,270.907 117.054,270.76 117.411,270.617 117.769,270.478 118.126,270.342 118.483,270.209 118.841,270.081 119.198,269.955 119.556,269.833 119.913,269.713 120.271,269.597 120.628,269.484 120.985,269.374 121.343,269.267 121.7,269.162 122.058,269.06 122.415,268.96 122.772,268.864 123.13,268.77 123.487,268.678 123.845,268.588 124.202,268.501 124.56,268.416 124.917,268.333 125.274,268.252 125.632,268.174 125.989,268.098 126.347,268.023 126.704,267.95 127.061,267.879 127.418,267.811 127.776,267.743 128.133,267.678 128.491,267.614 128.848,267.552 129.206,267.491 129.563,267.432 129.92,267.375 130.278,267.319 130.635,267.264 130.993,267.211 131.35,267.159 131.708,267.109 132.065,267.06 132.422,267.012 132.78,266.965 133.137,266.92 133.495,266.875 133.852,266.832 134.209,266.79 134.567,266.749 134.924,266.709 135.282,266.67 135.639,266.632 135.997,266.596 136.354,266.56 136.711,266.524 137.069,266.49 137.426,266.457 137.783,266.425 138.141,266.393 138.498,266.362 138.855,266.333 139.213,266.303 139.57,266.275 139.928,266.247 140.285,266.22 140.643,266.194 141,266.168 141.357,266.143 141.715,266.119 142.072,266.095 142.43,266.072 142.787,266.049 143.145,266.028 143.502,266.006 143.859,265.985 144.217,265.965 144.574,265.945 144.932,265.926 145.289,265.907 145.646,265.889 146.004,265.872 146.361,265.854 146.719,265.837 147.076,265.821 147.434,265.805 147.791,265.789 148.148,265.774 148.506,265.759 148.863,265.745 149.22,265.73 149.578,265.717 149.935,265.703 150.292,265.69 150.65,265.678 151.007,265.665 151.365,265.653 151.722,265.642 152.08,265.63 152.437,265.619 152.794,265.608 153.152,265.598 153.509,265.587 153.867,265.577 154.224,265.567 154.582,265.558 154.939,265.548 155.296,265.54 155.654,265.531 156.011,265.522 156.369,265.514 156.726,265.505 157.083,265.498 157.441,265.49 157.798,265.482 158.156,265.475 158.513,265.468 158.871,265.461 159.228,265.454 159.585,265.447 159.942,265.441 160.3,265.435 160.657,265.429 161.015,265.423 161.372,265.417 161.729,265.411 162.087,265.406 162.444,265.4 162.802,265.395 163.159,265.39 163.517,265.385 163.874,265.38 164.231,265.375 164.589,265.371 164.946,265.366 165.304,265.362 165.661,265.358 166.019,265.354 166.376,265.35 166.733,265.346 167.091,265.342 167.448,265.338 167.806,265.334 168.163,265.331 168.521,265.328 168.878,265.324 169.235,265.321 169.593,265.318 169.95,265.314 170.308,265.312 170.665,265.309 171.022,265.306 171.379,265.303 171.737,265.3 172.094,265.297 172.452,265.295 172.809,265.292 173.167,265.29 173.524,265.288 173.881,265.285 174.239,265.283 174.596,265.281 174.954,265.279 175.311,265.276 175.668,265.274 176.026,265.272 176.383,265.271 176.741,265.269 177.098,265.267 177.456,265.265 177.813,265.263 178.17,265.262 178.528,265.26 178.885,265.258 179.243,265.257 179.6,265.255 179.958,265.253 180.315,265.252 180.672,265.251 181.03,265.25 181.387,265.248 181.744,265.247 182.102,265.246 182.459,265.244 182.816,265.243 183.174,265.242 183.531,265.241 183.889,265.239 184.246,265.238 184.604,265.237 184.961,265.236 185.318,265.235 185.676,265.234 186.033,265.233 186.391,265.232 186.748,265.231 187.105,265.23 187.463,265.229 187.82,265.229 188.178,265.228 188.535,265.227 188.893,265.227 189.25,265.226 189.607,265.225 189.965,265.224 190.322,265.224 190.68,265.223 191.037,265.222 191.395,265.222 191.752,265.221 192.109,265.22 192.466,265.22 192.824,265.219 193.181,265.218 193.539,265.218 193.896,265.217 194.253,265.217 194.611,265.216 194.968,265.216 195.326,265.215 195.683,265.215 196.041,265.214 196.398,265.214 196.755,265.213 197.113,265.213 197.47,265.213 197.828,265.212 198.185,265.212 198.542,265.211 198.9,265.211 199.257,265.211 199.615,265.21 199.972,265.21 200.33,265.209 200.687,265.209 201.044,265.209 201.402,265.208 201.759,265.208 202.117,265.208 202.474,265.208 202.832,265.208 203.188,265.207 203.546,265.207 203.903,265.207 204.261,265.207 204.618,265.206 204.976,265.206 205.333,265.206 205.69,265.206 206.048,265.205 206.405,265.205 206.763,265.205 207.12,265.205 207.478,265.205 207.835,265.204 208.192,265.204 208.55,265.204 208.907,265.204 209.265,265.204 209.622,265.204 209.979,265.203 210.337,265.203 210.694,265.203 211.052,265.203 211.409,265.203 211.767,265.203 212.124,265.202 212.481,265.202 212.839,265.202 213.196,265.202 213.554,265.202 213.911,265.202 214.268,265.202 214.625,265.201 214.983,265.201 215.34,265.201 215.698,265.201 216.055,265.201 216.413,265.201 216.77,265.201 217.127,265.201 217.485,265.201 217.842,265.2 218.2,265.2 218.557,265.2 218.915,265.2 219.272,265.2 219.629,265.2 219.987,265.2 220.344,265.2 220.702,265.2 221.059,265.2 221.417,265.2 221.774,265.2 222.131,265.199 222.489,265.199 222.846,265.199 223.204,265.199 223.561,265.199 223.918,265.199 224.276,265.199 224.633,265.199 224.99,265.199 225.348,265.199 225.705,265.199 226.062,265.199 226.42,265.199 226.777,265.199 227.135,265.199 227.492,265.199 227.85,265.199 228.207,265.199 228.564,265.198 228.922,265.198 229.279,265.198 229.637,265.198 229.994,265.198 230.352,265.198 230.709,265.198 231.066,265.198 231.424,265.198 231.781,265.198 232.139,265.198 232.496,265.198 232.854,265.198 233.211,265.198 233.568,265.198 233.926,265.198 234.283,265.198 234.641,265.198 234.998,265.198 235.355,265.198 235.713,265.198 236.07,265.198 236.427,265.198 236.785,265.198 237.142,265.198 237.5,265.198 237.857,265.198 238.214,265.198 238.572,265.198 238.929,265.198 239.287,265.198 239.644,265.198 240.001,265.198 240.359,265.198 240.716,265.197 241.074,265.197 241.431,265.197 241.789,265.197 242.146,265.197 242.503,265.197 242.861,265.197 243.218,265.197 243.576,265.197 243.933,265.197 244.291,265.197 244.648,265.197 245.005,265.197 245.363,265.197 245.72,265.197 246.078,265.197 246.435,265.197 246.792,265.197 247.149,265.197 247.507,265.197 247.864,265.197 248.222,265.197 248.579,265.197 248.937,265.197 249.294,265.197 249.651,265.197 250.009,265.197 250.366,265.197 250.724,265.197 251.081,265.197 251.438,265.197 251.796,265.197 252.153,265.197 252.511,265.197 252.868,265.197 253.226,265.197 253.583,265.197 253.94,265.197 254.298,265.197 254.655,265.197 255.013,265.197 255.37,265.197 255.728,265.197 256.085,265.197 256.442,265.197 256.8,265.197 257.157,265.197 257.515,265.197 257.872,265.197 258.229,265.197 258.586,265.197 258.944,265.197 259.301,265.197 259.659,265.197 260.016,265.197 260.374,265.197 260.731,265.197 261.088,265.197 261.446,265.197 261.803,265.197 262.161,265.197 262.518,265.197 262.875,265.197 263.233,265.197 263.59,265.197 263.948,265.197 264.305,265.197 264.663,265.197 265.02,265.197 265.377,265.197 265.735,265.197 266.092,265.197 266.45,265.197 266.807,265.197 267.165,265.197 267.522,265.197 267.879,265.197 268.237,265.197 268.594,265.197 268.951,265.197 269.309,265.197 269.666,265.197 270.023,265.197 270.381,265.197 270.738,265.197 271.096,265.197 271.453,265.197 271.811,265.197 272.168,265.197 272.525,265.197 272.883,265.197 273.24,265.197 273.598,265.197 273.955,265.197 274.312,265.197 274.67,265.197 275.027,265.197 275.385,265.197 275.742,265.197 276.1,265.197 276.457,265.197 276.814,265.197 277.172,265.197 277.529,265.197 277.887,265.197 278.244,265.197 278.602,265.197 278.959,265.197 279.316,265.197 279.674,265.197 280.031,265.197 280.388,265.197 280.746,265.197 281.103,265.197 281.46,265.197 281.818,265.197 282.175,265.197 282.533,265.197 282.89,265.197 283.248,265.197 283.605,265.197 283.962,265.197 284.32,265.197 284.677,265.197 285.035,265.197 285.392,265.197 285.75,265.197 286.107,265.197 286.464,265.197 286.822,265.197 287.179,265.197 287.537,265.197 287.894,265.197 288.251,265.197 288.609,265.197 288.966,265.197 289.324,265.197 289.681,265.197 290.039,265.197 290.396,265.197 290.753,265.197 291.11,265.197 291.468,265.197 291.825,265.197 292.183,265.197 292.54,265.197 292.897,265.197 293.255,265.197 293.612,265.197 293.97,265.197 294.327,265.197 294.685,265.197 295.042,265.197 295.399,265.197 295.757,265.197 296.114,265.197 296.472,265.197 296.829,265.197 297.187,265.197 297.544,265.197 297.901,265.197 298.259,265.197 298.616,265.197 298.974,265.197 299.331,265.197 299.688,265.197 300.046,265.197 300.403,265.197 300.761,265.197 301.118,265.197 301.476,265.197 301.833,265.197 302.19,265.197 302.547,265.197 302.905,265.197 303.262,265.197 303.62,265.197 303.977,265.197 304.334,265.197 304.692,265.197 305.049,265.197 305.407,265.197 305.764,265.197 306.122,265.197 306.479,265.197 306.836,265.197 307.194,265.197 307.551,265.197 307.909,265.197 308.266,265.197 308.624,265.197 308.981,265.197 309.338,265.197 309.696,265.197 310.053,265.197 310.411,265.197 310.768,265.197 311.125,265.197 311.483,265.197 311.84,265.197 312.198,265.197 312.555,265.197 312.912,265.197 313.27,265.197 313.627,265.197 313.984,265.197 314.342,265.197 314.699,265.197 315.057,265.197 315.414,265.197 315.771,265.197 316.129,265.197 316.486,265.197 316.844,265.197 317.201,265.197 317.559,265.197 317.916,265.197 318.273,265.197 318.631,265.197 318.988,265.197 319.346,265.197 319.703,265.197 320.061,265.197 320.418,265.197 320.775,265.197 321.133,265.197 321.49,265.197 321.848,265.197 322.205,265.197 322.562,265.197 322.92,265.197 323.277,265.197 323.634,265.197 323.992,265.197 324.349,265.197 324.707,265.197 325.064,265.197 325.421,265.197 325.779,265.197 326.136,265.197 326.494,265.197 326.851,265.197 327.208,265.197 327.566,265.197 327.923,265.197 328.281,265.197 328.638,265.197 328.996,265.197 329.353,265.197 329.71,265.197 330.068,265.197 330.425,265.197 330.783,265.197 331.14,265.197 331.498,265.197 331.855,265.197 332.212,265.197 332.57,265.197 332.927,265.197 333.285,265.197 333.642,265.197 334,265.197 334.357,265.197 334.714,265.197 335.071,265.197 335.429,265.197 335.786,265.197 336.144,265.197 336.501,265.197 336.858,265.197 337.216,265.197 337.573,265.197 337.931,265.197 338.288,265.197 338.646,265.197 339.003,265.197 339.36,265.197 339.718,265.197 340.075,265.197 340.433,265.197 340.79,265.197 341.147,265.197 341.505,265.197 341.862,265.197 342.22,265.197 342.577,265.197 342.935,265.197 343.292,265.197 343.649,265.197 344.007,265.197 344.364,265.197 344.722,265.197 345.079,265.197 345.437,265.197 345.794,265.197 346.151,265.197 346.508,265.197 346.866,265.197 347.223,265.197 347.581,265.197 347.938,265.197 348.295,265.197 348.653,265.197 349.01,265.197 349.368,265.197 349.725,265.197 350.083,265.197 350.44,265.197 350.797,265.197 351.155,265.197 351.512,265.197 351.87,265.197 352.227,265.197 352.584,265.197 352.942,265.197 353.299,265.197 353.657,265.197 354.014,265.197 354.372,265.197 354.729,265.197 355.086,265.197 355.444,265.197 355.801,265.197 356.159,265.197 356.516,265.197 356.873,265.197 357.23,265.197 357.588,265.197 357.945,265.197 358.303,265.197 358.66,265.197 359.018,265.197 359.375,265.197 359.732,265.197 360.09,265.197 360.447,265.197 360.805,265.197 361.162,265.197 361.52,265.197 361.877,265.197 362.234,265.197 362.592,265.197 362.949,265.197 363.307,265.197 363.664,265.197 364.021,265.197 364.379,265.197 364.736,265.197 365.094,265.197 365.451,265.197 365.809,265.197 366.166,265.197 366.523,265.197 366.881,265.197 367.238,265.197 367.595,265.197 367.953,265.197 368.31,265.197 368.667,265.197 369.025,265.197 369.382,265.197 369.74,265.197 370.097,265.197 370.455,265.197 370.812,265.197 371.169,265.197 371.527,265.197 371.884,265.197 372.242,265.197 372.599,265.197 372.957,265.197 373.314,265.197 373.671,265.197 374.029,265.197 374.386,265.197 374.744,265.197 375.101,265.197 375.458,265.197 375.816,265.197 376.173,265.197 376.531,265.197 376.888,265.197 377.246,265.197 377.603,265.197 377.96,265.197 378.317,265.197 378.675,265.197 379.032,265.197 379.39,265.197 379.747,265.197 380.104,265.197 380.462,265.197 380.819,265.197 381.177,265.197 381.534,265.197 381.892,265.197 382.249,265.197 382.606,265.197 382.964,265.197 383.321,265.197 383.679,265.197 384.036,265.197 384.394,265.197 384.751,265.197 385.108,265.197 385.466,265.197 385.823,265.197 386.181,265.197 386.538,265.197 386.896,265.197 387.253,265.197 387.61,265.197 387.968,265.197 388.325,265.197 388.683,265.197 389.04,265.197 389.397,265.197 389.754,265.197 390.112,265.197 390.469,265.197 390.827,265.197 391.184,265.197 391.542,265.197 391.899,265.197 392.256,265.197 392.614,265.197 392.971,265.197 393.329,265.197 393.686,265.197 394.043,265.197 394.401,265.197 394.758,265.197 395.116,265.197 395.473,265.197 395.831,265.197 396.188,265.197 396.545,265.197 396.903,265.197 397.26,265.197 397.618,265.197 397.975,265.197 398.333,265.197 398.69,265.197 399.047,265.197 399.405,265.197 399.762,265.197 400.12,265.197 400.477,265.197 400.834,265.197 401.191,265.197 401.549,265.197 401.906,265.197 402.264,265.197 402.621,265.197 402.979,265.197 403.336,265.197 403.693,265.197 404.051,265.197 404.408,265.197 404.766,265.197 405.123,265.197 405.48,265.197 405.838,265.197 406.195,265.197 406.553,265.197 406.91,265.197 407.268,265.197 407.625,265.197 407.982,265.197 408.34,265.197 408.697,265.197 409.055,265.197 409.412,265.197 409.77,265.197 410.127,265.197 410.484,265.197 410.842,265.197 411.199,265.197 411.556,265.197 411.914,265.197 412.271,265.197 412.628,265.197 412.986,265.197 413.343,265.197 413.701,265.197 414.058,265.197 414.416,265.197 414.773,265.197 415.13,265.197 415.488,265.197 415.845,265.197 416.203,265.197 416.56,265.197 416.917,265.197 417.275,265.197 417.632,265.197 417.99,265.197 418.347,265.197 418.705,265.197 419.062,265.197 419.419,265.197 419.777,265.197 420.134,265.197 420.492,265.197 420.849,265.197 421.207,265.197 421.564,265.197 421.921,265.197 422.278,265.197 422.636,265.197 422.993,265.197 423.351,265.197 423.708,265.197 424.065,265.197 424.423,265.197 424.78,265.197 425.138,265.197 425.495,265.197 425.853,265.197 426.21,265.197 426.567,265.197 426.925,265.197 427.282,265.197 427.64,265.197 427.997,265.197 428.354,265.197 428.712,265.197 429.069,265.197 429.427,265.197 429.784,265.197 430.142,265.197 430.499,265.197 430.856,265.197 431.214,265.197 431.571,265.197 431.929,265.197 432.286,265.197 432.644,267.333 433,270.304 433.358,273.238 433.715,276.098 434.073,278.885 434.43,281.6 434.788,284.245 435.145,286.822 435.502,289.333 435.86,291.779 436.217,294.163 436.575,296.485 436.932,298.748 437.29,300.952 437.647,303.1 438.004,305.192 438.362,307.231 438.719,309.217 439.077,311.152 439.434,313.038 439.792,314.875 440.149,316.664 440.506,318.408 440.864,320.107 441.221,321.762 441.579,323.375 441.936,324.946 442.293,326.477 442.651,327.968 443.008,329.421 443.366,330.836 443.723,332.216 444.08,333.56 444.438,334.869 444.795,336.145 445.152,337.387 445.51,338.598 445.867,339.778 446.225,340.927 446.582,342.047 446.939,343.138 447.297,344.201 447.654,345.237 448.012,346.246 448.369,347.229 448.727,348.187 449.084,349.12 449.441,350.029 449.799,350.915 450.156,351.778 450.514,352.619 450.871,353.438 451.229,354.236 451.586,355.014 451.943,355.771 452.301,356.509 452.658,357.229 453.016,357.929 453.373,358.612 453.73,359.277 454.088,359.925 454.445,360.556 454.802,361.171 455.16,361.771 455.518,362.354 455.875,362.924 456.232,363.478 456.589,364.018 456.947,364.544 457.304,365.057 457.662,365.556 458.019,366.042 458.376,366.517 458.734,366.979 459.091,367.429 459.449,367.867 459.806,368.294 460.164,368.71 460.521,369.116 460.878,369.511 461.236,369.896 461.593,370.271 461.951,370.636 462.308,370.992 462.666,371.339 463.023,371.677 463.38,372.006 463.738,372.327 464.095,372.639 464.453,372.943 464.81,373.24 465.167,373.529 465.525,373.811 465.882,374.085 466.239,374.353 466.597,374.613 466.954,374.866 467.312,375.114 467.669,375.354 468.026,375.589 468.384,375.818 468.741,376.041 469.099,376.257 469.456,376.469 469.813,376.675 470.171,376.875 470.528,377.071 470.886,377.262 471.243,377.447 471.601,377.628 471.958,377.804 472.315,377.976 472.673,378.143 473.03,378.306 473.388,378.465 473.745,378.619 474.103,378.77 474.46,378.917 474.817,379.06 475.175,379.199 475.532,379.335 475.89,379.467 476.247,379.596 476.604,379.722 476.961,379.844 477.319,379.963 477.676,380.08 478.034,380.192 478.391,380.303 478.749,380.41 479.106,380.515 479.463,380.617 479.821,380.716 480.178,380.813 480.536,380.907 480.893,380.999 481.25,381.088 481.608,381.176 481.965,381.261 482.323,381.343 482.68,381.424 483.038,381.503 483.395,381.579 483.752,381.654 484.11,381.727 484.467,381.797 484.825,381.866 485.182,381.934 485.54,381.999 485.897,382.063 486.254,382.125 486.612,382.186 486.969,382.245 487.327,382.302 487.684,382.358 488.041,382.413 488.398,382.466 488.756,382.518 489.113,382.568 489.471,382.617 489.828,382.665 490.186,382.711 490.543,382.757 490.9,382.801 491.258,382.845 491.615,382.887 491.973,382.928 492.33,382.967 492.688,383.006 493.045,383.044 493.402,383.081 493.76,383.117 494.117,383.152 494.475,383.187 494.832,383.22 495.189,383.252 495.547,383.284 495.904,383.314 496.262,383.344 496.619,383.374 496.977,383.402 497.334,383.43 497.691,383.457 498.049,383.483 498.406,383.509 498.763,383.534 499.121,383.558 499.478,383.582 499.835,383.605 500.193,383.627 500.55,383.649 500.908,383.67 501.265,383.691 501.623,383.711 501.98,383.731 502.337,383.75 502.695,383.77 503.052,383.788 503.41,383.806 503.767,383.823 504.125,383.84 504.482,383.856 504.839,383.872 505.197,383.888 505.554,383.903 505.912,383.918 506.269,383.932 506.626,383.946 506.984,383.96 507.341,383.974 507.699,383.986 508.056,383.999 508.414,384.012 508.771,384.023 509.128,384.035 509.485,384.047 509.843,384.058 510.2,384.069 510.558,384.08 510.915,384.09 511.272,384.1 511.63,384.109 511.987,384.119 512.345,384.128 512.702,384.137 513.06,384.146 513.417,384.155 513.774,384.163 514.132,384.171 514.489,384.179 514.847,384.187 515.204,384.194 515.562,384.202 515.919,384.209 516.276,384.216 516.634,384.223 516.991,384.229 517.349,384.236 517.706,384.242 518.063,384.248 518.421,384.254 518.778,384.26 519.136,384.266 519.493,384.271 519.851,384.276 520.208,384.282 520.565,384.287 520.922,384.292 521.28,384.296"/>
<polyline fill="none" stroke="#000000" stroke-width="0.5" stroke-dasharray="16,0" points="521.28,384.48 74.8799,384.48"/>
<polyline fill="none" stroke="#007f00" stroke-width="0.5" stroke-dasharray="16,0" points="521.28,384.48 521.28,253.04"/>
<polyline fill="none" stroke="#000000" stroke-width="0.5" stroke-dasharray="16,0" points="74.8799,384.48 74.8799,380.001"/>
<polyline fill="none" stroke="#000000" stroke-width="0.5" stroke-dasharray="16,0" points="146.361,384.48 146.361,380.001"/>
<polyline fill="none" stroke="#000000" stroke-width="0.5" stroke-dasharray="16,0" points="217.842,384.48 217.842,380.001"/>
<polyline fill="none" stroke="#000000" stroke-width="0.5" stroke-dasharray="16,0" points="289.324,384.48 289.324,380.001"/>
<polyline fill="none" stroke="#000000" stroke-width="0.5" stroke-dasharray="16,0" points="360.805,384.48 360.805,380.001"/>
<polyline fill="none" stroke="#000000" stroke-width="0.5" stroke-dasharray="16,0" points="432.286,384.48 432.286,380.001"/>
<polyline fill="none" stroke="#000000" stroke-width="0.5" stroke-dasharray="16,0" points="503.767,384.48 503.767,380.001"/>
<text fill="#000000" x="74.8799" y="389.497" font-size="10" text-anchor="middle" baseline-shift="-10" font-family="Helvetica">0</text>
<text fill="#000000" x="146.361" y="389.497" font-size="10" text-anchor="middle" baseline-shift="-10" font-family="Helvetica">0.2</text>
<text fill="#000000" x="217.842" y="389.497" font-size="10" text-anchor="middle" baseline-shift="-10" font-family="Helvetica">0.4</text>
<text fill="#000000" x="289.324" y="389.497" font-size="10" text-anchor="middle" baseline-shift="-10" font-family="Helvetica">0.6</text>
<text fill="#000000" x="360.805" y="389.497" font-size="10" text-anchor="middle" baseline-shift="-10" font-family="Helvetica">0.8</text>
<text fill="#000000" x="432.286" y="389.497" font-size="10" text-anchor="middle" baseline-shift="-10" font-family="Helvetica">1</text>
<text fill="#000000" x="503.767" y="389.497" font-size="10" text-anchor="middle" baseline-shift="-10" font-family="Helvetica">1.2</text>
<polyline fill="none" stroke="#007f00" stroke-width="0.5" stroke-dasharray="16,0" points="521.28,384.48 516.812,384.48"/>
<polyline fill="none" stroke="#007f00" stroke-width="0.5" stroke-dasharray="16,0" points="521.28,362.573 516.812,362.573"/>
<polyline fill="none" stroke="#007f00" stroke-width="0.5" stroke-dasharray="16,0" points="521.28,340.667 516.812,340.667"/>
<polyline fill="none" stroke="#007f00" stroke-width="0.5" stroke-dasharray="16,0" points="521.28,318.76 516.812,318.76"/>
<polyline fill="none" stroke="#007f00" stroke-width="0.5" stroke-dasharray="16,0" points="521.28,296.854 516.812,296.854"/>
<polyline fill="none" stroke="#007f00" stroke-width="0.5" stroke-dasharray="16,0" points="521.28,274.947 516.812,274.947"/>
<polyline fill="none" stroke="#007f00" stroke-width="0.5" stroke-dasharray="16,0" points="521.28,253.04 516.812,253.04"/>
<text fill="#007f00" x="526.285" y="384.48" font-size="10" text-anchor="start" baseline-shift="-5" font-family="Helvetica">-30</text>
<text fill="#007f00" x="526.285" y="362.573" font-size="10" text-anchor="start" baseline-shift="-5" font-family="Helvetica">-20</text>
<text fill="#007f00" x="526.285" y="340.667" font-size="10" text-anchor="start" baseline-shift="-5" font-family="Helvetica">-10</text>
<text fill="#007f00" x="526.285" y="318.76" font-size="10" text-anchor="start" baseline-shift="-5" font-family="Helvetica">0</text>
<text fill="#007f00" x="526.285" y="296.854" font-size="10" text-anchor="start" baseline-shift="-5" font-family="Helvetica">10</text>
<text fill="#007f00" x="526.285" y="274.947" font-size="10" text-anchor="start" baseline-shift="-5" font-family="Helvetica">20</text>
<text fill="#007f00" x="526.285" y="253.04" font-size="10" text-anchor="start" baseline-shift="-5" font-family="Helvetica">30</text>
<text fill="#007f00" x="546.285" y="318.76" font-size="10" transform="rotate(-90, 546.285, 318.76)" text-anchor="middle" baseline-shift="-10" font-family="Helvetica">Motor Torque (mNm)</text>
<polyline fill="none" stroke="#007f00" stroke-width="0.5" points="74.8799,284.035 75.2373,270.445 75.5947,271.055 75.9521,272.253 76.3096,273.448 76.667,274.613 77.0244,275.748 77.3818,276.854 77.7393,277.932 78.0967,278.981 78.4541,280.004 78.8115,281 79.1689,281.972 79.5264,282.917 79.8838,283.839 80.2412,284.737 80.5986,285.612 80.9561,286.464 81.3135,287.294 81.6709,288.104 82.0283,288.892 82.3857,289.66 82.7432,290.408 83.1001,291.137 83.4575,291.847 83.8149,292.539 84.1724,293.213 84.5298,293.87 84.8872,294.51 85.2446,295.134 85.6021,295.741 85.9595,296.333 86.3169,296.91 86.6743,297.471 87.0317,298.019 87.3892,298.552 87.7466,299.072 88.104,299.578 88.4614,300.071 88.8188,300.552 89.1763,301.02 89.5337,301.476 89.8911,301.92 90.2485,302.354 90.606,302.775 90.9634,303.186 91.3208,303.586 91.6782,303.977 92.0356,304.357 92.3931,304.727 92.7505,305.088 93.1079,305.439 93.4653,305.782 93.8223,306.116 94.1797,306.441 94.5371,306.757 94.8945,307.066 95.252,307.367 95.6094,307.66 95.9668,307.945 96.3242,308.223 96.6816,308.494 97.0391,308.758 97.3965,309.015 97.7539,309.266 98.1113,309.51 98.4688,309.748 98.8262,309.979 99.1836,310.205 99.541,310.425 99.8984,310.64 100.256,310.848 100.613,311.052 100.971,311.25 101.328,311.443 101.686,311.631 102.043,311.814 102.4,311.993 102.758,312.167 103.115,312.336 103.473,312.502 103.83,312.663 104.188,312.819 104.545,312.972 104.902,313.121 105.259,313.266 105.617,313.407 105.974,313.545 106.332,313.679 106.689,313.81 107.046,313.937 107.404,314.061 107.761,314.182 108.119,314.299 108.476,314.414 108.833,314.526 109.191,314.635 109.548,314.741 109.906,314.844 110.263,314.945 110.621,315.043 110.978,315.139 111.335,315.231 111.693,315.322 112.05,315.411 112.408,315.497 112.765,315.581 113.123,315.663 113.48,315.742 113.837,315.82 114.195,315.896 114.552,315.969 114.91,316.041 115.267,316.111 115.624,316.179 115.981,316.245 116.339,316.31 116.696,316.373 117.054,316.434 117.411,316.494 117.769,316.552 118.126,316.609 118.483,316.665 118.841,316.718 119.198,316.771 119.556,316.822 119.913,316.872 120.271,316.92 120.628,316.968 120.985,317.014 121.343,317.059 121.7,317.102 122.058,317.145 122.415,317.187 122.772,317.227 123.13,317.266 123.487,317.305 123.845,317.342 124.202,317.378 124.56,317.414 124.917,317.449 125.274,317.482 125.632,317.515 125.989,317.547 126.347,317.579 126.704,317.609 127.061,317.639 127.418,317.667 127.776,317.695 128.133,317.723 128.491,317.75 128.848,317.775 129.206,317.801 129.563,317.825 129.92,317.85 130.278,317.873 130.635,317.896 130.993,317.918 131.35,317.939 131.708,317.96 132.065,317.981 132.422,318.001 132.78,318.021 133.137,318.04 133.495,318.058 133.852,318.076 134.209,318.094 134.567,318.111 134.924,318.127 135.282,318.144 135.639,318.16 135.997,318.175 136.354,318.19 136.711,318.205 137.069,318.219 137.426,318.233 137.783,318.247 138.141,318.26 138.498,318.272 138.855,318.285 139.213,318.297 139.57,318.309 139.928,318.321 140.285,318.332 140.643,318.343 141,318.354 141.357,318.364 141.715,318.375 142.072,318.384 142.43,318.394 142.787,318.403 143.145,318.413 143.502,318.421 143.859,318.43 144.217,318.439 144.574,318.447 144.932,318.455 145.289,318.463 145.646,318.471 146.004,318.478 146.361,318.485 146.719,318.492 147.076,318.499 147.434,318.506 147.791,318.512 148.148,318.519 148.506,318.525 148.863,318.531 149.22,318.537 149.578,318.542 149.935,318.548 150.292,318.554 150.65,318.559 151.007,318.564 151.365,318.569 151.722,318.574 152.08,318.579 152.437,318.583 152.794,318.588 153.152,318.592 153.509,318.597 153.867,318.601 154.224,318.605 154.582,318.609 154.939,318.613 155.296,318.617 155.654,318.621 156.011,318.624 156.369,318.627 156.726,318.631 157.083,318.634 157.441,318.638 157.798,318.641 158.156,318.644 158.513,318.646 158.871,318.649 159.228,318.652 159.585,318.655 159.942,318.658 160.3,318.661 160.657,318.663 161.015,318.666 161.372,318.668 161.729,318.67 162.087,318.673 162.444,318.675 162.802,318.677 163.159,318.679 163.517,318.681 163.874,318.683 164.231,318.686 164.589,318.687 164.946,318.689 165.304,318.691 165.661,318.693 166.019,318.694 166.376,318.696 166.733,318.698 167.091,318.699 167.448,318.701 167.806,318.703 168.163,318.704 168.521,318.706 168.878,318.707 169.235,318.708 169.593,318.709 169.95,318.711 170.308,318.712 170.665,318.713 171.022,318.714 171.379,318.716 171.737,318.717 172.094,318.718 172.452,318.719 172.809,318.72 173.167,318.721 173.524,318.722 173.881,318.723 174.239,318.724 174.596,318.725 174.954,318.726 175.311,318.727 175.668,318.728 176.026,318.729 176.383,318.729 176.741,318.73 177.098,318.731 177.456,318.731 177.813,318.732 178.17,318.733 178.528,318.734 178.885,318.734 179.243,318.735 179.6,318.736 179.958,318.736 180.315,318.737 180.672,318.737 181.03,318.738 181.387,318.739 181.744,318.739 182.102,318.74 182.459,318.74 182.816,318.741 183.174,318.741 183.531,318.742 183.889,318.742 184.246,318.743 184.604,318.743 184.961,318.744 185.318,318.744 185.676,318.744 186.033,318.745 186.391,318.745 186.748,318.746 187.105,318.746 187.463,318.746 187.82,318.747 188.178,318.747 188.535,318.747 188.893,318.748 189.25,318.748 189.607,318.748 189.965,318.749 190.322,318.749 190.68,318.749 191.037,318.75 191.395,318.75 191.752,318.75 192.109,318.75 192.466,318.75 192.824,318.75 193.181,318.751 193.539,318.751 193.896,318.751 194.253,318.751 194.611,318.752 194.968,318.752 195.326,318.752 195.683,318.752 196.041,318.752 196.398,318.753 196.755,318.753 197.113,318.753 197.47,318.753 197.828,318.753 198.185,318.754 198.542,318.754 198.9,318.754 199.257,318.754 199.615,318.754 199.972,318.754 200.33,318.754 200.687,318.755 201.044,318.755 201.402,318.755 201.759,318.755 202.117,318.755 202.474,318.755 202.832,318.755 203.188,318.756 203.546,318.756 203.903,318.756 204.261,318.756 204.618,318.756 204.976,318.756 205.333,318.756 205.69,318.756 206.048,318.756 206.405,318.756 206.763,318.757 207.12,318.757 207.478,318.757 207.835,318.757 208.192,318.757 208.55,318.757 208.907,318.757 209.265,318.757 209.622,318.757 209.979,318.757 210.337,318.757 210.694,318.757 211.052,318.757 211.409,318.758 211.767,318.758 212.124,318.758 212.481,318.758 212.839,318.758 213.196,318.758 213.554,318.758 213.911,318.758 214.268,318.758 214.625,318.758 214.983,318.758 215.34,318.758 215.698,318.758 216.055,318.758 216.413,318.758 216.77,318.758 217.127,318.758 217.485,318.758 217.842,318.758 218.2,318.758 218.557,318.759 218.915,318.759 219.272,318.759 219.629,318.759 219.987,318.759 220.344,318.759 220.702,318.759 221.059,318.759 221.417,318.759 221.774,318.759 222.131,318.759 222.489,318.759 222.846,318.759 223.204,318.759 223.561,318.759 223.918,318.759 224.276,318.759 224.633,318.759 224.99,318.759 225.348,318.759 225.705,318.759 226.062,318.759 226.42,318.759 226.777,318.759 227.135,318.759 227.492,318.759 227.85,318.759 228.207,318.759 228.564,318.759 228.922,318.759 229.279,318.759 229.637,318.759 229.994,318.759 230.352,318.759 230.709,318.759 231.066,318.759 231.424,318.759 231.781,318.759 232.139,318.759 232.496,318.759 232.854,318.759 233.211,318.759 233.568,318.76 233.926,318.76 234.283,318.76 234.641,318.76 234.998,318.76 235.355,318.76 235.713,318.76 236.07,318.76 236.427,318.76 236.785,318.76 237.142,318.76 237.5,318.76 237.857,318.76 238.214,318.76 238.572,318.76 238.929,318.76 239.287,318.76 239.644,318.76 240.001,318.76 240.359,318.76 240.716,318.76 241.074,318.76 241.431,318.76 241.789,318.76 242.146,318.76 242.503,318.76 242.861,318.76 243.218,318.76 243.576,318.76 243.933,318.76 244.291,318.76 244.648,318.76 245.005,318.76 245.363,318.76 245.72,318.76 246.078,318.76 246.435,318.76 246.792,318.76 247.149,318.76 247.507,318.76 247.864,318.76 248.222,318.76 248.579,318.76 248.937,318.76 249.294,318.76 249.651,318.76 250.009,318.76 250.366,318.76 250.724,318.76 251.081,318.76 251.438,318.76 251.796,318.76 252.153,318.76 252.511,318.76 252.868,318.76 253.226,318.76 253.583,318.76 253.94,318.76 254.298,318.76 254.655,318.76 255.013,318.76 255.37,318.76 255.728,318.76 256.085,318.76 256.442,318.76 256.8,318.76 257.157,318.76 257.515,318.76 257.872,318.76 258.229,318.76 258.586,318.76 258.944,318.76 259.301,318.76 259.659,318.76 260.016,318.76 260.374,318.76 260.731,318.76 261.088,318.76 261.446,318.76 261.803,318.76 262.161,318.76 262.518,318.76 262.875,318.76 263.233,318.76 263.59,318.76 263.948,318.76 264.305,318.76 264.663,318.76 265.02,318.76 265.377,318.76 265.735,318.76 266.092,318.76 266.45,318.76 266.807,318.76 267.165,318.76 267.522,318.76 267.879,318.76 268.237,318.76 268.594,318.76 268.951,318.76 269.309,318.76 269.666,318.76 270.023,318.76 270.381,318.76 270.738,318.76 271.096,318.76 271.453,318.76 271.811,318.76 272.168,318.76 272.525,318.76 272.883,318.76 273.24,318.76 273.598,318.76 273.955,318.76 274.312,318.76 274.67,318.76 275.027,318.76 275.385,318.76 275.742,318.76 276.1,318.76 276.457,318.76 276.814,318.76 277.172,318.76 277.529,318.76 277.887,318.76 278.244,318.76 278.602,318.76 278.959,318.76 279.316,318.76 279.674,318.76 280.031,318.76 280.388,318.76 280.746,318.76 281.103,318.76 281.46,318.76 281.818,318.76 282.175,318.76 282.533,318.76 282.89,318.76 283.248,318.76 283.605,318.76 283.962,318.76 284.32,318.76 284.677,318.76 285.035,318.76 285.392,318.76 285.75,318.76 286.107,318.76 286.464,318.76 286.822,318.76 287.179,318.76 287.537,318.76 287.894,318.76 288.251,318.76 288.609,318.76 288.966,318.76 289.324,318.76 289.681,318.76 290.039,318.76 290.396,318.76 290.753,318.76 291.11,318.76 291.468,318.76 291.825,318.76 292.183,318.76 292.54,318.76 292.897,318.76 293.255,318.76 293.612,318.76 293.97,318.76 294.327,318.76 294.685,318.76 295.042,318.76 295.399,318.76 295.757,318.76 296.114,318.76 296.472,318.76 296.829,318.76 297.187,318.76 297.544,318.76 297.901,318.76 298.259,318.76 298.616,318.76 298.974,318.76 299.331,318.76 299.688,318.76 300.046,318.76 300.403,318.76 300.761,318.76 301.118,318.76 301.476,318.76 301.833,318.76 302.19,318.76 302.547,318.76 302.905,318.76 303.262,318.76 303.62,318.76 303.977,318.76 304.334,318.76 304.692,318.76 305.049,318.76 305.407,318.76 305.764,318.76 306.122,318.76 306.479,318.76 306.836,318.76 307.194,318.76 307.551,318.76 307.909,318.76 308.266,318.76 308.624,318.76 308.981,318.76 309.338,318.76 309.696,318.76 310.053,318.76 310.411,318.76 310.768,318.76 311.125,318.76 311.483,318.76 311.84,318.76 312.198,318.76 312.555,318.76 312.912,318.76 313.27,318.76 313.627,318.76 313.984,318.76 314.342,318.76 314.699,318.76 315.057,318.76 315.414,318.76 315.771,318.76 316.129,318.76 316.486,318.76 316.844,318.76 317.201,318.76 317.559,318.76 317.916,318.76 318.273,318.76 318.631,318.76 318.988,318.76 319.346,318.76 319.703,318.76 320.061,318.76 320.418,318.76 320.775,318.76 321.133,318.76 321.49,318.76 321.848,318.76 322.205,318.76 322.562,318.76 322.92,318.76 323.277,318.76 323.634,318.76 323.992,318.76 324.349,318.76 324.707,318.76 325.064,318.76 325.421,318.76 325.779,318.76 326.136,318.76 326.494,318.76 326.851,318.76 327.208,318.76 327.566,318.76 327.923,318.76 328.281,318.76 328.638,318.76 328.996,318.76 329.353,318.76 329.71,318.76 330.068,318.76 330.425,318.76 330.783,318.76 331.14,318.76 331.498,318.76 331.855,318.76 332.212,318.76 332.57,318.76 332.927,318.76 333.285,318.76 333.642,318.76 334,318.76 334.357,318.76 334.714,318.76 335.071,318.76 335.429,318.76 335.786,318.76 336.144,318.76 336.501,318.76 336.858,318.76 337.216,318.76 337.573,318.76 337.931,318.76 338.288,318.76 338.646,318.76 339.003,318.76 339.36,318.76 339.718,318.76 340.075,318.76 340.433,318.76 340.79,318.76 341.147,318.76 341.505,318.76 341.862,318.76 342.22,318.76 342.577,318.76 342.935,318.76 343.292,318.76 343.649,318.76 344.007,318.76 344.364,318.76 344.722,318.76 345.079,318.76 345.437,318.76 345.794,318.76 346.151,318.76 346.508,318.76 346.866,318.76 347.223,318.76 347.581,318.76 347.938,318.76 348.295,318.76 348.653,318.76 349.01,318.76 349.368,318.76 349.725,318.76 350.083,318.76 350.44,318.76 350.797,318.76 351.155,318.76 351.512,318.76 351.87,318.76 352.227,318.76 352.584,318.76 352.942,318.76 353.299,318.76 353.657,318.76 354.014,318.76 354.372,318.76 354.729,318.76 355.086,318.76 355.444,318.76 355.801,318.76 356.159,318.76 356.516,318.76 356.873,318.76 357.23,318.76 357.588,318.76 357.945,318.76 358.303,318.76 358.66,318.76 359.018,318.76 359.375,318.76 359.732,318.76 360.09,318.76 360.447,318.76 360.805,318.76 361.162,318.76 361.52,318.76 361.877,318.76 362.234,318.76 362.592,318.76 362.949,318.76 363.307,318.76 363.664,318.76 364.021,318.76 364.379,318.76 364.736,318.76 365.094,318.76 365.451,318.76 365.809,318.76 366.166,318.76 366.523,318.76 366.881,318.76 367.238,318.76 367.595,318.76 367.953,318.76 368.31,318.76 368.667,318.76 369.025,318.76 369.382,318.76 369.74,318.76 370.097,318.76 370.455,318.76 370.812,318.76 371.169,318.76 371.527,318.76 371.884,318.76 372.242,318.76 372.599,318.76 372.957,318.76 373.314,318.76 373.671,318.76 374.029,318.76 374.386,318.76 374.744,318.76 375.101,318.76 375.458,318.76 375.816,318.76 376.173,318.76 376.531,318.76 376.888,318.76 377.246,318.76 377.603,318.76 377.96,318.76 378.317,318.76 378.675,318.76 379.032,318.76 379.39,318.76 379.747,318.76 380.104,318.76 380.462,318.76 380.819,318.76 381.177,318.76 381.534,318.76 381.892,318.76 382.249,318.76 382.606,318.76 382.964,318.76 383.321,318.76 383.679,318.76 384.036,318.76 384.394,318.76 384.751,318.76 385.108,318.76 385.466,318.76 385.823,318.76 386.181,318.76 386.538,318.76 386.896,318.76 387.253,318.76 387.61,318.76 387.968,318.76 388.325,318.76 388.683,318.76 389.04,318.76 389.397,318.76 389.754,318.76 390.112,318.76 390.469,318.76 390.827,318.76 391.184,318.76 391.542,318.76 391.899,318.76 392.256,318.76 392.614,318.76 392.971,318.76 393.329,318.76 393.686,318.76 394.043,318.76 394.401,318.76 394.758,318.76 395.116,318.76 395.473,318.76 395.831,318.76 396.188,318.76 396.545,318.76 396.903,318.76 397.26,318.76 397.618,318.76 397.975,318.76 398.333,318.76 398.69,318.76 399.047,318.76 399.405,318.76 399.762,318.76 400.12,318.76 400.477,318.76 400.834,318.76 401.191,318.76 401.549,318.76 401.906,318.76 402.264,318.76 402.621,318.76 402.979,318.76 403.336,318.76 403.693,318.76 404.051,318.76 404.408,318.76 404.766,318.76 405.123,318.76 405.48,318.76 405.838,318.76 406.195,318.76 406.553,318.76 406.91,318.76 407.268,318.76 407.625,318.76 407.982,318.76 408.34,318.76 408.697,318.76 409.055,318.76 409.412,318.76 409.77,318.76 410.127,318.76 410.484,318.76 410.842,318.76 411.199,318.76 411.556,318.76 411.914,318.76 412.271,318.76 412.628,318.76 412.986,318.76 413.343,318.76 413.701,318.76 414.058,318.76 414.416,318.76 414.773,318.76 415.13,318.76 415.488,318.76 415.845,318.76 416.203,318.76 416.56,318.76 416.917,318.76 417.275,318.76 417.632,318.76 417.99,318.76 418.347,318.76 418.705,318.76 419.062,318.76 419.419,318.76 419.777,318.76 420.134,318.76 420.492,318.76 420.849,318.76 421.207,318.76 421.564,318.76 421.921,318.76 422.278,318.76 422.636,318.76 422.993,318.76 423.351,318.76 423.708,318.76 424.065,318.76 424.423,318.76 424.78,318.76 425.138,318.76 425.495,318.76 425.853,318.76 426.21,318.76 426.567,318.76 426.925,318.76 427.282,318.76 427.64,318.76 427.997,318.76 428.354,318.76 428.712,318.76 429.069,318.76 429.427,318.76 429.784,318.76 430.142,318.76 430.499,318.76 430.856,318.76 431.214,318.76 431.571,318.76 431.929,318.76 432.286,353.485 432.644,367.075 433,366.465 433.358,365.267 433.715,364.072 434.073,362.907 434.43,361.772 434.788,360.666 435.145,359.588 435.502,358.539 435.86,357.516 436.217,356.52 436.575,355.548 436.932,354.603 437.29,353.681 437.647,352.783 438.004,351.908 438.362,351.056 438.719,350.226 439.077,349.417 439.434,348.628 439.792,347.86 440.149,347.112 440.506,346.383 440.864,345.673 441.221,344.981 441.579,344.307 441.936,343.65 442.293,343.01 442.651,342.386 443.008,341.779 443.366,341.187 443.723,340.61 444.08,340.048 444.438,339.501 444.795,338.968 445.152,338.448 445.51,337.942 445.867,337.449 446.225,336.968 446.582,336.5 446.939,336.044 447.297,335.6 447.654,335.167 448.012,334.745 448.369,334.334 448.727,333.934 449.084,333.543 449.441,333.163 449.799,332.793 450.156,332.432 450.514,332.081 450.871,331.738 451.229,331.404 451.586,331.079 451.943,330.762 452.301,330.454 452.658,330.153 453.016,329.86 453.373,329.575 453.73,329.297 454.088,329.026 454.445,328.762 454.802,328.505 455.16,328.254 455.518,328.01 455.875,327.772 456.232,327.541 456.589,327.315 456.947,327.095 457.304,326.88 457.662,326.672 458.019,326.468 458.376,326.27 458.734,326.077 459.091,325.889 459.449,325.706 459.806,325.527 460.164,325.353 460.521,325.184 460.878,325.018 461.236,324.857 461.593,324.701 461.951,324.548 462.308,324.399 462.666,324.254 463.023,324.113 463.38,323.975 463.738,323.841 464.095,323.71 464.453,323.583 464.81,323.459 465.167,323.338 465.525,323.221 465.882,323.106 466.239,322.994 466.597,322.885 466.954,322.779 467.312,322.676 467.669,322.575 468.026,322.477 468.384,322.381 468.741,322.289 469.099,322.198 469.456,322.109 469.813,322.023 470.171,321.939 470.528,321.857 470.886,321.778 471.243,321.7 471.601,321.625 471.958,321.551 472.315,321.479 472.673,321.409 473.03,321.341 473.388,321.275 473.745,321.21 474.103,321.147 474.46,321.086 474.817,321.026 475.175,320.968 475.532,320.911 475.89,320.855 476.247,320.802 476.604,320.75 476.961,320.698 477.319,320.648 477.676,320.6 478.034,320.552 478.391,320.506 478.749,320.461 479.106,320.418 479.463,320.375 479.821,320.333 480.178,320.293 480.536,320.254 480.893,320.215 481.25,320.178 481.608,320.142 481.965,320.106 482.323,320.071 482.68,320.038 483.038,320.005 483.395,319.973 483.752,319.941 484.11,319.911 484.467,319.881 484.825,319.853 485.182,319.825 485.54,319.797 485.897,319.771 486.254,319.745 486.612,319.719 486.969,319.695 487.327,319.67 487.684,319.647 488.041,319.625 488.398,319.602 488.756,319.581 489.113,319.56 489.471,319.539 489.828,319.519 490.186,319.5 490.543,319.48 490.9,319.462 491.258,319.444 491.615,319.426 491.973,319.409 492.33,319.393 492.688,319.376 493.045,319.36 493.402,319.345 493.76,319.33 494.117,319.315 494.475,319.301 494.832,319.287 495.189,319.273 495.547,319.26 495.904,319.248 496.262,319.235 496.619,319.223 496.977,319.211 497.334,319.199 497.691,319.188 498.049,319.177 498.406,319.166 498.763,319.156 499.121,319.146 499.478,319.136 499.835,319.126 500.193,319.117 500.55,319.107 500.908,319.099 501.265,319.09 501.623,319.081 501.98,319.073 502.337,319.065 502.695,319.057 503.052,319.049 503.41,319.042 503.767,319.035 504.125,319.028 504.482,319.021 504.839,319.014 505.197,319.007 505.554,319.001 505.912,318.995 506.269,318.989 506.626,318.983 506.984,318.978 507.341,318.972 507.699,318.966 508.056,318.961 508.414,318.956 508.771,318.951 509.128,318.946 509.485,318.941 509.843,318.937 510.2,318.932 510.558,318.928 510.915,318.923 511.272,318.919 511.63,318.915 511.987,318.911 512.345,318.907 512.702,318.903 513.06,318.899 513.417,318.896 513.774,318.893 514.132,318.889 514.489,318.886 514.847,318.882 515.204,318.879 515.562,318.876 515.919,318.874 516.276,318.871 516.634,318.868 516.991,318.865 517.349,318.862 517.706,318.859 518.063,318.857 518.421,318.854 518.778,318.852 519.136,318.85 519.493,318.847 519.851,318.845 520.208,318.843 520.565,318.841 520.922,318.839 521.28,318.837"/>
<text fill="#000000" x="298.08" y="37.1626" font-size="10" text-anchor="middle" baseline-shift="0" font-family="Helvetica">Cube Response</text>
<text fill="#000000" x="298.08" y="243.04" font-size="10" text-anchor="middle" baseline-shift="0" font-family="Helvetica">Motor A Response</text>
</g>
</svg>
