G04 #@! TF.FileFunction,Profile,NP*
%FSLAX46Y46*%
G04 Gerber Fmt 4.6, Leading zero omitted, Abs format (unit mm)*
G04 Created by KiCad (PCBNEW 4.0.1-stable) date 1/22/2016 1:12:54 PM*
%MOMM*%
G01*
G04 APERTURE LIST*
%ADD10C,0.100000*%
%ADD11C,0.150000*%
G04 APERTURE END LIST*
D10*
D11*
X111000000Y-68600000D02*
G75*
G03X111000000Y-68600000I-1200000J0D01*
G01*
X104140000Y-66675000D02*
X109855000Y-66675000D01*
X111760000Y-75565000D02*
X111760000Y-68580000D01*
X111760000Y-68580000D02*
G75*
G03X109855000Y-66675000I-1905000J0D01*
G01*
X83800000Y-68600000D02*
G75*
G03X83800000Y-68600000I-1200000J0D01*
G01*
X110800000Y-100200000D02*
G75*
G03X110800000Y-100200000I-1200000J0D01*
G01*
X111760000Y-100330000D02*
X111760000Y-95885000D01*
X78105000Y-102235000D02*
X81915000Y-102235000D01*
X78740000Y-75565000D02*
X59690000Y-75565000D01*
X57785000Y-100330000D02*
X57785000Y-77470000D01*
X78105000Y-102235000D02*
X59690000Y-102235000D01*
X57785000Y-100330000D02*
G75*
G03X59690000Y-102235000I1905000J0D01*
G01*
X59690000Y-75565000D02*
G75*
G03X57785000Y-77470000I0J-1905000D01*
G01*
X109855000Y-102235000D02*
X81915000Y-102235000D01*
X111760000Y-93980000D02*
X111760000Y-95885000D01*
X109855000Y-102235000D02*
G75*
G03X111760000Y-100330000I0J1905000D01*
G01*
X111760000Y-75565000D02*
X111760000Y-93980000D01*
X80645000Y-68580000D02*
X80645000Y-69215000D01*
X104140000Y-66675000D02*
X84455000Y-66675000D01*
X82550000Y-66675000D02*
X84455000Y-66675000D01*
X80645000Y-73660000D02*
X80645000Y-69215000D01*
X82550000Y-66675000D02*
G75*
G03X80645000Y-68580000I0J-1905000D01*
G01*
X78740000Y-75565000D02*
G75*
G03X80645000Y-73660000I0J1905000D01*
G01*
M02*
