G04 #@! TF.FileFunction,Soldermask,Bot*
%FSLAX46Y46*%
G04 Gerber Fmt 4.6, Leading zero omitted, Abs format (unit mm)*
G04 Created by KiCad (PCBNEW 4.0.1-stable) date 1/22/2016 1:12:54 PM*
%MOMM*%
G01*
G04 APERTURE LIST*
%ADD10C,0.100000*%
%ADD11R,1.574800X1.879600*%
%ADD12O,1.574800X1.879600*%
%ADD13R,1.879600X1.574800*%
%ADD14O,1.879600X1.574800*%
%ADD15R,1.879600X1.879600*%
%ADD16O,1.879600X1.879600*%
G04 APERTURE END LIST*
D10*
D11*
X85725000Y-86995000D03*
D12*
X88265000Y-86995000D03*
X90805000Y-86995000D03*
X93345000Y-86995000D03*
X95885000Y-86995000D03*
X98425000Y-86995000D03*
X100965000Y-86995000D03*
D13*
X59690000Y-77470000D03*
D14*
X59690000Y-80010000D03*
X59690000Y-82550000D03*
X59690000Y-85090000D03*
X59690000Y-87630000D03*
X59690000Y-90170000D03*
X59690000Y-92710000D03*
X59690000Y-95250000D03*
X59690000Y-97790000D03*
X59690000Y-100330000D03*
D15*
X107315000Y-80645000D03*
D16*
X109855000Y-80645000D03*
D15*
X107315000Y-75565000D03*
D16*
X109855000Y-75565000D03*
D15*
X107315000Y-93345000D03*
D16*
X109855000Y-93345000D03*
D15*
X107315000Y-88265000D03*
D16*
X109855000Y-88265000D03*
D13*
X69850000Y-77470000D03*
D14*
X69850000Y-80010000D03*
X69850000Y-82550000D03*
X69850000Y-85090000D03*
X69850000Y-87630000D03*
X69850000Y-90170000D03*
X69850000Y-92710000D03*
X69850000Y-95250000D03*
X69850000Y-97790000D03*
X69850000Y-100330000D03*
D11*
X85725000Y-94615000D03*
D12*
X88265000Y-94615000D03*
X90805000Y-94615000D03*
X93345000Y-94615000D03*
X95885000Y-94615000D03*
X98425000Y-94615000D03*
X100965000Y-94615000D03*
D11*
X85725000Y-81915000D03*
D12*
X88265000Y-81915000D03*
X90805000Y-81915000D03*
X93345000Y-81915000D03*
X95885000Y-81915000D03*
X98425000Y-81915000D03*
X100965000Y-81915000D03*
D11*
X85725000Y-74295000D03*
D12*
X88265000Y-74295000D03*
X90805000Y-74295000D03*
X93345000Y-74295000D03*
X95885000Y-74295000D03*
X98425000Y-74295000D03*
X100965000Y-74295000D03*
D15*
X104140000Y-68580000D03*
D16*
X104140000Y-71120000D03*
M02*
