M48
;DRILL file {KiCad 4.0.1-stable} date 1/22/2016 1:07:52 PM
;FORMAT={2:4/ absolute / inch / suppress leading zeros}
FMAT,2
INCH,TZ
T1C0.016
T2C0.040
%
G90
G05
M72
T1
X24250Y-30125
X24250Y-31000
X24250Y-32000
X24250Y-33000
X24250Y-34000
X24250Y-35000
X24250Y-36000
X24250Y-37000
X24250Y-37000
X24250Y-38000
X24250Y-38000
X24250Y-39000
X24250Y-39000
X24250Y-39875
X26250Y-30125
X26250Y-31000
X26250Y-32000
X26250Y-33000
X26250Y-34000
X26250Y-35000
X26250Y-36000
X26250Y-37000
X26250Y-37000
X26250Y-38000
X26250Y-38000
X26250Y-39000
X26250Y-39000
X26250Y-39875
X28000Y-32000
X28000Y-33000
X28000Y-34000
X28000Y-35000
X29128Y-33203
X29285Y-32455
X29285Y-33006
X29482Y-32888
X29679Y-32809
X29876Y-32888
X30033Y-32455
X30073Y-33006
X30230Y-33203
X30750Y-39500
X31750Y-38500
X32000Y-39500
X33000Y-38500
X33500Y-39500
X33750Y-27000
X34375Y-37875
X34500Y-38500
X35000Y-39500
X35250Y-27000
X35250Y-32750
X35250Y-33750
X35250Y-37875
X36000Y-38500
X36250Y-28750
X36250Y-31750
X36250Y-33750
X36500Y-39500
X36750Y-27000
X37250Y-28750
X37250Y-31750
X38000Y-39500
X38250Y-27000
X38250Y-28750
X39500Y-39500
X39750Y-27000
X41000Y-39500
X41750Y-33250
X42000Y-27000
X42000Y-28000
X42000Y-28750
X42000Y-32500
X42000Y-34000
X42000Y-37750
X42000Y-38500
X42875Y-32375
X42875Y-34125
X43250Y-28000
X43250Y-28750
X43250Y-33250
X43250Y-37750
X43250Y-38500
X43625Y-32375
X43625Y-34125
T2
X23500Y-30500
X23500Y-31500
X23500Y-32500
X23500Y-33500
X23500Y-34500
X23500Y-35500
X23500Y-36500
X23500Y-37500
X23500Y-38500
X23500Y-39500
X27500Y-30500
X27500Y-31500
X27500Y-32500
X27500Y-33500
X27500Y-34500
X27500Y-35500
X27500Y-36500
X27500Y-37500
X27500Y-38500
X27500Y-39500
X33750Y-29250
X33750Y-32250
X33750Y-34250
X33750Y-37250
X34750Y-29250
X34750Y-32250
X34750Y-34250
X34750Y-37250
X35750Y-29250
X35750Y-32250
X35750Y-34250
X35750Y-37250
X36750Y-29250
X36750Y-32250
X36750Y-34250
X36750Y-37250
X37750Y-29250
X37750Y-32250
X37750Y-34250
X37750Y-37250
X38750Y-29250
X38750Y-32250
X38750Y-34250
X38750Y-37250
X39750Y-29250
X39750Y-32250
X39750Y-34250
X39750Y-37250
X41000Y-27000
X41000Y-28000
X42250Y-29750
X42250Y-31750
X42250Y-34750
X42250Y-36750
X43250Y-29750
X43250Y-31750
X43250Y-34750
X43250Y-36750
T0
M30
